<?xml version="1.0" encoding="UTF-8"?>
<svg id="Layer_1" data-name="Layer 1" xmlns="http://www.w3.org/2000/svg" viewBox="0 0 687.58 387.65">
  <defs>
    <style>
      .cls-1, .cls-2 {
        fill: none;
      }

      .cls-2 {
        stroke: #231f20;
        stroke-miterlimit: 10;
      }

      .cls-3 {
        fill: #936a4e;
      }

      .cls-4 {
        fill: #231f20;
      }

      .cls-5 {
        fill: #b8652a;
      }

      .cls-6 {
        fill: #5b391f;
      }

      .cls-7 {
        fill: #68482e;
      }

      .cls-8 {
        fill: #774c2c;
      }

      .cls-9 {
        fill: #b25f7d;
      }

      .cls-10 {
        fill: #fff;
      }

      .cls-11 {
        fill: #8a2945;
      }

      .cls-12 {
        fill: #2d2427;
      }

      .cls-13 {
        fill: #bc788d;
      }

      .cls-14 {
        fill: #52422e;
      }

      .cls-15 {
        fill: #6b5234;
      }

      .cls-16 {
        fill: #bb2430;
      }

      .cls-17 {
        fill: #66452c;
      }

      .cls-18 {
        fill: #7f6045;
      }
    </style>
  </defs>
  <path class="cls-16" d="M311.49,335.45c.28-.77.38-1.59.24-2.38,1.61-1.29,2.61-3.16,2.36-5.68-.54-5.36-5.15-8.74-10.01-9.78-.1-1.65-1.08-3.08-2.47-4.08-2.67-1.92-6.59-3.12-9.73-4.44,0,0,0-.02,0-.02-.49-1.94-2.44-3.31-4.41-3.49-.42-.71-1.03-1.3-1.82-1.7-.36-.69-.87-1.3-1.55-1.74-.29-.88-.81-1.67-1.54-2.25-.16-1.13-.67-2.2-1.5-2.98-.03-1.04-.35-2.06-.93-2.9,0-.88-.19-1.75-.58-2.53.2-.81.21-1.67.05-2.5.38-1.31.27-2.78-.33-4-.03-.07-.06-.14-.09-.2.05-.56,0-1.13-.11-1.67,0-.27-.02-.54-.07-.81.35-1.02.39-2.16.12-3.21.26-.67.38-1.39.37-2.11.46-.71.72-1.54.8-2.4.55-.76.86-1.68.94-2.63.84-.77,1.34-1.84,1.51-2.96.6-.65.97-1.46,1.16-2.33.38-.18.68-.51.84-.95.06-.17.13-.34.19-.51.02-.04.03-.07.04-.09.03-.06.05-.12.08-.18.03-.07.07-.13.1-.2.09-.03.18-.05.27-.1.54-.29.82-.84,1.13-1.35.25-.4.5-.81.75-1.21.5-.81,1-1.62,1.5-2.43.51-.83.02-1.95-.9-2.2-.26-.07-.52-.15-.78-.24-.11-.04-.21-.08-.32-.12-.05-.02-.1-.04-.15-.06-.47-.22-.93-.45-1.37-.72-.25-.15-.54-.21-.84-.2-.04-.02-.08-.05-.13-.08-1.16-.59-2.21-1.11-3.26-1.4-.4-.61-.97-1.15-1.74-1.53-1.3-.64-1.54-.96-2.12-2.25.24-2.26-.92-4.61-3.52-5.29-4.65-1.22-9.43-.94-14.02-2-4.19-.97-9.12-1.19-12.98-3.14-.53-.27-1.06-.42-1.57-.51-1.01-1-2.2-1.38-3.36-1.31-1.91-.94-3.87-1.76-5.93-2.45-.75-.25-1.46-.31-2.11-.21-2.53-.61-5.08-1-7.71-1.21-.43-.17-.9-.3-1.41-.37-.71-.21-1.42-.43-2.13-.64l-1.66-.65c-.39-.15-.77-.24-1.14-.27-1.56-.68-3.05-1.44-4.93-1.65-.45-.2-.9-.4-1.35-.6-.75-.33-1.49-.48-2.2-.49-1.29-.57-2.56-1.29-3.9-1.66-2.59-.7-5.31-.77-7.92-1.38-5.32-1.25-10.08-2.65-15.14-4.81-.16-.07-.31-.12-.47-.17-.86-.6-1.93-1.11-3.23-1.64-2.04-.83-3.77-2.25-5.93-2.81-2.5-.65-5.07-.74-7.64-1.4-.31-.05-.61-.07-.9-.07-1.14-.31-2.25-.71-3.25-1.24-1.68-.89-2.83-1.97-4.72-2.51-.25-.07-.5-.12-.75-.15-1.82-1.88-4.33-3.37-6.15-4.46-2.7-1.62-5.65-2.88-8.62-3.9-3.25-1.11-4.64-1.92-7.12-4.31-.49-.47-1-.81-1.52-1.04-.94-2.81-1.62-5.7-5.26-6.25-4.51-.68-11.05,2.54-15.37,3.74-.37.1-.7.25-1.01.42l-3.32.76c-.41.09-.79.23-1.13.39-.09.02-.18.03-.27.05-.69-.13-1.46-.1-2.29.13-3.43.97-6.68,2.15-10.18,2.72-3.24.53-8.07,1.65-10.66,3.71-3.18,2.54-1.53,5.3-.78,8.43.86,3.62-2.58,6.97-2.29,10.78.15,2,1.25,3.38,2.66,4.13-.68,2.3-1.37,5.68-3.63,6.36-2.01.61-3.09,1.99-3.43,3.52-3.14.54-6.86-.05-10.05.89-1.31.39-2.66,1.07-4.02,1.66-1.55-.42-3.13-.06-4.33.82-1.46-.91-2.92-1.83-4.37-2.74-.51-.82-.92-1.71-1.25-2.57-.84-2.21-2.93-3.69-5.07-3.66,0-.03,0-.07,0-.1,0-.1,0-.2-.02-.3-.07-1.13-.5-2.23-1.4-3.05-1.89-1.73-5-2.02-6.92-.13-1.83,1.14-3.57,2.49-5.06,4.03-.85.88-1.76,1.87-2.5,2.94-6.46,6.75-12.84,13.46-17.52,21.57-4.61,8-9.22,15.56-9.57,25-.27.62-.41,1.34-.39,2.17.18,5.72.62,11.52,3.69,16.49,2.76,4.49,5.98,8.9,10.07,12.25.69.57,1.43.91,2.17,1.08,1.77,1.55,4,2.62,6.4,3.68,5.61,2.48,10.97,4.79,16.97,6.19,12.34,2.89,24.68,6.13,37.36,7.04.36.15.76.29,1.21.36,3.95.63,7.88,1.19,11.82,1.67.05.24.12.48.21.71-2.36,1.64-3.46,4.94-.66,7.31,8.63,7.29,18.73,12.13,29.96,13.71.42.06.83.06,1.23.02,3.08,2.32,6.32,4.4,9.91,5.96,1.96.85,4.06.67,5.54-.39,1.02.82,2.09,1.62,3.2,2.32,4.38,6.7,9.18,14.05,15.66,18.48,3.9,2.67,8.11-1.72,7.34-5.65-.71-3.64-2.43-7.05-4.62-10.21l8.28,4.69c2.67,1.51,6.65.23,7.34-2.99.14-.66.23-1.31.26-1.95,3,1.1,6.29-1.58,6.52-4.87.2.18.39.37.59.55,2.22,1.96,6.37,2.07,7.85-1.01.27-.56.48-1.11.64-1.66.33.38.66.75,1,1.12,2.11,2.27,5.11,1.71,6.94-.05.88.35,1.81.36,2.68.1,2,.84,4.5.42,6.01-.89,1.32,1.99,3.12,3.63,5.24,4.84-.14.04-.29.06-.43.1-5.05,1.34-4.3,7.53-.57,9.29.98,1.59,2.86,2.68,5.41,2.29,3.42-.51,6.85-.87,10.29-1.15.11.14.21.28.32.42,2.22,2.77,5.99,1.55,7.67-.95,1.58-.09,3.16-.17,4.74-.25,1.46.26,2.92.54,4.38.84,4.32.87,18.52,5.04,17.99-3.49.27-.05.54-.1.81-.15,5.4-.97,11.01-.51,16.44-.07,4.21.34,8.71.85,12.39-1.71,1.5-1.05,2.61-2.45,3.38-4.04,4.94,0,6.33-6.83,2.32-9.31-.61-.38-1.24-.73-1.86-1.09-.94-3.17-2.49-6.21-3.35-9.37-.31-1.16-.53-2.27-.73-3.34,4.1,2.3,8.6,4.16,13.03,4.4,2.54.14,5.22-2.41,5-5-.15-1.71-.51-3.29-1.05-4.79ZM176.18,292.57s-.05.03-.07.05c-3.72.06-7.82,1.7-11.32,2.96-.25.07-.5.15-.75.22-.38-.08-.78-.13-1.21-.13-1.05,0-1.93.27-2.64.72-.26.04-.51.07-.77.11-2.78.12-5.56.17-8.34.08-1.84-.06-3.67-.16-5.51-.31-1.18-.09-2.36-.21-3.53-.36-.56-.2-.92-.32-1.09-.35-.5-.61-1.12-1.08-1.83-1.4-.72-2.94-1.06-5.98-1.18-9.04,1.21-2.72,2.72-5.45,4.76-7.05.58.21,1.24.31,2,.26.47-.03.91-.05,1.35-.05.33.12.69.22,1.1.28.44.06.89.12,1.33.18,0,0,0,0,0,0,0,0,0,0,0,0,5.75.75,11.41.94,17.21.28.74-.08,1.39-.29,1.95-.6,1.59-.45,3.04-1.17,4.47-1.91,1.58-.04,2.77-.68,3.55-1.64.38-.08.77-.19,1.16-.37.63-.25,1.26-.49,1.89-.74,1.85-.6,4-.95,5.68-.59,1.7.36,3.02,1.69,4.11,3.2,1.06,8.03-5.5,12.54-12.33,16.21Z"/>
  <path class="cls-16" d="M82.99,218.76c-1.55,1.55-3.09,3.11-4.64,4.66-.93.82-1.87,1.62-2.88,2.37-.91.67-1.52,1.49-1.87,2.34-.45.21-.88.5-1.28.88-1.46,1.39-2.83,2.84-4.14,4.35-2.62,1.34-6.49,4.02-9.3,3.8-3.17-.25-3.61-5.17-4.22-7.77-1.46-6.27-11.1-3.61-9.64,2.66,1.36,5.87,3.15,12.83,9.71,14.67,5.09,1.43,10-.57,14.62-2.82,1.5.34,3.07,0,4.21-1.43,1.03-1.3,2.1-2.53,3.21-3.73.5-.22.98-.54,1.42-.98,1.61-1.62,3.23-3.24,4.84-4.86,1.1-.74,2.16-1.54,3.2-2.4.83-.69,1.32-1.46,1.54-2.24.78-.78,1.55-1.58,2.29-2.42,4.24-4.78-2.49-11.68-7.07-7.07Z"/>
  <path class="cls-16" d="M82.52,239.6c-2.45-.16-4.79.16-7.21.32.26-.24.52-.5.8-.79,4.43-4.67-2.63-11.75-7.07-7.07l-1.52,1.37c-1.68,1.14-2.37,2.72-2.35,4.25-2.21-.61-4.72-1-6.65-1.98-1.23-.62-2.57-1.66-4.05-2.23-4.06-1.57-7.95,3.87-5.65,7.35,3.43,5.18,8.87,9.07,15.3,9.2,1.61.03,3.24-.21,4.7-.84,4.57.81,8.78.11,13.71.42,6.43.41,6.4-9.59,0-10Z"/>
  <path class="cls-16" d="M367.87,290.9c-.7-.9-1.63-1.64-2.79-2.09-.53-.57-1.15-1.06-1.89-1.42-1.19-1.63-3.11-2.76-5.75-2.76-2.38,0-4.17.91-5.37,2.28-.05.04-.1.09-.15.13-1.51.5-2.66,1.45-3.45,2.64-.4.24-.8.51-1.18.8-4.25,3.28-8.29,6.79-12.08,10.59-3.39,3.4-6.43,7.19-10.85,9.27-1.14.54-1.99,1.23-2.61,2.02-1.17-.06-2.36.15-3.53.71-.72.05-1.44.09-2.18.1-1.44.03-2.67.39-3.69.97-.69-.09-1.37-.18-2.01-.23-3.13-.26-6.21-.53-9.3-1.12-3.61-.68-6.87,1.13-8.48,3.8-1.61,1.75-1.97,3.75-1.5,5.6,0,.44.03.89.1,1.32.6,3.95,3.25,7.12,6.52,9.28.71.47,1.46.85,2.21,1.23-.43.4-.87.79-1.28,1.21-2.79,2.84-5.37,6.16-7.28,9.67-2.51,4.61-1.38,8.89.41,13.35-.03.13-.05.27-.07.4-.85.09-1.69.18-2.53.26-1.47-.05-2.94-.17-4.35-.21-1.45-.04-2.68.27-3.69.82-.78.03-1.55.06-2.33.08-3.15.06-6.32.54-9.49,1.06-.97.08-1.86.24-2.71.45-2.62.43-5.23.82-7.85.96-2.52.14-4.37,1.28-5.57,2.87-.48.08-.96.16-1.44.24-.39-.06-.79-.1-1.22-.1-3.59-.03-7.17-.07-10.76-.1.61-4.13-1.67-8.47-7.09-8.15-6.62.39-13.14.06-19.61-.72-.01-.04-.02-.08-.03-.13-.98-3.45-3.88-5.09-7.23-5.51-19.72-2.48-39.37-5.46-58.95-8.88-1.35-.24-2.58-.13-3.68.2-.72-.19-1.44-.38-2.15-.59-9.52-2.84-17.66-8.65-24.94-15.26-5.92-5.37-14.24.99-12.82,7.03-.8-.55-1.69-1.02-2.68-1.42-1.52-.6-3-.54-4.33-.05-1.43-2.6-3.21-4.82-6.45-5.57-.84-1.11-1.98-2.04-3.41-2.6-5.89-2.33-11.85-4.56-18.03-6-5.92-1.38-11.98-1.75-17.89-3.21-6-1.49-12.09-2.83-18.02-4.57-.36-.11-.72-.22-1.06-.35-.1-.05-.2-.1-.3-.15-1.36-.71-2.74-1.39-4.11-2.1-3.13-2.14-5.54-5.08-8.12-8.36-2.52-3.21-7.96-2.59-10.61,0-.26.26-.49.52-.7.79-.79.58-1.47,1.3-1.95,2.16-1.17,2.13-1.59,4.34-1.34,6.38-.59,1.02-.93,2.19-1.02,3.38-.3.17-.56.46-.7.89-1.35,4.09-1.82,8.44-1.38,12.73-.18.3-.25.68-.12,1.12,1.11,3.85,1.97,8.22,4.99,11.09.18.17.38.27.57.34.25.8.74,1.46,1.47,2.02.04.03.09.05.14.08.62,1.01,1.28,1.98,2.26,2.69,1.28,2.04,3.96,3.56,5.69,4.75,1.82,1.24,3.7,2.39,5.62,3.47,0,.04,0,.07.01.11.07.25.2.47.39.66l.3.23c.23.14.49.2.76.2h.07s.08,0,.11,0c.11.52.48.95,1.08,1.08.2.48.64.85,1.31.85.22,0,.41-.04.57-.11,0,0,0,0,0,0,.46.42.97.79,1.48,1.15,1.96,1.38,3.94,2.74,5.92,4.12.29.2.65.24.99.18.36.31.73.62,1.09.94,1.44,1.28,2.9,2.36,4.62,3.24,1.46.76,3.14,1.48,4.14,2.84.51.68,1.3.76,1.93.51.25.19.51.38.79.56,6.03,3.72,10.87,8.41,17.53,11.11,1.57.98,3.43,1.46,5.18,1.32,2.93.77,5.78,1.49,8.96,1.74,4.26.33,8.59.04,12.81.76,1.3.22,2.48.18,3.53-.05.13.05.26.09.41.15,1.61.6,3.15.51,4.51-.03,6.83.48,13.71.16,20.58.05.2,0,.38-.02.57-.04.6.14,1.25.22,1.96.2l2.71-.05c.78-.01,1.5-.12,2.16-.31,4.79.01,9.57.29,14.35.68,3.82.31,8.03.32,12.08.75,1.11.76,2.5,1.19,4.15,1.12.6-.03,1.18-.03,1.74-.02.38.11.77.2,1.14.32,1.24.42,2.41.47,3.48.25.26.06.52.1.79.18,1.08.28,2.08.34,3,.23,3.02.53,6.06.97,9.12,1.3.83.09,1.59.06,2.27-.09,1.03.18,2,.16,2.89,0,1.33.12,2.65.25,3.98.37.86.08,1.64.03,2.35-.13.31.02.63.04.95.03.67,0,1.38-.06,2.04-.13.21,0,.42.01.63.02.11.02.23.05.39.08,1.33.29,2.73.23,4.03-.12.31,0,.61.02.91.02.62,0,1.22-.09,1.8-.23,0,0,.01,0,.02,0,10.04-.36,20.01-1.33,29.95-2.76,2.78-.16,5.55-.29,8.33-.35,1.1-.02,2.09-.29,2.97-.72.43,0,.85.01,1.28.03,1.38.06,2.63-.32,3.69-.99,2.23-.29,4.44-.67,6.64-1.16.94-.21,1.73-.54,2.41-.95,2.23-.42,4.47-.78,6.7-1.26,1.46-.32,2.83-1.05,4.2-1.68,1.03.18,2.09.12,3.11-.28l2.72-1.07s.03-.01.05-.02c2.21-.32,4.42-.59,6.63-.7,2.7-.14,5.12.14,7.86-.31,1.04-.17,2.08-.31,3.13-.45,2.77.03,5.53-.12,8.22-.85.97.14,1.95.22,2.91.2.94-.02,1.89-.21,2.78-.56.94.03,1.83-.1,2.63-.38.89.05,1.78.1,2.68.17,1.78.14,3.23-.26,4.34-1.01.28-.02.56-.03.84-.06.56-.05,1.1-.23,1.62-.45,1.47-.09,2.7-.53,3.69-1.22l1.59-.4c1.69-.42,2.95-1.36,3.82-2.57.03-.01.06-.03.1-.04,1.17-.54,2.06-1.47,2.66-2.56,2.83-2.07,5.47-4.43,8.28-6.53.42-.31.81-.65,1.17-1.01,2.97-1.42,6.13-2.58,9.09-3.87.41-.18.77-.4,1.11-.65.83-.4,1.63-1.01,2.37-1.87,2.9-3.37,5.45-6.91,7.53-10.84.47-.9.75-1.78.87-2.64,1.42-3.03,2.67-6.14,3.7-9.33.16-.5.27-.99.32-1.46,1.13-2.75,2.26-5.5,3.39-8.24.27-.65.42-1.29.49-1.9,1.51-3.43,3.03-6.85,4.54-10.28.45-1.02.73-2.08.82-3.12,2.41-3.84,1.19-9.98-3.68-11.48ZM82.42,354.35c-.5,1.03-.76,2.17-.8,3.33-.05.38-.07.77-.07,1.15-.28.02-.55.03-.83.04-.68-.26-1.41-.44-2.2-.52-1.18-.12-2.25-.15-3.37-.1-.08-.02-.15-.05-.23-.07-.71-.17-1.38-.27-2.03-.32-.42-.17-.87-.31-1.36-.4-1.09-.21-2.16-.39-3.26-.39-5.11-.53-10.25-2.42-15.17-3.72-.68-.18-1.33-.26-1.95-.27-3.21-.89-6.43-1.78-9.55-2.95-1.55-.58-3.02-1.32-4.55-1.94-1.53-.62-3.24-.7-4.69-1.51-2.68-1.49-4.84-3.82-7.54-5.22-3.17-1.64-6.51-3.01-9.75-4.5-.31-.14-.61-.18-.88-.16-1.01-.63-2-1.27-2.99-1.93-.02-.01-.04-.02-.05-.03.09-.4.18-.79.27-1.17.6-2.8.6-5.74.79-8.59.02-.33-.08-.62-.25-.84.3-1.24.6-2.49.89-3.74.44-.2.7-.6.79-1.05.13-.06.27-.11.39-.18.42.88,1.01,1.67,1.76,2.31.94,1.45,2.41,2.56,4.41,2.94,1.17,1,2.73,1.63,4.71,1.63.05,0,.09,0,.14-.01.84.45,1.82.72,2.94.8,1.14.92,2.64,1.49,4.52,1.5,1.05.75,2.38,1.22,3.98,1.27.62.42,1.35.77,2.18,1.02l.75.22c.5.33,1.04.6,1.65.81,3.3,1.12,6.61,2.25,9.91,3.37.61.32,1.27.57,2.02.69.39.06.77.09,1.13.1.34.18.7.35,1.09.49,4.93,1.76,10.48,1.01,15.63,1.55,2.37.25,10.13.51,11.92,2.91-.2.66-.34,1.38-.36,2.16-.12,3.92-.19,7.65.04,11.31ZM123,350.93c-4.23-2.34-8.36-5-12.23-7.44-.4-.25-.79-.53-1.19-.79-.45-1.34-.94-2.63-1.53-3.83,7.21,6.21,15.03,11.54,23.95,15.08.22.09.44.16.66.25-3.22-1.09-6.44-2.18-9.66-3.27ZM145.13,357.72c-1.15-.18-2.32-.33-3.48-.48-1.47-.5-2.93-.99-4.4-1.49,2.67.8,5.39,1.45,8.13,2.01-.08-.01-.16-.03-.25-.04ZM166.6,362.72c-2.21-.71-4.39-1.4-6.52-1.94-2.19-.55-4.4-1.06-6.61-1.52,3.88.67,7.76,1.33,11.57,2.17.56.12,1.13.25,1.69.38-.06.3-.1.61-.13.92Z"/>
  <path class="cls-16" d="M382.23,106.9c-.19-.19-.41-.31-.66-.39-.27-.07-.53-.07-.8,0-.59.09-1.18.17-1.77.26-.27.04-.56.26-.75.49-.51-.18-1.06-.28-1.61-.27-7.92.23-15.82.66-23.72,1.28-.06,0-.11.02-.16.03-.95-.07-1.9-.14-2.85-.21-.98-.07-1.81.09-2.48.43-.78.04-1.57.08-2.35.12-.58.03-1.08.15-1.55.31-.62-.29-1.35-.47-2.18-.47-1.17,0-2.13.33-2.87.88-.12.01-.24.03-.36.04-.48-.15-1-.23-1.59-.23-.88,0-1.63.19-2.27.51-18.66,1.32-37.59,2.59-55.93,6.34-3.23.24-6.46.48-9.67.82-2.64.27-4.76,1.07-6.93,1.92-.22.01-.44.03-.67.07-7.45,1.23-14.74,3.01-21.92,5.35-.8.26-1.45.68-1.99,1.19-2.68.94-5.3,2-7.92,3.13-.78.34-1.36.78-1.78,1.29-.29-.03-.6.02-.91.17l-5.13,2.4c-.57.27-.78.88-.71,1.46-.1,0-.19,0-.29,0-.78.02-1.54.67-1.5,1.5.04.79.66,1.52,1.5,1.5,2.65-.07,4.75.22,7.29.92.67.19,1.34.11,1.84-.26.43.29.89.53,1.42.7.8.25,1.59.5,2.39.75.69.22,1.5.22,2.26.07.11.04.21.09.33.13,5.87,1.9,11.81,3.39,17.88,4.47.37.07.73.09,1.08.09.04,0,.09.02.13.03,5.41,1.05,13.09-.15,17.7,2.96.71.48,1.43.73,2.12.81.14.08.28.17.41.25,1.11.69,2.2.87,3.19.72.3.08.61.13.94.16,13.02,1.14,26.06,1.84,39.12,2.13.09.01.17.03.27.04.63.14,1.26.19,1.89.18.55.26,1.16.45,1.85.51,5.69.55,11.83.65,16.87,3.5.4.62.88,1.1,1.42,1.5,0,0,0,.01.01.02,1.87,3.21,5.53,2.89,7.68.97,2.28-.02,4.56-.47,6.94-.81,1.33-.19,2.27-.96,2.86-1.96.48-.26.95-.54,1.45-.9,2.37-1.71,4.52-3.94,6.66-6.01.87-.38,1.54-1.01,2-1.76,1.41-.24,2.73-1.01,3.49-2.22.41-.21.82-.41,1.21-.64,1.39-.82,2.68-1.82,3.92-2.84.14-.12.25-.27.37-.41,1.05-.38,1.82-1.1,2.33-1.98.06,0,.11.02.17.02,1.73,0,1.91-2.41.53-2.9-.01-.51-.08-1.01-.22-1.49,0,0,0-.02,0-.02.32-1.2.22-2.27-.17-3.17.05-2.53.28-5.07.44-7.6.19-3.09-.03-6.5.99-9.45.2-.59.26-1.19.2-1.77.36-1.05.69-2.12.95-3.2.13-.52,0-1.07-.39-1.46Z"/>
  <path class="cls-16" d="M685.35,207.73c-.73-1.5-1.74-2.97-2.68-4.54-.52-.86-1.19-1.46-1.92-1.85-.22-.54-.54-1.05-1-1.52-5.25-5.38-9.87-11.39-14.56-17.28-.66-.93-1.38-1.83-2.16-2.7-.36-.41-.75-.72-1.14-.97-.78-.98-1.61-1.93-2.5-2.84-.37-.42-.77-.82-1.22-1.2-.17-.14-.33-.26-.5-.38-5.53-5.78-12.06-10.48-18.8-14.8-2.56-1.64-5.6-4.3-8.8-4.55-5.11-3.3-10.82-5.2-16.85-5.73-.6-.15-1.2-.3-1.8-.44-.94-.21-1.83-.13-2.64.15-.33-.28-.7-.55-1.16-.77-5.15-2.5-9.94-5.38-15.77-5.55-1.06-.35-2.13-.68-3.21-.98-.48-.13-.94-.18-1.38-.18-2.99-1.17-6.51-2.33-9.38-1.56-2.73-.69-5.42-.79-8.24-.48-4.93-2.95-9.98-5.8-15.48-7.52-2.92-.91-5.9-1.27-8.89-1.56-2.71-1.3-5.36-1.85-8.41-2.16-2.82-.28-5.61-.97-8.39-1.62-.26-.07-.53-.12-.8-.18-1.68-.52-3.28-1.18-5.03-1.61-3.46-.84-7.01-1.47-10.51-2.16-7.32-1.44-14.72-2.23-22.18-2.35-.49,0-.93.04-1.35.14-.24-.31-.61-.52-1.13-.52-.21,0-.39.05-.55.11-.07,0-.14-.02-.22-.02-1.53,0-1.84,1.88-.95,2.66-.6,1.12-.77,2.47-.51,3.74.02.74-.09,1.41-.25,2.02-.12.1-.23.22-.31.36-.36.66-.64,1.35-.69,2.07,0,.02-.01.04-.02.07-.07.23-.18.46-.24.7-.02.05-.05.09-.07.14-.05.1-.35.51-.08.17-.26.32-.44.63-.44,1.06,0,.37.16.81.44,1.06.39.36,1.06.54,1.6.36.13.18.28.37.44.56,1.8,2.06,4.34,3.78,6.75,5.51.05.08.1.15.15.23.35.47,1.64,2.72,2.3,3.35-.08.63.19,1.31.81,1.58.96,2.25,3.44,3.15,5.65,2.82.12.1.23.2.37.29,6.53,4.29,10.66,11.27,15.76,17.07.7,1.09,1.41,2.16,2.14,3.22,1.09,1.58,3.27,2.97,5.31,2.39.38.12.79.2,1.23.23.12.04.22.1.34.14,5.87,1.7,11.58,3.45,16.89,6.48,1.54,1.88,3.22,3.66,4.92,5.42.13.48.34.97.66,1.47,2.28,3.56,5.22,6.56,7.37,10.22,1.19,2.03,2.34,4.03,3.61,5.97.15.37.35.75.63,1.12.07.1.14.2.22.29.07.71.28,1.39.65,2.02.03.06.06.11.09.17.09.13.19.26.28.39.06.68.28,1.4.7,2.12,1.58,2.7,2.51,5.49,3.02,8.57.03.17.07.33.12.49-1.01.55-1.88,1.48-2.43,2.83.04-.09.08-.18.12-.27-.41.49-.71,1.01-.91,1.53-2.37,2.14-4.73,4.29-7.14,6.39-2.72,2.37-6.03,3.78-8.87,5.91-1.22.09-2.17.59-2.85,1.32-.15-.05-.31-.08-.5-.08-1.64,0-1.88,2.17-.73,2.82-.08.6-.06,1.22.05,1.83-.05.33-.07.66-.03,1.02.17,1.62.33,3.24.63,4.84.28,1.48,1.41,3.67,1.07,5.11-.13.78-.1,1.5.05,2.16.06,1.76.38,3.51,1.16,4.96-.17,1.74-.08,3.76.36,5.61-1.13,3.56-.26,8.06.52,11.87-.37,2.14-.08,3.85.49,5.52-.71.88-1.05,2.02-1.08,3.16-.26.6-.4,1.26-.43,1.92-.11.55-.13,1.12-.07,1.68-.08.14-.17.26-.24.41-.87,1.8-1.55,3.56-1.88,5.53-.08.46-.1.96-.07,1.47-.87.99-1.11,2.39-.9,3.73-.27.25-.47.6-.51,1.06-.32,3.45-.65,6.89-.97,10.34-.08.81.74,1.5,1.5,1.5s1.31-.56,1.46-1.27c.53,0,1.1-.24,1.33-.72,1.03-2.15,2.89-3.65,4.8-5.18.35-.28.47-.81.41-1.26.85-.19,1.64-.61,2.24-1.3,2.12-2.48,5.52-3.74,8.19-5.55.5-.34.91-.69,1.26-1.07.12,0,.23,0,.36-.03,1.23-.23,2.4-.63,3.55-1.13.42-.18.66-.68.72-1.1.06-.45-.06-.94-.41-1.26-.51-.47-1.07-.9-1.67-1.26.06-.38.04-.75-.16-1.09-.18-.31-.54-.61-.9-.69-.07-.02-.14-.02-.21-.03-.24-1.14-.59-2.3-.93-3.45-.14-.48-.36-.91-.62-1.3.14-.42.23-.86.24-1.34.23-8.08.91-17.13,3.88-24.71.15-.39.25-.76.3-1.12.48-.95.87-1.93,1.23-2.99.15-.44.24-.86.27-1.26,2.25-4.72,4.86-9.35,6.42-14.24.32-.5.62-1.01.91-1.53.01-.02.02-.04.03-.06,1.98-2.91,3.96-5.82,5.93-8.74.3-.44.5-.87.64-1.29.65-.57,1.12-1.3,1.38-2.12,1.01-.67,1.67-1.69,1.95-2.84.21-.21.42-.41.63-.62,1.18-1.21,2.31-2.36,3.46-3.46,1.6-.23,2.73-1.12,3.37-2.3,1.09-.22,1.95-.77,2.56-1.51,1.59,0,2.78-.61,3.59-1.53,1.38,0,2.46-.47,3.24-1.19.29.05.59.07.92.07,1.57,0,2.76-.6,3.56-1.5.47-.05.94-.11,1.4-.18,3.86-.59,7.6-1.9,11.47-.7.6.19,1.2.41,1.8.67.64.78,1.56,1.36,2.74,1.56,2.07,1.43,4.12,2.88,6.16,4.36.42.67,1.01,1.23,1.77,1.6l1.32,1.92c.36.52.76.95,1.18,1.29.15.79.48,1.54.97,2.17.31.69.76,1.31,1.37,1.78,1.71,3.45,3.12,7.05,3.86,10.34,0,.03.02.06.03.09-.15.78-.08,1.55.16,2.28-.04.12-.06.25-.05.38.06.95.08,1.9.05,2.85-.01.38.18.8.44,1.06s.69.46,1.06.44c.51-.02.92-.28,1.19-.65.31.13.68.17.99.08.24-.07.5-.22.69-.42,1.3.17,2.69-.22,3.9-1.46,1.05-1.08,2.22-1.45,3.19-2.13,3.94-1.69,7.35-4.39,11.63-5.12.76-.13,1.38-.43,1.89-.83,1.56.33,2.88-.07,3.86-.88.78-.19,1.56-.41,2.31-.71,1.21-.48,2.23-1.02,3.22-1.87.41-.35.76-.72,1.12-1.13.32-.37.51-.53.58-.59.95-.37,1.78-.95,2.37-1.73.5-.12,1.03-.33,1.58-.64,2.85-1.6,4.16-4.74,5.38-7.6,1.84-1.96,1.79-5.48-.17-7.34Z"/>
  <path class="cls-16" d="M85.11,208.69c-.68-.16-1.36-.29-2.05-.4.05-.22.07-.44.03-.66.82-.3,1.64-.61,2.45-.95,1.21-.49,1.63-2.58,0-2.89-1.82-.34-4.04-.53-5.25,1.19-.13.19-.24.38-.33.57-5,1.7-10.1,3.14-14.81,5.6-2.96,1.54-5.76,3.38-8.53,5.22-1.36.91-2.72,1.82-4.09,2.7-.75.48-1.5.96-2.27,1.42-.67.4-1.44,1-2.24,1.09-.89.09-1.37.76-1.43,1.44-2.34,1.13-6.43,3.82-4.14,6.52.91,1.08,2.28.23,2.47-.87.41.58,1.13.88,1.87.37,1.31-.91,2.63-1.82,3.94-2.72.07,1.05.28,2.08.64,3.11.59,1.65,2.76,1.28,2.95-.4.16-1.45.52-2.86,1.04-4.21,6.77-9.12,17.11-16.09,28.94-13.23,1.88.45,2.68-2.44.8-2.89Z"/>
  <path class="cls-11" d="M275.57,245.85c-1.93,0-1.93,3,0,3s1.93-3,0-3Z"/>
  <path class="cls-16" d="M371.09,292.45c-1.98,0-3.19,1.19-3.65,2.64-2.52,2.03-1.72,7.2,2.42,7.2,1.98,0,3.19-1.19,3.65-2.64,2.52-2.03,1.72-7.2-2.42-7.2Z"/>
  <path class="cls-16" d="M520.04,316.48c-.09-.32-.23-.65-.43-.96-.87-1.4-1.69-2.82-2.48-4.26-.07-.27-.16-.55-.28-.82-.55-1.25-1.12-2.3-1.89-3.44-.1-.15-.21-.26-.32-.39-1.82-3.55-3.31-7.27-5.65-10.55-.15-.21-.31-.38-.47-.55-.37-.79-.73-1.59-1.07-2.4-.03-.07-.06-.13-.09-.19-.29-1.07-.99-1.99-2.09-2.46-.03-.12-.08-.23-.14-.35-.42-.8-.84-1.6-1.26-2.4-.17-.32-.55-.59-.9-.69-.36-.1-.84-.05-1.16.15-.32.21-.6.51-.69.9-.09.4-.04.79.15,1.16.06.11.11.21.17.32-.17.17-.3.38-.35.62-.01.06,0,.12,0,.18-.02.06-.05.11-.06.17-.05.2-.06.41-.04.62-1.21.74-1.92,2.06-1.37,3.77-.11.4-.19.81-.19,1.23-.03.03-.05.06-.08.1-.33-1.97-.47-4.07-.68-6.33-.07-.73-.29-1.35-.61-1.87-.12-.77-.24-1.53-.36-2.3-.16-1.01-.58-1.72-1.15-2.19-.41-1.12-.87-2.23-1.4-3.35-.16-.35-.36-.63-.56-.88,0-.14-.02-.28-.04-.43-.15-1.03-.43-1.67-1.02-2.52-.13-.19-.28-.36-.42-.51-.1-.23-.18-.47-.27-.72-.42-2.45-.81-4.91-1.16-7.38-.04-.25-.11-.49-.2-.72-.12-3.38.14-6.85.48-9.88.48-.78.59-1.77.37-2.73,0-.12-.02-.23-.04-.35.05-1.52-.71-2.52-1.81-3.01-.55-.33-1.21-.54-2.01-.54s-1.47.21-2.02.54c-11.63,1.95-22.64,7.73-33.41,12.35-.25.07-.51.15-.77.27-3.21,1.48-5.8,3.7-7.87,6.56-2.26,3.13-4.43,5.62-7.4,8.09-.66-.85-1.51-1.35-2.4-1.53-6.76-5.95-16.55-8.87-24.92-11.34-.08-.02-.16-.03-.24-.05-.32-.15-.63-.29-.95-.45-.65-.33-1.29-.46-1.89-.46-1.12-.81-2.62-1.14-4.2-.46-1.75.76-3.51,1.53-5.1,2.57-1.5.99-2.53,2.41-3.91,3.45-.91.68-2.25,1.03-3.25,1.75-.78.57-1.46,1.22-2.07,1.92-.99.15-1.74.63-2.27,1.28-.02,0-.04-.02-.06-.03-.36-.1-.84-.05-1.16.15-.14.09-.26.2-.37.32-.1-.01-.19-.03-.28-.04-.2,0-.42.02-.61.09-.37.12-.7.35-.9.69-.19.32-.27.8-.15,1.16.12.36.34.71.69.9.19.1.41.17.63.2.04.05.09.09.13.14.19.23.38.39.63.57.21.16.47.28.73.32.08.01.15.02.22.03.44.96,1.24,1.74,2.43,2.03,0,0,.01,0,.02.01.38.27.76.5,1.15.71-.06.99.2,1.99.77,2.78-.23.44-.36.95-.47,1.41-.18.73-.28,1.47-.35,2.22-.03.36.19.81.44,1.06s.69.46,1.06.44c.39-.02.79-.14,1.06-.44.28-.31.4-.65.44-1.06,0-.08.02-.15.02-.23.12-.03.24-.08.34-.15.34-.25.68-.52.99-.82.31-.3.57-.64.83-.98.04-.05.07-.12.09-.19,1.01-.36,1.71-1.1,2.1-1.99.52-.35.92-.82,1.19-1.36,4.57-1.13,9.15-4.03,12.56-6.33,0,0,0,0,.01,0,.64.17,1.37.17,2.19-.11,2.33-.8,5.09.1,7.13,1.28.98.57,1.94.66,2.8.45,2.86,1.35,5.52,2.99,7.74,5.04.08.53.3,1.07.7,1.62,1,1.4,2.07,2.69,3.23,3.88.1.28.24.55.42.83,1.96,3.04,3.91,6.08,5.87,9.13.03.83.29,1.64.76,2.31.07.29.13.59.2.88.11.51.31.93.53,1.29-.33.94-.31,2.02.26,3.14.04.08.07.16.11.24-.04.19-.08.38-.1.6-.18,2.62-.31,5.23,0,7.84.31,2.67,1.42,5.23,1.4,7.92,0,.38.07.74.18,1.09-.93,1.24-.95,2.95-.31,4.31-.34.62-.48,1.36-.34,2.2-.45.65-.72,1.44-.73,2.34-.48.58-.76,1.31-.87,2.07-.35.05-.68.2-.95.45-.31.29-.5.69-.56,1.11-.34.57-.62,1.19-.78,1.84-.08.33-.04.69.09,1-.28.17-.57.34-.84.53-.33.23-.58.5-.69.9-.1.36-.05.84.15,1.16.41.63,1.37,1.02,2.05.54.69-.49,1.42-.89,2.19-1.23.7-.28,1.42-.5,2.17-.66.3-.06.54-.23.72-.45.28.06.57.09.88.09.75,0,1.38-.18,1.91-.48.69-.14,1.24-.44,1.69-.85.53,0,1.06-.01,1.57-.09,5.31-.82,10.59-2.45,15.81-3.7.72-.17,1.28-.49,1.72-.89,1.29-.24,2.58-.5,3.86-.77.04,0,.07-.03.11-.03.38.03.77.03,1.19-.05,3.07-.58,6.14-1.21,9.18-1.93,1.65-.39,3.63-.64,5.29-1.31.29.06.6.1.93.1,1.06,0,1.89-.35,2.51-.89.53-.05,1.06-.1,1.58-.15.63-.06,1.2-.28,1.7-.6.26.05.53.08.83.08,1.42,0,2.44-.62,3.08-1.51,2.49-.54,4.96-1.2,7.42-1.99.68-.22,1.22-.58,1.65-1.01,1.29-.32,2.58-.61,3.87-.89.9-.19,1.57-.6,2.04-1.13,1.18-.06,2.4-.3,3.66-.75,1.04-.38,1.91-1.12,2.44-2.03,1.58-.14,1.71-2.4.38-2.89Z"/>
  <path class="cls-12" d="M344.05,158.9c-.23-.05-.45-.12-.67-.21-.21-.1-.42-.21-.62-.34-.1-.07-.27-.08-.39-.05-.11.03-.23.11-.29.22-.36-1.05-1.08-1.98-2.15-2.59-7.17-4.1-14.85-3.14-22.68-4.52-.56-.1-1.08-.1-1.57-.06-2.77-.53-5.55-.79-8.42-.75-.46,0-.88.08-1.28.18-7.39-.92-14.79-1.65-22.26-1.6-.24,0-.46.04-.69.06-2.82-.51-5.63-1.01-8.45-1.52-.29-.05-.58-.07-.87-.08-.36-.16-.74-.28-1.12-.35-.78-.97-1.96-1.64-3.55-1.68-.75-.57-1.73-.93-2.94-.93-.71,0-1.34.13-1.89.35-.19-.02-.37-.04-.57-.04-.59,0-1.13.09-1.61.24-12.49-1.58-24.74-4.44-36.71-8.43-1.17-.39-2.28-.27-3.24.16-.52-.21-1.04-.42-1.57-.63-2.06-.83-3.84-.03-4.96,1.41-.97.13-1.94.57-2.82,1.38-10.73,9.93-21.72,19.58-32.99,28.89-9.86,8.14-20.6,13.72-32.22,18.71-.5-.16-1.05-.25-1.66-.25-1.85,0-3.17.83-3.95,2.01-.56.11-1.11.22-1.69.3-.68.1-1.24.3-1.71.57-.17,0-.33.03-.49.04-.06,0-.11,0-.17,0-1.42,0-2.51.49-3.31,1.25-.02-.02-.04-.05-.07-.07-.21-.17-.5-.21-.71,0-.07.07-.12.18-.13.3-.18-.15-.4-.26-.67-.26-.56,0-.95.37-1.27.77-.63.02-1.27.04-1.9.07-.58.02-.66.8-.13.98.64.22,1.21.59,1.68,1.07.15.15.39.18.58.08.14.51.34,1,.62,1.46.09.16.24.22.39.23.03.08.05.16.08.23.04.09.1.14.17.18.26,1.12.84,2.14,1.78,2.83.39.88,1.04,1.63,1.97,2.08.16.08.31.16.47.24.14.18.3.36.48.52,1.01.9,2.07,1.59,3.3,2.05.8,1.02,2.05,1.72,3.75,1.72.51,0,.98-.07,1.41-.19.77.63,1.79,1.02,3.06,1.02.07,0,.13-.01.2-.02.5.48,1.14.84,1.89,1.05.43.63,1.01,1.16,1.75,1.52.56.67,1.33,1.19,2.3,1.44.49.87,1.24,1.58,2.26,1.98.76,1.16,2.03,1.99,3.82,2.03.7.54,1.6.87,2.69.92.76.59,1.75.96,2.99.96.18,0,.36-.01.53-.03.72.47,1.61.76,2.7.76.34,0,.65-.04.96-.09.73.51,1.66.82,2.79.82.07,0,.14-.01.21-.02.68.61,1.58,1.01,2.69,1.12.69.59,1.59.96,2.69,1.05.67.66,1.58,1.1,2.71,1.23.75.9,1.87,1.52,3.36,1.6.78.86,1.92,1.43,3.42,1.46.73.51,1.65.83,2.77.84.62.4,1.38.65,2.27.71.76.59,1.76.96,2.99.96.37,0,.72-.04,1.05-.1.64.32,1.4.52,2.28.52.07,0,.13,0,.19-.01.74.52,1.68.84,2.83.84.34,0,.65-.04.94-.09.34.1.71.16,1.11.18.52.26,1.11.44,1.79.5.71.47,1.59.75,2.65.76.48.27.97.57,1.45.93,1.3.98,2.6,1.16,3.72.81.88.58,1.76,1.16,2.64,1.74,1.44.95,2.86,1.02,4.05.55,5.17,1.93,10.47,3.34,16.13,3.54,4.12,2.24,8.56,3.95,13.1,5.22,5.25,1.47,13.57,4.2,19.78,2.99-.04.23.09.5.34.6.82.33,1.72.41,2.59.39.42,0,.85-.04,1.27-.08.17-.01.33-.03.49-.05.01.08.02.17.03.25.03.21.25.34.46.36.08.09.2.15.35.15.19,0,.32-.09.39-.21.36-.23.27-.92-.26-.92-.01,0-.02,0-.03,0,.53-.44.68-1.22.83-1.87.21-.9.34-1.83.37-2.75,0-.18-.09-.3-.21-.38.41-.74.76-1.57,1.02-2.52.22-.82.2-1.67,0-2.48.35-.87.52-1.71.52-2.51.69-3.28,1.59-6.46,2.74-9.63.46-.44.9-.95,1.32-1.58,2.51-3.69,3.83-7.86,6.98-11.13.48-.49.81-1.02,1.05-1.55.03-.05.08-.1.11-.15.98-.28,1.76-.82,2.31-1.54.42-.18.83-.37,1.25-.54.46-.18.87-.41,1.24-.67,1.14-.15,2.04-.63,2.7-1.31.68-.25,1.35-.59,2.02-1.02.75-.48,1.29-1.09,1.66-1.75.87-.3,1.56-.83,2.07-1.5,2.89-1.74,5.7-3.6,8.42-5.64.43-.32.79-.69,1.08-1.07,1.98-.53,3.55-1.97,4.99-3.51.52-.41,1-.85,1.43-1.36.3-.35.55-.72.77-1.1.44-.52.87-1.05,1.29-1.58.05-.07.47-.66.85-1.18.07-.06.14-.11.21-.17,2.42-.22,4.46-1.93,4.77-4.36.76-.52,1.49-1.06,2.05-1.73,1.39-1.66,2.16-4.81,4.08-5.83,1.73-.92,2.46-2.36,2.49-3.83,1.35-1.87,2.59-3.78,3.8-5.07.92-.98,1.39-2.23,1.41-3.48,0,0,0,0,0,0,.11.06.26.1.39.05l.72-.3c.1-.04.19-.09.26-.18,0,0,0-.02.01-.02,0,0,.01,0,.02,0,0,0,.01,0,.02,0,0,0,0,0,0,0,.04,0,.09.02.13.02.25.01.46-.2.49-.43.03-.23-.11-.5-.36-.55Z"/>
  <path class="cls-12" d="M565.06,213.77c-.33-1.03-.87-1.81-1.54-2.38-.05-.74-.24-1.48-.6-2.17-.35-.64-.71-1.27-1.07-1.91-.1-.41-.24-.83-.46-1.25-3.14-6.17-6.25-12.83-10.84-18.08-.11-.12-.21-.22-.32-.33-.34-1.01-.97-1.91-1.91-2.5-.09-.22-.2-.43-.32-.64-.41-1.37-1.35-2.55-2.83-3.08-.37-.55-.85-1.04-1.46-1.39-.55-1.56-1.84-2.83-3.84-3.06-.11-.08-.24-.14-.36-.21-.79-.84-1.92-1.4-3.4-1.42-.11-.14-.24-.25-.41-.34-1.93-1.01-3.98-1.87-6.12-2.31-1.1-.23-2.37-.52-3.43-.04-.49-.3-.95-.66-1.37-1.09-.31-.31-.65-.44-.99-.45-.18-.08-.39-.13-.63-.13-1.86,0-1.93,2.77-.2,2.98.22.2.45.4.68.58-.03.19-.02.4.04.59.17.63.7,1,1.3,1.07.09.14.24.34.35.5.23.34.46.68.68,1.03.48.76.92,1.53,1.32,2.33.48.94,1.09,1.47,2.04,1.91.79.36,1.6.66,2.44.88.26.49.59.95,1.01,1.32.36.81.92,1.52,1.7,2.02.22,1.01.71,1.95,1.48,2.65.09.5.26,1.02.54,1.54,2.52,4.72,3.16,10.04,4.66,15.11-.01.03-.03.06-.04.1-.64,1.56-.43,2.89.24,3.89-1.88,5.27,0,14.82.49,18.31.03.21.09.42.15.61-.2.26-.34.58-.31.9.06.71.2,1.39.42,2.06-1.09.68-.84,2.78.78,2.78.69,0,1.13-.38,1.32-.87.09,0,.19,0,.28,0,.44,0,.89,0,1.33-.01.37,0,.81-.16,1.06-.44.11-.12.21-.26.28-.41.06-.05.14-.07.2-.13.24-.24.41-.61.43-.96.05-.01.11-.02.16-.03.01,0,.03,0,.05,0,0,0,.01,0,.02,0,.28-.08.54-.18.78-.3.63-.29,1.14-.68,1.54-1.15.43-.25.85-.58,1.24-1.01l.07-.07c.83-.26,1.49-.73,2-1.31.94-.33,1.65-.94,2.16-1.68.14-.07.28-.13.41-.22.79-.54,1.36-1.09,1.84-1.74.78-.35,1.4-.89,1.85-1.54.16-.17.32-.34.46-.53.5-.49.97-1,1.41-1.57.05-.07.18-.21.32-.38,2.26-.75,3.61-3.86,2.91-6.01Z"/>
  <path class="cls-12" d="M436.54,274.48c-1.66-2.82-3.33-5.65-4.43-8.75-.98-2.79-1.71-5.67-3.24-8.22-.35-.59-1.04-.85-1.69-.69-4,.96-8,1.92-12,2.88-.47.11-.77.43-.93.82-1.51.49-3.03.97-4.54,1.46-.08.02-.14.06-.21.09-.59.08-.96.47-1.12.94-.05,0-.09,0-.14,0-.04,0-.09,0-.13-.01-.02,0-.05,0-.06,0-.1-.01-.19-.03-.29-.05-.19-.03-.38-.08-.57-.12-.25-.06-.55.08-.62.35-.06.26.08.55.35.62.47.12.95.19,1.43.23.16.57.61,1.04,1.38,1.04.26,0,.48-.06.68-.15.03,0,.07-.01.1-.02l.13-.04c.17.2.4.35.69.43.63.18,1.26.35,1.9.53.1.46.43.86,1.03,1,5.03,1.19,10.18,2.44,14.4,5.58.29.21.65.25,1,.18.89.78,1.78,1.55,2.68,2.33.37.32.79.42,1.18.37.14.25.29.49.43.74.98,1.66,3.57.15,2.59-1.51Z"/>
  <path class="cls-12" d="M407.46,288.32c6.07-2.04,3.46-11.71-2.66-9.64-13.55,4.57-19.72,20.6-23.98,34.55-2.62,3.47-3.97,7.49-2.91,12.47.74,3.48,4.45,4.29,7.1,2.96.24,1.31.58,2.61,1.02,3.88.82,2.34,3.26,3.93,5.58,3.67.34.88.75,1.73,1.26,2.53,1.69,2.63,5.55,3.44,7.85,1.01,5.04-5.31,6.38-12.42,6.69-19.52.2-4.57.31-11.18-3.11-14.72.4-1.11.82-2.21,1.27-3.31,1.84-4.49-3.2-7.06-6.83-5.54,2.19-3.71,4.98-7.08,8.72-8.33Z"/>
  <path class="cls-4" d="M420.67,313.69c-1.71-3.22-3.18-6.51-4.4-9.95-.9-2.55-3.42-4.24-6.15-3.49-2.47.68-4.4,3.59-3.49,6.15,1.5,4.24,3.29,8.37,5.4,12.34,3.03,5.68,11.66.64,8.63-5.05Z"/>
  <g>
    <polygon class="cls-12" points="355.35 343.51 355.36 343.52 355.36 343.51 355.35 343.51"/>
    <path class="cls-12" d="M441.46,309.08c.04-.72-.05-1.35-.23-1.9.09-1.5-.09-2.92-.3-4.42-.09-.64-.36-1.21-.74-1.7-.04-.26-.09-.52-.14-.78-.14-.75-.53-1.4-1.03-1.95-.06-.15-.1-.3-.17-.45-.25-.54-.51-1.08-.76-1.61-.21-.44-.51-.8-.85-1.12l-.08-.13c-.18-.3-.38-.57-.58-.82-.21-.54-.43-1.07-.69-1.67-.35-.81-.84-1.4-1.43-1.8-.35-.64-.77-1.13-1.25-1.49-.32-.59-.65-1.18-1-1.75-.24-.39-.53-.74-.86-1.04-.84-2.31-2.41-3.83-4.41-5.2-3.65-2.49-8.7-4.28-13.3-4.34-.56-.09-1.15-.1-1.78,0-1.21.2-2.41.39-3.62.59-4.41.72-4.44,5.6-1.93,8.16-3.34,1.55-6.43,4.21-8.62,7.37-.14.21-.26.42-.36.64-.78-2.53-4.06-4.19-6.81-3.25-.15-.15-.3-.29-.45-.44-.21-.2-.65-.2-.79.1-.16.38-.24.77-.26,1.16-.38.31-.74.68-1.06,1.13-.09.13-1.24,2.31-1.16,2.23-.45.44-1.58.53-2.16.87-.84.49-1.61,1.07-2.39,1.63-.52-.1-1.06-.13-1.6-.08-.7-.26-1.42-.35-2.12-.31-.05-.04-.1-.08-.16-.11-.22-.1-.43-.09-.66-.05-.06-.08-.12-.17-.22-.22-.07-.04-.14-.05-.21-.06,0-.18-.09-.37-.24-.45-.21-.11-.42-.06-.61.08-.2.15-.34.39-.38.63,0,.04,0,.08,0,.12,0,.01-.02.03-.03.04-.02.03-.04.06-.06.08,0,0-.06.07-.06.07-.17.2-.21.51,0,.71.01.01.03.02.04.03-.56.39-1.06.88-1.45,1.52-.47.77-.89,1.58-1.28,2.4,0,.01-.02.02-.03.03-1.36,1.76-1.79,3.9-2.59,5.92-.05.07-.11.13-.16.2-2.7,4.04-4.44,9.02-6.28,13.51-1.98,4.84-2.48,10.17-4.94,14.81-.4.75-.59,1.5-.62,2.2-.24.43-.41.88-.52,1.33-.01.01-.03.03-.04.04-.9.91-1.58,1.88-2.15,2.93-.05.08-.1.17-.14.26-.13.25-.26.5-.38.77.02,0,.04.02.06.03-.01.04-.03.07-.04.11,0-.04-.02-.09-.02-.13-.18.38-.35.77-.51,1.18-.08.2-.13.41-.17.62-.41.44-.74,1-.98,1.6-.06.03-.11.08-.15.14-.08.11-.17.21-.26.31-.1-.02-.22-.02-.34.04-.35.18-.57.48-.7.84-.03.09-.03.19,0,.28-.06.06-.11.12-.17.18-.25.25-.52.49-.79.72-.27.23-.7.45-.76.83-.07.42.26.62.56.83.31.21.63.4.96.56.68.33,1.39.58,2.13.74.22.05.39-.05.5-.19.03.03.05.06.09.09,2.65,2.13,5.38,3.76,8.52,4.94.34.34.73.67,1.21.95,6.09,3.57,12.22,6.96,18.99,9.09,1.25.39,2.35.3,3.26-.1.28.12.56.23.84.34,1.05.41,1.99.45,2.81.23.77.89,1.9,1.49,3.4,1.54.8.89,1.98,1.49,3.54,1.49.66,0,1.25-.11,1.77-.3.73.49,1.65.79,2.76.79s1.96-.28,2.67-.74c.25.03.5.05.77.05,1.82,0,3.13-.8,3.92-1.95.68-.23,1.27-.58,1.73-1.04.6-.35,1.09-.82,1.45-1.37,1.22-.22,2.17-.82,2.8-1.66,1.66-.07,2.88-.82,3.63-1.88,1.53-.32,2.59-1.28,3.17-2.49,1.46-.34,2.47-1.27,3.04-2.43.37-.28.71-.6,1.01-.94.97-.5,1.87-1.1,2.81-1.82.64-.49,1.08-1.43,1.3-2.33.06-.05.11-.1.17-.15.71-.58,1.19-1.67,1.38-2.66.49-.53.99-1.04,1.53-1.55.96-.9,1.43-1.91,1.53-2.91.13-.15.26-.3.39-.47.55-.52.97-1.2,1.2-2.03.08-.22.14-.44.18-.65,1-1.51,1.95-3.06,2.81-4.66,1.15-2.13,2.53-4.58,2.4-6.98.24-.51.41-1.08.45-1.74.4-.71.62-1.6.57-2.69-.27-5.7-1.69-11.38-1.34-17.07ZM403.88,320.99c.92,1.9,1.43,3.79,1.93,5.65-3.92,2.84-6,7.98-7.66,12.92-.63-.73-1.25-1.46-1.9-2.17-1.2-1.31-4.11-3.57-5.17-5.72-.19-.99-.39-1.97-.58-2.96-.71-3.71-4.35-4.31-7-2.88-1.04-1.19-2.4-1.99-4.1-2.15.39-1.86.82-3.97,1.05-6.11,3.4-.62,6.11-5.19,2.99-8.56-.2-.22-.4-.43-.6-.65.31-.24.66-.47,1.07-.68,1.72-.88,3.31-1.75,4.85-2.91.23-.18.47-.36.7-.54.01.02.11,0,.31-.09.85-.39,1.59-.65,2.34-1.2,1.9-1.4,3.14-3.61,4.48-5.53.2-.29.36-.57.49-.86.55,2.18,2.58,4.04,4.92,3.99-2.86.06-.27,3.05.49,4.87.72,1.73,1.44,3.45,2.17,5.18.47,1.13.95,2.27,1.42,3.4-2.12,1.36-3.48,4.33-2.2,6.98Z"/>
  </g>
  <path class="cls-12" d="M640.28,241.19c.1-1.28-.21-2.3-.76-3.06.13-1.69.03-3.3-.51-5.01-.02-.53-.05-1.06-.14-1.59-.34-1.93-1.11-3.75-2.04-5.47-1.97-3.66-4.34-7.3-7.02-10.47-.69-.82-1.47-1.3-2.26-1.52-3.73-4.79-10.21-7.83-16.15-6.3-3.81.98-7.43,2.22-10.98,3.66-.16-.01-.31-.02-.47-.02-1.31,0-2.35.42-3.13,1.08-1.21.25-2.12.9-2.73,1.75-.99.47-1.97.95-2.96,1.45-.98.49-1.64,1.16-2.04,1.9-.46.36-.88.8-1.25,1.3-.03.04-.05.07-.08.1-1.67.43-2.95,1.81-3.67,3.54-.74,1.76-2.38,3.4-3.35,5.06-.78.4-1.48,1.07-2,2.1-.74,1.48-1.48,2.95-2.22,4.43-.05.08-.11.15-.16.24-4.02,6.51-8.64,14.49-10.3,22-.05.25-.09.49-.11.72-.72.59-1.26,1.49-1.43,2.77-.23,1.72-1,3.21-1.36,4.89-.43,1.98-.33,4.09-.53,6.09-.34,3.39-.77,6.53-.55,9.79-.47.95-.58,2.12-.12,3.47,1.42,4.17,3.98,7.31,7.75,9.6,3.54,2.14,7.62,3.15,11.14,5.35,1.65,1.03,3.26.96,4.55.27.58.26,1.25.42,2.01.44.7.41,1.53.64,2.51.58,5.43-.33,10.86.73,16.25-.27,3.54-.66,5.97-2.24,8.36-4.22.76-.2,1.49-.61,2.13-1.27.36-.38.68-.75.99-1.13,1.14-.52,2.08-1.43,2.55-2.62.42-.35.8-.8,1.13-1.35,1.23-2.07,2.46-4.14,3.69-6.21.89-.58,1.62-1.42,1.97-2.57.76-2.49,2.41-4.66,3.28-7.15.59-.58,1.04-1.4,1.23-2.48.06-.31.12-.61.19-.92.11-.17.23-.33.33-.52.76-1.5,1.38-3,1.87-4.56.34-.44.61-.94.77-1.5.74-2.61,2.23-4.89,2.99-7.49.3-1.01.47-2.04.64-3.07.62-.77,1.05-1.8,1.12-3.12.05-.9.12-1.8.21-2.7.43-.71.67-1.61.62-2.68-.12-1.1-.1-2.21.05-3.3Z"/>
  <path class="cls-12" d="M188.31,277.21c-.34-1.55-1.42-2.91-3.43-3.43-3.93-1.02-6.68.23-10.13,2.06-3.99,2.12-8.3,3.44-12.79,3.93,0,0,0,0,0,0-.44.06-.88.11-1.33.18-.41.06-.77.17-1.1.32-2.74.1-5.7-.27-8.18-.33-1.1-.36-2.23-.64-3.4-.8-.27-.04-.54-.05-.8-.05-.11-.05-.23-.1-.34-.14-.7-.42-1.55-.67-2.57-.67-2.93,0-4.52,2.07-4.79,4.32-.12.27-.19.47-.2.57-.53.83-.77,1.82-.75,2.83-.01,0-.02-.01-.03-.02-.25,2.94-.48,6.39,1.79,8.68,2.36,2.38,5.76,2.04,8.85,1.76,5.32.8,10.04-.6,15.34-.99.44-.03.85-.12,1.24-.25.48.01.99-.05,1.52-.19,4.45-1.2,9.47-2.01,13.48-4.4,3.8-2.27,6.27-5.77,7.73-9.88.48-1.35.37-2.52-.1-3.47Z"/>
  <path class="cls-12" d="M83.52,212.96c.08-.74-.31-1.54-1.19-1.67-.21-.12-.46-.2-.76-.2-.26,0-.49.06-.68.16-1.07-.61-2.39-.88-3.76-.64-5.25.91-12.17,3.81-15.78,7.84-2.27,2.53-4.23,4.64-5.25,7.19-1.44,1.63-1.63,4.25-.58,6.14.02.16.04.31.07.48.38,2.09,1.7,3.19,3.24,3.51,1.36.48,2.92.36,4.34-.29,5.03-2.28,8.68-6.05,12.28-10.1.06-.07.11-.14.17-.21.85-.92,2.68-1.47,3.66-2.39,1.46-1.37,2.52-3.08,3.48-4.83.66-1.2.8-2.39.56-3.46.31-.43.37-1.04.18-1.54Z"/>
  <path class="cls-14" d="M467.61,175.68c-3.64-5.18-10.07-2.29-12.28,2.44-.08.17-.14.36-.22.53-.6-.03-1.21.05-1.81.21-2.66-1.42-6.26-.88-6.89,2.89-.31,1.87-1.25,5.3-1.85,8.93-2.86-2.2-8.23-.94-8.25,3.78-.01,3.68-1.17,9.51,1.25,12.6,2.26,2.88,6.33,2.66,8.92.39.98-.86,1.9-1.87,2.77-2.97,1.47,1.85,3.69,2.62,6,2.36,1.3,2.22,3.87,3.11,6.69,1.83,5.16-2.36,6.07-9.89,6.78-14.82.73-5.1,2.07-13.62-1.12-18.15Z"/>
  <path class="cls-15" d="M458.8,197.96c1.61-5.22,2.86-11.15,1.12-15.71-1.18-3.08-4.28-4.61-7.34-2.99-.78.41-1.41.91-1.93,1.46-1.19-1.61-3.26-2.55-5.31-1.88-6.58,2.17-7.26,11.18-7.84,17.15-.57,5.91,0,16.24,6.52,18.87,3.81,1.54,6.78-.43,8.98-3.38.41.04.83.05,1.27.02,4.33-.34,6.59-3.86,7.72-7.67.88-2.98-.9-5.13-3.19-5.88Z"/>
  <path class="cls-11" d="M317.27,239.95c-6.43,0-6.45,10,0,10s6.45-10,0-10Z"/>
  <path class="cls-15" d="M384.6,217.88c-5.55.83-10.46,4.53-15.41,6.97-5.71,2.82-11.59,5.22-17.6,7.32-1.81.63-2.84,1.95-3.24,3.42-.02,0-.03.02-.05.03-9,5.8-19.02,9.93-26.64,17.68-4.52,4.59,2.55,11.67,7.07,7.07,6.97-7.09,16.37-10.8,24.62-16.12,1.2-.77,1.88-1.8,2.16-2.9,5.27-1.88,10.45-3.97,15.53-6.34,5.16-2.4,10.55-6.64,16.22-7.49,6.34-.95,3.65-10.59-2.66-9.64Z"/>
  <path class="cls-1" d="M32.68,305.33c-.05,1.07.03,2.23.68,3.08.81,1.05,2.24,1.35,3.53,1.66,4.19.99,8.18,2.76,12.4,3.63s8.93.74,12.43-1.78c2.72-1.96,4.33-5.08,5.76-8.12.99-2.1,1.94-4.62.8-6.65-.58-1.03-1.59-1.72-2.6-2.33-6.52-3.94-14.2-5.92-21.81-5.69-4.51.13-5.12,1.29-7.32,5.09-1.98,3.42-3.67,7.1-3.87,11.11Z"/>
  <path class="cls-7" d="M356.67,282.75c-.31-.28-.65-.41-1.06-.44-.18-.01-.35-.01-.53-.01-.01-.03-.02-.05-.03-.08-.22-.35-.52-.6-.86-.83-.39-.26-.83-.4-1.29-.48-.08-.21-.18-.42-.29-.62-.86-1.6-2.72-2.91-4.34-3.66-.41-.19-.85-.33-1.29-.44-.4-.55-.91-1.03-1.51-1.38-.15-.58-.61-1.06-1.39-1.06-.48,0-.83.18-1.07.46-.37.01-.75.05-1.14.14-3.04.73-5.97,1.79-8.77,3.17-.86.42-1.65.83-2.44,1.21-2.32.42-4.62.87-6.48,2.3-.4.19-.79.39-1.19.61-2.6,1.49-4.49,2.52-7.48,2.93-1.25.17-2.5.31-3.75.45-.55-.19-1.17-.29-1.88-.26-3.45.15-6.48-.34-9.86-.68-.57-.06-1.17-.03-1.78.02-1.39-.54-2.76-1.13-4.12-1.75,0,0,0,0,0,0-.44-.81-.89-1.63-1.32-2.44-.16-.3-.32-.6-.48-.9,0-.01,0-.02,0-.03-.15-1.57-1.22-2.81-1.21-4.33,0-.72-.18-1.41-.5-2.04.13-1.79,1.16-3.55,1.86-5.17.72-1.66,1.37-3.19,2.79-4.38.87-.72.38-2.26-.66-2.51-1.19-.28-2.27-.79-3.19-1.6-.61-.53-1.52-.6-2.12,0-.47.47-.58,1.3-.22,1.86-.08.06-.17.11-.23.2-2.35,2.92-4.45,6.02-6.23,9.31-.16.29-.19.62-.15.95-1.27,1.6-2.01,3.16-2.28,5.21-.14,1.08-.2,2.16-.31,3.24-.24.59-.38,1.27-.36,2.04.03.34.01.69-.05,1.02-.1.88.15,1.72.61,2.46-.24.62-.33,1.35-.24,2.2.77,7.09,3.07,14.04,8.82,18.62,3.1,2.47,6.62,4.22,10.34,5.3.79,1.07,2.08,1.77,3.86,1.68.89-.04,1.77-.09,2.66-.13.81.52,1.77.83,2.66.76.9-.06,1.74-.24,2.56-.47.54.18,1.15.27,1.83.24,1.82-.08,3.37-.42,4.84-.89.64.06,1.34-.03,2.1-.29,1.83-.63,3.47-1.38,5.04-2.42.32-.13.63-.27.94-.41,0,0,0,0,0,.01.02-.02.04-.03.06-.04,2.05-.95,3.83-2.1,5.4-3.87,1.06-1.19,1.96-2.79,3-4.19.74-.22,1.44-.65,2.04-1.36.44-.52.84-1.04,1.24-1.58.25-.09.51-.18.76-.3,2.13-1.04,4.08-2.6,5.2-4.74.04-.06.07-.1.09-.14.06-.07.12-.14.18-.21.22-.25.45-.5.67-.75,1.65-.88,3.14-1.99,4.6-3.17,1.03-.84,2.2-1.73,3.11-2.77.1,0,.2-.01.3-.04.43-.06.85-.24,1.21-.48.24-.16.47-.35.69-.55.53,0,1.07-.04,1.59,0,.37.03.81-.19,1.06-.44s.46-.69.44-1.06c-.02-.39-.14-.79-.44-1.06Z"/>
  <path class="cls-7" d="M492.47,184.17c.64-1.61.43-3.54-1.07-5.17-1.81-1.97-3.12-4.83-4.67-7.06-2.05-2.95-3.78-6.11-5.12-9.44,0,0,0,0,0,0-.15-.38-.31-.77-.5-1.2-.28-.63-.67-1.12-1.12-1.5-.03-.06-.05-.13-.08-.19-.21-.51-.47-.95-.78-1.33-.11-.32-.23-.63-.34-.95-.08-.48-.22-.98-.44-1.52-.52-1.27-1.34-2.16-2.3-2.72-.12-.2-.25-.39-.37-.58-.23-1.53-1.09-2.95-2.57-3.66.03-.06.06-.11.09-.17.31-.25.6-.52.84-.83.57-.75,1.02-1.51,1.39-2.31.66-.39,1.28-.98,1.79-1.8.49-.78.86-1.55,1.13-2.34.45-.93.89-1.86,1.34-2.79.74-.58,1.33-1.46,1.63-2.66.06-.26.13-.5.2-.75.39-.45.73-1,.97-1.64.27-.59.46-1.2.63-1.82,1.94-5.8,3.31-11.86,1.86-17.91-.98-4.1-5.46-4.36-8.01-2.3-.19-.02-.38-.03-.58-.03-.56,0-1.06.08-1.52.22-1.42.03-2.51.56-3.29,1.35-1.23.18-2.17.76-2.83,1.56-.09,0-.19.02-.27.06-.44.17-.86.36-1.29.56-1.13.22-2.01.78-2.63,1.54-2.58,1.2-4.83,2.82-6.65,5.11-2.26,2.84-3.26,6.29-5.58,9.1-1.61,1.43-2.69,3.07-3.99,4.96-1.63,2.36-3.81,4.24-5.92,6.17-2.6,2.37-5.09,4.92-8.05,6.82-1.61,1.03-3.19,2.25-4.9,3.05-.58.09-1.17.29-1.77.64-.07.02-.15.04-.22.06-.45.07-.9.13-1.34.2-1.19.06-2.16.41-2.91.96-.4.02-.82.09-1.26.23-2.61.79-4.83.89-7.28.35.57-.74,1.05-1.55,1.53-2.33.9-1.46,1.8-2.91,2.71-4.37.4-.64.24-1.26-.15-1.68.45-.58.63-1.35,1.15-1.86,1.38-1.35-.74-3.47-2.12-2.12-.55.54-.79,1.14-1.17,1.78-.38.65-.99.85-1.66,1.18-1.71.85-3.42,1.69-5.13,2.54-1.59.79-3.18,1.64-4.84,2.28-1.77.68-3.61,1.14-5.44,1.6-.25.06-.44.17-.6.31-1.1.06-2.2.06-3.31,0-.03,0-.06,0-.09,0-.5-.9-1.03-1.8-1.58-2.69-1.04-1.7-1.98-3.3-2.49-5.16-.39-1.4-2.53-1.45-2.89,0-.28,1.11-.69,1.89-1.15,2.94-.36.82-.66,1.62-.86,2.46-1.59-2.24-3.17-4.54-3.86-7.23-.06-.22-.14-.39-.25-.54-.03-.64,0-1.27.12-1.91.14-.69-.16-1.23-.61-1.55.25-.03.41-.24.43-.49.12-1.24,0-2.48-.21-3.71.12-.08.22-.2.23-.39l.11-1.66s0-.04-.01-.07c.15-.07.29-.16.41-.28.26-.29.46-.66.44-1.06-.03-.77,0-1.55.05-2.32.25-.29.39-.67.38-1.08.13-.16.24-.34.32-.54.38-.94.69-1.68,1.12-2.62.42-.93.86-1.85,1.33-2.76.08-.15.13-.31.16-.47.59-.8,1.18-1.6,1.77-2.4.97-1.31,2.02-2.6,2.96-3.95.4.01.8-.12,1.05-.43.46-.57.88-1.16,1.24-1.8,0,0,0-.01,0-.01,1.64-1.08,3.28-2.17,4.94-3.22.32-.2.52-.47.62-.75.49-.13.98-.27,1.46-.4.84-.23,1.5-1.42.9-2.2-.48-.62-1-1.1-1.72-1.44-.67-.31-1.35-.53-1.95-.98-.42-.31-.82-.62-1.23-.92-.42-.9-1.21-1.48-2.01-2.02-.92-.62-1.87-1.2-2.85-1.74-.45-.25-.88-.25-1.24-.11-.48-.43-1.18-.58-1.77-.13-1.25.35-2.03,1.93-2.52,3.26-1.13.46-1.76,2.08-2.17,3.1-.57,1.43-.87,2.96-1.15,4.47-.04.24-.02.46.03.67-.78.85-1.18,1.96-1.05,3.12-1.46,1.08-1.27,3.17-.63,4.91-.25.26-.41.61-.42,1.02-.02.81-.03,1.63-.05,2.44-.24.18-.25.57-.03.77-.39,1.38-.62,2.81-.78,4.23-.04.37.13.73.41,1.01,0,.05-.02.11-.02.16-.12,1.04-.16,2.1-.12,3.15.02.39.15.76.43,1.04-.05.1-.07.22-.05.33.43,1.9.85,3.83.66,5.79,0,.09.02.17.06.24-.7-.22-1.51.02-1.75.89-.26,0-.52.06-.76.22-2.22,1.55-4.3,3.27-6.27,5.13-.47.44-.92.87-1.51,1.14-.5.23-1.03.38-1.53.61-.58.26-1.11.66-1.52,1.14-.14-.03-.29-.05-.45-.04-.89,0-1.52.54-1.97,1.28-.33.08-.64.29-.86.67-.35.6-.74,1.17-1.16,1.71-.74.12-1.13.72-1.17,1.35-.13.14-.26.28-.41.42-.98.94-2.23,1.59-2.92,2.76-.65.28-1.3.55-1.96.83-.21.09-.37.23-.48.4-.43.1-.83.21-1.15.29-1.95.47-3.84,1.03-5.86.88-.47-.04-.83.12-1.06.37-1.55-.26-3.21.15-4.29,1.36-.64.71-1.23,1.44-1.8,2.18-1.27.85-1.96,1.98-2.18,3.16-.02.03-.04.06-.05.09-.34.4-.61.85-.78,1.35-.78,1.4-1.46,2.87-2.08,4.4-.41.31-.79.68-1.13,1.15-.39.53-.77,1.06-1.15,1.58-1.51.66-2.41,2.04-2.69,3.56-1.06,1.34-2.17,2.64-3.4,3.84-.99.96-1.98,1.89-2.93,2.84-.28.17-.55.37-.82.61-1.07.94-1.97,1.99-2.74,3.16-.74.85-1.48,1.7-2.21,2.55-2.28,1.21-3.93,2.79-5.93,4.51-1.83,1.57-4.06,2.43-6.08,3.72-1.45.92-2.57,1.95-3.7,3.1-.28.12-.55.25-.83.43-4.14,2.62-8.89,4.99-12.56,8.27-2.68,2.39-4.53,5.74-6.21,9.05-1.18.73-1.89,1.97-2.12,3.3-.79.58-1.4,1.49-1.65,2.79-1.52,7.77-4.39,16.43-4.05,24.38.11,2.54,1.86,4.5,4.29,4.91.61.61,1.37,1.1,2.23,1.44,2.92,1.14,5.84,2.29,8.76,3.43.72.75,1.73,1.27,3.03,1.36.15.09.29.19.47.27,5.59,2.63,12.27,5.16,19.1,6.59.27.14.56.27.88.37,2.05.66,4.42.81,6.87.73,4.34.3,8.61,0,12.54-1.17.66-.2,1.23-.51,1.7-.9,7.38-1.71,12.68-7.53,19.84-9.85,7.19-2.33,16.72-3.17,21.76,3.6-1.29.27-2.48,1.1-3.26,2.21-.92.43-1.77,1-2.53,1.7-.1.09-.16.2-.25.29-.34-.05-.68,0-.99.17-.14.08-.27.17-.37.28-.07.08-.19.23-.25.32-.01.02-.02.03-.03.05-.06.11-.12.26-.16.38,0,.02-.01.04-.02.06-.04.15-.06.38-.07.49,0,.07-.01.14-.02.21-.04.05-.08.1-.11.15-.14.23-.2.49-.2.76-.04.3,0,.61.1.9l.15.36c.09.17.22.32.39.42.09.09.2.16.33.19.11.06.22.09.34.11.04.11.09.22.14.32.2.62.55,1.16,1.03,1.61.95.87,2.2,1.52,3.54,1.46.08-.01.17-.02.25-.03.1.12.19.24.31.35.43.41.86.82,1.28,1.23.64.85,1.56,1.49,2.58,1.82.22.44.64.76,1.28.76.57,0,.97-.27,1.2-.64.1-.02.21-.04.31-.07,2.02-.64,3.79-2.12,5.33-3.66,1.74-.83,3.22-2.09,4.54-3.56,1.36-.76,2.74-1.49,3.94-2.31,2.51-1.71,5.38-2.61,8.24-3.56,1.02.19,2.15.03,3.31-.66.02-.01.05-.03.07-.04.8-.12,1.53-.45,2.11-1.02,2.64-1.07,5.5-1.57,8.25-2.35,3.25-.92,6.41-1.94,9.54-3.19-.03.66.08,1.35.36,2.06-.02.83.18,1.73.68,2.67,1.22,2.32,1.48,4.6,2.82,6.66.07.54.23,1.11.5,1.67.36.76.57,1.57.63,2.41.25,1.46,1.04,2.43,2.07,2.98-.03.32-.03.64,0,.95.02.22.04.47.1.69.08.31.24.57.47.8.41.42,1.01.52,1.56.4.34-.08.59-.28.85-.5.79-.64,1.56-1.29,2.34-1.94.24-.2.39-.58.42-.9.51-.35.97-.78,1.32-1.29,3.68-5.42,8.26-8.17,13.71-11.31.98.16,2.05.02,3.15-.57,3.19-1.7,6.84-2.66,9.97-4.44.21.02.43.03.65.03,4.2-.07,8.83-2.61,12.74-4.56.77-.05,1.53-.15,2.29-.28.61-.1,1.29-.21,1.88-.45.58.51,1.54.59,2.09-.02.53-.58.62-1.55,0-2.12-.23-.21-.45-.43-.66-.65-.1-.11-.2-.22-.29-.33-.05-.06-.09-.11-.14-.17-.06-.12-.17-.23-.24-.34-.08-.12-.16-.24-.24-.37-.17-.27-.33-.56-.48-.85-.1-.2-.26-.34-.44-.46-.3-1.36-1.09-2.62-2.3-3.31-.01,0-.02-.02-.04-.02-.13-1.33-.72-2.6-1.77-3.44-.29-1.09-.91-2.09-1.88-2.74-.07-.13-.12-.27-.21-.39-.11-1.08-.51-2.13-1.23-2.93-.14-1.18-.64-2.31-1.52-3.12-.1-.7-.32-1.39-.68-1.99-.04-.19-.08-.39-.13-.58.94-1.21,1.26-2.88.96-4.4-.02-.34-.05-.67-.13-1,.19-.84.19-1.73,0-2.57.39-.69.63-1.48.69-2.29.25-.63.39-1.31.4-2,.57-.96.83-2.1.73-3.22,1.05-.9,1.62-2.23,1.7-3.6,1.23-.6,2.04-1.68,2.4-2.92,1.11-.49,1.88-1.38,2.33-2.42.59-.75.94-1.68,1.05-2.64.22-.36.42-.72.59-1.11.27-.52.44-1.03.53-1.53.77-1.12,1.71-2.2,2.25-3.29.94-1.86,1.61-3.82,2.16-5.82.39-1.42.1-2.74-.57-3.82ZM417.89,189.77c-1.24.14-2.27.36-3.43.93-.74.36-1.21.7-2.03.85-.61.11-1.21.14-1.82.18,0,0-.01,0-.02,0-.55-.34-1.14-.54-1.77-.59-.24-.04-.48-.05-.72-.06-.27-.12-.54-.24-.8-.36-.69-.77-1.66-1.32-2.92-1.46-.41-.26-.87-.47-1.4-.59-.39-.26-.81-.49-1.29-.65-.14-.04-.27-.09-.41-.14-.32-.17-.65-.33-.96-.52-.11-.07-.23-.15-.34-.22-.2-.2-.78-.7-.84-.76-.71-.72-1.66-1.16-2.65-1.33.15-.34.27-.7.34-1.11.05-.19.1-.38.15-.56.33-.42.62-.89.82-1.43.72-1.98,1.98-3.51,3.32-5.09.75-.83,1.5-1.66,2.25-2.49.75-.65,1.2-1.07,1.35-1.28.14-.05.28-.1.45-.15,1.18-.37,2.38-.68,3.59-.94,1.34-.22,3.06-.54,4.47-.17.38.21.78.4,1.21.57.79.47,1.58.92,2.38,1.38,2.19,2.04,4.35,4.13,6.7,5.97.11.32.22.65.32.99.19.7.48,1.29.85,1.77-1.96,2.72-4.21,5.18-6.78,7.29Z"/>
  <path class="cls-13" d="M304.93,273.29c-.03.07-.06.14-.1.21-.02-.23-.17-.45-.48-.45-.64,0-.64,1,0,1,.11,0,.19-.04.26-.08-.44.95-.85,1.91-1.23,2.88,0-.02,0-.03,0-.05l-.03-1.57c-.02-1.05-.05-2.1-.07-3.15-.01-.57-.8-.67-.98-.13-.32.96-.43,1.99-.3,3,.03.22.15.4.35.47,0,.15,0,.29,0,.44.01.63.03,1.26.04,1.89.01.5.07,1.1.68,1.2,0,0,.02,0,.03,0,.18.05.4.02.54-.13.27-.18.48-.48.66-.73.32-.44.61-.9.85-1.39.48-.98.77-2.05.7-3.15-.03-.45-.7-.73-.93-.25Z"/>
  <path class="cls-13" d="M301.35,263.52c-.68.26-1.36-.4-1.91-.75-.84-.54-1.76-.94-2.78-.89-1.16.06-1.62,1.19-1.38,2.04-.17.08-.34.19-.5.33-.49.45-.78,1.15-1.09,1.73-.33.62-.64,1.25-.93,1.89-.45.99-.86,1.98-1.18,2.99-.12.22-.23.44-.33.66-1.05,2.39-1.25,5.17.14,7.47,1,1.65,3.59.15,2.59-1.51-.19-.31-.31-.64-.41-.97.09-.08.18-.16.25-.26,1.38-2.05,2.75-4.1,4.13-6.16.96-1.43,1.96-3.01,3.65-3.54.18-.03.36-.07.54-.14,1.82-.69,1.11-3.2-.8-2.89Z"/>
  <path class="cls-13" d="M343.08,272.47c-.23-.64-.5-1.29-1.01-1.77-.59-.56-1.31-.71-2.09-.71-.88,0-1.63-.43-2.09-1.27-.39-.71-1.37-.94-2.05-.54-.66.38-.81,1.06-.65,1.71,0,.05-.02.12-.06.21-.09.2-.21.39-.32.57-.19.32-.39.63-.6.93-.42.6-.9,1.15-1.44,1.68-1.11,1.11-2.34,1.97-3.76,2.66-.73.36-.93,1.39-.54,2.05.43.74,1.32.9,2.05.54,1.1-.54,2.14-1.23,3.1-2.02.37.16.81.16,1.26-.12,2.05-1.25,4.34-1.96,6.74-2.05.9-.03,1.8-.94,1.45-1.9Z"/>
  <path class="cls-13" d="M377.05,257.83c-2.48-1.76-5.46-2.61-8.46-2.25-.53-.31-1.14-.49-1.8-.51-1.35-.03-2.79.32-4.11.54-1.42.24-2.84.52-4.25.84-1.61.37-1.26,2.53.06,2.88,1.06,1.43,2.97,2.22,4.39,3.24,1.9,1.36,3.73,2.81,5.88,3.77.74.33,1.61.21,2.05-.54.23-.39.25-.96.06-1.41.25-.04.51-.1.77-.23,1.46-.71,2.82-1.78,4.19-2.66.62-.4,1.45-.76,1.83-1.42.47-.8.09-1.76-.61-2.25Z"/>
  <path class="cls-9" d="M333.48,267.75c-5.89,1.18-11.95.99-17.76-.52-.42-.11-.8-.04-1.11.14-.69-.24-1.37-.28-2.14-.23-1.03.07-1.85-.19-2.82-.52-2.12-.73-4.25-1.46-6.37-2.19-.77-.27-1.63.3-1.85,1.05-.05.17-.06.34-.05.49-.83.41-1.35,1.28-1.85,2.1-.65,1.07-1.47,2.3-1.75,3.52,0,.04,0,.07-.01.11-.12.06-.25.12-.36.19-1.23.8-1.99,2.43-2.72,3.65-.76,1.27-1.89,2.77-1.88,4.31.01,1.57,1.21,2.57,2.71,2.6.01,0,.02,0,.03,0,.11.21.25.4.44.54,1.42,1,3.08,1.49,4.81,1.48.32,0,.58-.09.79-.23.66.07,1.32.06,1.98,0,.21.13.46.21.77.21h3.16c.64,0,1.42.1,2.08-.07,1.54,1.73,6.64.35,8.23-.25,1.53-.58,2.89-1.44,4.43-1.95,1.12-.37,1.74-1.08,2.16-1.98.2-.12.39-.23.57-.34,1.92-1.19,3.48-2.78,5.05-4.39,1.67-1.71,3.4-3.38,4.91-5.24.95-1.16.07-2.81-1.46-2.51Z"/>
  <path class="cls-1" d="M351.89,279.42c1.25-3.51,4.13-6.25,7.37-8.08s6.86-2.87,10.45-3.88"/>
  <path class="cls-7" d="M373.95,202.73c-.94-1.68-3.54-.17-2.59,1.51,3.01,5.37,4.26,11.52,3.68,17.64-.18,1.92,2.82,1.91,3,0,.63-6.63-.84-13.35-4.09-19.16Z"/>
  <path class="cls-4" d="M127.38,12.62c-.73-1.14-1.67-1.74-2.9-2.26.29.12.57.24.86.36-1.17-.5-2.25-1.13-3.27-1.89l.34.27c-.98-.76-1.98-1.28-3.29-1.28-1.23,0-2.69.54-3.54,1.46-.87.95-1.52,2.2-1.46,3.54.06,1.24.45,2.72,1.46,3.54,1.95,1.57,3.83,2.67,6.15,3.61,1.12.46,2.86.08,3.85-.5,1.04-.61,2.03-1.8,2.3-2.99.29-1.28.23-2.72-.5-3.85Z"/>
  <path class="cls-7" d="M247.78,119.94c-.07-.25-.2-.47-.39-.66-.04-.05-.08-.1-.12-.15-.52-.69-.97-1.44-1.41-2.18-.13-.22-.33-.41-.56-.54-.25-.53-.58-1.03-.99-1.47-.16-.92-.66-1.83-1.63-2.63-.04-.03-.08-.06-.12-.08-.12-.28-.27-.56-.45-.84-2.03-3.09-3.99-6.26-6.12-9.28-.94-1.33-2.02-2.49-3.12-3.64-.1-.19-.19-.38-.33-.57-2.49-3.43-5.01-8.35-8.51-10.85-.17-.12-.35-.24-.53-.34-.22-.63-.59-1.25-1.14-1.83-5.97-6.32-11.87-12.68-18.14-18.7-2.66-2.55-5.58-4.84-8.22-7.39-2.14-2.07-3.68-4.09-6.54-4.98-.94-1.33-2.29-2.36-3.77-3.26-4.81-3.63-9.62-7.26-14.62-10.63-.5-.51-1.06-.87-1.64-1.08-.19-.1-.37-.18-.56-.25-3.46-2.69-7.08-5.64-11.03-7.32-.97-.84-1.89-1.54-3.03-2.27-.37-.24-.74-.41-1.11-.54-.24-.26-.5-.49-.79-.7-7.74-5.54-15.97-10.29-24.24-15-.38-.57-.89-1.05-1.55-1.38-2-.99-4-1.99-6-2.98-.02,0-.03-.01-.05-.02-.28-.66-.68-1.27-1.23-1.75.45-3.93-4.83-7.75-8.58-4.22-.25.24-.47.49-.71.73-1.03.22-1.84.73-2.44,1.41-.26.08-.52.18-.78.31-1.97.97-3.8,2.38-5.24,4.03-.16.18-.3.37-.43.56-.43.38-.81.87-1.13,1.49-.28.2-.56.44-.82.72-1.41,1.52-2.67,3.1-3.8,4.76-.66.38-1.27.96-1.76,1.76-4.53,7.42-6.78,15.66-7.08,24.33-.13,3.73,3.17,5.28,6.02,4.68.29.11.61.21.96.27,5.15.95,9.15,4.36,13.51,7.05,4.62,2.85,9.42,5.44,14.39,7.62,1.78.78,3.57,1.47,5.39,2.02.4.31.85.58,1.38.79,12.78,5.1,27.83,10.11,37.71,20.19.45.46.93.8,1.42,1.04,6.86,7.39,13.65,14.85,20.33,22.41.32.37.67.66,1.03.89,4.45,5.87,8.52,13.2,14.21,17.88.83,1.46,1.67,2.91,2.5,4.37.2.35.43.65.67.92.26.61.62,1.12,1.03,1.52.2.63.54,1.22.97,1.75-.1.37-.08.78.15,1.11.38.53.69,1.1.96,1.7.06.16.13.32.18.49.25.74,1.04,1.31,1.85,1.05.42-.14.79-.46.98-.87.52-.15.97-.51,1.42-.82.45-.31.9-.63,1.35-.94.24-.17.42-.38.55-.63,1.1-.67,2.01-1.4,2.77-2.29,1.1-.36,3.36-2.15,3.89-2.47,2.03-1.21,4.08-2.38,6.15-3.53,4.34-2.41,8.56-4.64,13.48-5.6,1.03-.2,1.81-.63,2.38-1.19.17.01.34,0,.51-.04.18-.08.33-.14.47-.22.22.11.48.17.69.17.37,0,.81-.16,1.06-.44.26-.29.46-.66.44-1.06-.02-.13-.04-.27-.05-.4Z"/>
  <path class="cls-18" d="M516.36,220.61c-.02-.11-.04-.23-.05-.35,0-4.09.11-8.18.23-12.27.09-3.18-2.3-4.78-4.77-4.82-.64-1-1.37-1.93-2.24-2.77-3.29-3.14-8.21-.73-8.54,3.54-.67,8.85-.44,17.63.69,26.43.39,3.03,2.91,4.62,5.33,4.74.38,3.98.95,7.95,1.8,11.91,1.19,5.54,9.94,4.27,9.82-1.33-.17-8.41-.94-16.77-2.26-25.07Z"/>
  <path class="cls-6" d="M518.07,179.87c-.26-5.31-8.84-7.18-9.82-1.33-.54,3.19-1.31,6.35-2.11,9.5-.21-.06-.42-.11-.63-.14-.21-2.88-.65-5.73-1.42-8.54-2.76-9.97-7.11-19.54-12.46-28.38-3.33-5.5-11.98-.48-8.63,5.05,4.93,8.15,8.91,16.79,11.45,25.99,2.53,9.12.79,19.25-.05,28.54-.44,4.85,4.88,5.85,8,3.61,1.46,3.9,2.92,7.8,4.39,11.7,2.04,5.44,9.17,4.3,9.82-1.33,1.72-14.85,2.21-29.75,1.47-44.68Z"/>
  <path class="cls-3" d="M519.22,224.6c-1.72-4.44-3.43-8.89-5.15-13.33-1.22-4.44-1.98-8.99-2.27-13.62-.03-1.88-.08-3.77-.14-5.66-.15-4.37-4.69-5.78-7.6-4.19-.06-.42-.12-.85-.18-1.27-.86-6.35-10.5-3.64-9.64,2.66,1.42,10.45,3.48,20.77,6.21,30.96.35,1.3,1.2,2.25,2.25,2.84.94,3.54,2.66,6.8,5.08,9.89,2.56,3.27,6.4,1.45,7.74-1.59.5-.29.95-.65,1.3-1.1,2-1.02,3.38-3.11,2.42-5.59Z"/>
  <path class="cls-3" d="M526.35,291.59c-.8-14.06-1.86-28.1-3.18-42.12-.35-3.77-4.99-5.95-7.79-4.46-.04-.19-.08-.37-.12-.56-1.3-6.3-10.95-3.63-9.64,2.66,1.97,9.49,4.15,18.94,6.54,28.33.51,3.49,1.36,6.93,2.71,10.31.31.76.73,1.39,1.23,1.89.08,1.32.17,2.64.24,3.96.36,6.4,10.37,6.44,10,0Z"/>
  <path class="cls-17" d="M534.56,257.91c-1.36-7.62-2.82-15.15-5.78-22.33-.98-2.37-3.11-3.52-5.14-3.48-.05-1.25-.1-2.49-.14-3.74,1.75-.36,3.22-1.38,4.07-3.12,2.42-4.94-1.96-12.29-4.77-16.21-2.81-3.92-9.18-2.71-9.32,2.52-.02.82-.04,1.66-.07,2.49-1.41-.45-3-.32-4.27.39-1.71-1.3-4.22-1.43-6-.4-.91-1.49-1.52-3.15-2.51-4.61-2.68-3.94-6.87-5.76-11.5-4.71-1.61.36-3.14,1.88-3.49,3.49-1.18,5.34-3.19,13.27,3.53,15.72.86.31,1.67.47,2.45.51,1.32,7.6,5.22,14.67,11.1,19.89.87.77,1.91,1.17,2.97,1.26.41,1.34.84,2.68,1.31,4.01.58,1.67,1.81,2.72,3.21,3.2.17.42.33.83.52,1.25,1.26,2.77,3.98,3.02,6.16,1.91.73,2.3,1.58,4.56,2.61,6.74,1.5,3.19,5.64,2.99,7.86.91,3.26,1.67,8.04-.94,7.19-5.69Z"/>
  <path class="cls-17" d="M527.25,195.32c-2.61-8.12-6.11-15.95-10.72-23.13-2-3.12-4.18-6.15-6.63-8.94-1.16-1.32-2.41-2.54-3.53-3.83-.95-2.42-2.05-4.65-3.6-6.79-1.99-2.75-5.42-2.85-7.51-1.2-.05-.08-.1-.15-.15-.23-.76-1.2-2.23-3.08-3.4-4.98l-1.95-5.82c-1.77-5.29-9.66-4.45-9.82,1.33,0,.07,0,.15,0,.22-.54.54-1,1.22-1.33,2.04-.68,1.71-.82,2.89-1.04,4.71-.47,3.88,3.04,5.37,6.04,4.53.22.22.44.45.67.67.17.16.36.3.55.43.85,1.28,1.73,2.52,2.6,3.71.37,3.35,2.67,7,4.6,9.69,2.8,9.99,10.06,18.9,15.62,27.36,1.24,1.89,3.81,2.58,5.94,2.09.86,1.36,1.71,2.72,2.57,4.08,2.25,3.58,7.95,2.54,9.23-.73,1.55-1.22,2.52-3.19,1.87-5.21Z"/>
  <path class="cls-8" d="M547.58,321.76c-2.22-2.43-4.25-5.01-6.09-7.74-.08-.13-.19-.22-.29-.29,0-.08.01-.16,0-.25-.11-1.56-.74-2.98-.9-4.48-.04-.4-.12-.78-.23-1.14.13-.7.32-1.42.39-1.92.16-1.3.08-2.66.26-3.95.34-2.37,1.24-4.55,1.5-6.97,0,0,0-.02,0-.03.11-.31.21-.61.32-.92.68-1.91,1.55-3.82,1.67-5.87.1-1.73.63-3.51.49-5.25.93-1.07,1.42-2.56.99-4.34-.74-3.08-.3-6.82-.19-10.01.03-.72-.08-1.36-.27-1.91.12-1.07.24-2.15.18-3.23-.14-2.36-.76-4.57-.75-6.98,0-1.22-.35-2.21-.93-2.96,0-.06.03-.11.03-.18.16-1.51-.44-3.29-.49-4.84-.06-1.85-.33-3.41-.92-5.02.12-.92.13-1.83-.1-2.79-.38-1.59-1.03-2.34-.4-3.95.68-1.73.35-3.17-.51-4.21,0-.16.02-.31,0-.48,0-.04,0-.07,0-.11-.03-.4-.09-.78-.18-1.13.05-4.72-.08-9.37-.89-14.1.77-1.66.85-3.66.71-5.56-.26-3.5-.85-7.01-1.31-10.49-.13-1.04-.48-2.02-1.02-2.84.1-.66.06-1.35-.17-2.01-.91-2.59-2.3-4.87-3.5-7.32-1.29-2.65-2.57-4.34-5.05-5.99-.57-.38-1.21-.59-1.86-.67-.38-.66-.9-1.24-1.59-1.64-.38-.81-.79-1.61-1.29-2.35-1.74-2.57-3.6-5.04-5.19-7.71-.5-.83-1.11-1.42-1.79-1.81-2.57-3.8-5.46-7.46-8.45-10.87-.34-.38-.69-.69-1.06-.93-.81-1.16-1.72-2.21-2.74-3.19-1.82-1.98-3.86-3.64-6.61-4.67-.42-.16-.83-.22-1.23-.25-.08-.03-.16-.07-.23-.1-.2-.09-1.03-.64-.98-.54-.37-.38-.72-.86-1.09-1.24-.3-.3-.48-.46-.59-.55,0-.06-.04-.16-.13-.34-1.6-3.4-4.18-5.98-6.65-8.76-.84-.94-1.78-1.42-2.72-1.56-.21-.49-.65-.74-1.21-.95-.64-.24-1.4-.57-1.99-.02-.41.39-.45,1.04-.77,1.51-.32.46-.71.87-.96,1.38-.26.53-.38,1.09-.42,1.67-.08.22-.14.44-.19.67-.02,0-.04-.01-.06-.01-.81,0-1.11.79-.9,1.38-.58.82-1.16,1.65-1.73,2.47-.43.62-.8,1.22-.96,1.93-.68.47-1.24,1.08-1.59,1.78-.4.47-.79.96-1.15,1.47-.54.76.22,1.49.96,1.44.16.46.39.93.75,1.4,3.03,4.01,5.36,8.35,7.67,12.77.04.2.09.4.16.61,1.45,4.25,4.14,7.41,6.69,10.86.07.22.16.43.27.64.61,1.21,1.23,2.51,2.04,3.61.09.12.19.24.28.36-.05,1.32.09,2.47.4,3.49-.17.7-.2,1.47-.04,2.3.77,3.88-1.66,6.9-3.13,10.3-1.11,2.57-2.63,4.88-3.73,7.43-.19.15-.39.31-.57.5-.74.75-1.4,1.54-1.99,2.36-.79.6-1.33,1.43-1.63,2.36-.65.58-1.14,1.37-1.31,2.44-.35,2.27-1,4.19-1.41,6.41-.23,1.23-.29,2.46-.3,3.7,0,.46-.22,1.81-.21,2.43-.84,1.67-.62,3.8.39,5.36.05.67.25,1.38.63,2.09,2.61,4.84,5.45,9.54,8.28,14.25,1.47,2.44,2.71,4.92,4.65,6.7-.27.55-.45,1.17-.51,1.87-.87,9.76-.26,21.26,5.46,29.64-.04.15-.05.32,0,.51.61,2.12,1.67,4.38,1.27,6.63-.09.53.14,1.08.7,1.23.55.15,1.05-.19,1.23-.7.33-.94.25-1.93.22-2.91.34-.16.56-.51.59-.91.03-.33.05-.65.08-.98.48.02.97-.01,1.45-.11.17.29.36.58.59.87,1.42,1.75,2.84,3.49,4.26,5.24,1.31,2.74,3.06,5.16,4.38,7.92,1.58,3.3,3.35,6.41,5.21,9.58.05.08.1.14.15.22-.22.47-.04,1,.39,1.28.34.22.55.64.71,1.03.25.61.46,1.25.68,1.88.43,1.2.82,2.4,1.92,3.16.16.11.32.15.48.15.08.17.18.34.31.47.41.41.96.38,1.49.29.8-.15,1.62-.38,2.35-.73,1.53-.72,1.77-2.84,2.05-4.32.02-.13.05-.25.08-.38.29.1.58.17.88.22.16.15.37.25.64.25,0,0,0,0,0,0,1.06,1.01,2.04,2.1,2.97,3.23.64.77,1.46,1.2,2.34,1.38.84,1.38,2.35,2.28,3.98,2.32.01,0,.02,0,.04,0,0,0,.01,0,.02,0,.43.21.79.5,1.24.66.81.29,1.69.31,2.49.66.89.38,1.66,1.06,2.69.99.16-.01.31-.07.44-.14.08.09.16.19.25.28.87.95,2.28-.47,1.41-1.41Z"/>
  <path class="cls-8" d="M466.44,114.48c-.16-.57-.69-.78-1.23-.7-.17.02-.69-.33-.96-.47-.17-.17-.35-.32-.52-.44-.93-.6-2-1-2.64-1.96-.05-.07-.11-.14-.16-.21-.11-.14-.24-.21-.37-.26-.47-.53-1-.98-1.66-1.29-1.38-.66-2.99-.73-4.28-1.57-.33-.2-.65-.17-.9-.04-.58-.7-1.35-1.24-2.33-1.49-1.57-.4-3.14-.8-4.71-1.2-.63-.16-1.23-.18-1.81-.1-.35-.13-.7-.27-1.05-.4-.54-.49-1.21-.89-2.05-1.13-1.6-.45-3.17-.77-4.77-.98-.59-.34-1.25-.57-1.98-.64-7.39-.7-14.44.25-21.52,1.86-.4,0-.8.03-1.23.14-1.33.32-2.64.71-3.93,1.13-.16.04-.31.08-.47.12-.36.1-.69.23-.99.38-4.46,1.63-8.63,3.89-12.45,6.82-.74.57-1.26,1.25-1.59,1.97-1.44.39-2.67,1.47-3.12,3.41.16-.71-.52.55-.7.81-.48.71-.76,1.47-1.19,2.21-1.07,1.83-2.35,3.3-3.21,5.28-1.58,3.67-1.97,7.59-1.92,11.55,0,.57.1,1.09.25,1.56-.04.03-.09.05-.13.09-.27.31-.37.63-.29,1.04.04.21.16.38.31.52,0,.13.04.27.11.42.27.52.54,1.05.81,1.57.3,1.85.85,3.62,1.65,5.34.54,1.16,2.27.15,1.73-1.01-.01-.03-.02-.06-.03-.08.3-.1.55-.32.65-.66.33-1.2,1.48-1.94,1.91-3.11.04-.11.09-.46.15-.7.06.13.23.27.31.39.47.73.89,1.5,1.32,2.26,1.28,2.25,2.19,5.75,5.1,6.32,2.79.55,5.88-.71,8.26-2.05,1.41-.79,2.96-1.11,4.46-1.71.59-.23,1.16-.51,1.68-.87.12-.09.24-.18.35-.27.05,0,.1,0,.15-.01.52-.16.96-.38,1.36-.68.42-.23.84-.46,1.25-.71.02.01.03.04.05.05.08.03.16.07.24.1.18.05.35.05.53,0,.09-.02.18-.05.27-.08.17-.06.33-.13.49-.21.08-.04.15-.09.22-.14.04-.02.08-.05.12-.07.01,0,.03-.02.04-.03.03-.03.07-.05.1-.08.06-.05.12-.1.18-.15.1-.09.17-.2.21-.32.06-.12.09-.25.09-.39,0-.05-.02-.08-.03-.13.21-.01.42-.1.6-.31.54-.64,1.07-1.3,1.57-1.97.03-.04.06-.09.1-.13.06.43.34.8.88.84-.07,1.04-.2,2.07-.43,3.1-.08.37.04.66.25.88-.01.08-.02.15-.03.23-.25.51-.39,1.06-.53,1.61-.09.35-.18.7-.27,1.04-.68,1.61-1.66,3.07-2.95,4.31-.91.88.43,2.24,1.36,1.45.21.11.46.14.73.1.41-.07.8-.2,1.19-.35.15.1.33.18.54.2.41.05.79-.14,1.16-.3.26-.11.51-.24.77-.36.02-.01.11-.05.11-.05.03-.01.07-.03.1-.04.14-.05.27-.1.42-.14.07-.02.14-.04.21-.05.02,0,.06,0,.09,0,.13,0,.25,0,.38,0,.27.02.54-.13.73-.34.55,0,1.04-.2,1.54-.49.55.1,1.09.01,1.64-.27.52-.27.93-.63,1.51-.79.51-.14,1.05-.17,1.56-.32.87-.26,1.71-.67,2.46-1.18.42-.29.83-.69,1.26-1.03.24.08.5.07.77-.08.28-.16.51-.35.71-.57.72-.53,1.54-.91,2.27-1.43.94-.65,1.76-1.43,2.55-2.25.77-.8,1.52-1.63,2.34-2.38.83-.76,1.81-1.33,2.56-2.16.25-.28.29-.6.23-.88.27-.21.54-.46.79-.76,2.06-2.54,4.06-5.13,5.86-7.86.19-.28.37-.6.56-.95.19-.13.37-.26.54-.41,2.54-2.2,4.27-6.18,6.03-9,.09-.14.14-.28.21-.42,1.54-.9,3.1-1.85,4.5-2.96.23-.18.37-.38.45-.58.26-.13.51-.28.73-.45.12-.1.21-.21.28-.32.27.05.55.06.87,0,.53-.08.83-.76.7-1.23Z"/>
  <path class="cls-16" d="M406.37,103.13c-1.27.15-2.55.2-3.83.14-.18,0-.34.06-.49.15-.01,0-.03-.02-.04-.03-.42-.31-1.13-.09-1.37.36-.27.52-.09,1.04.36,1.37.05.03.1.07.14.1,0,0,0,0,.01.01.1.08.2.17.3.25.05.04.1.09.14.13.02.33.22.68.5.82.39.21.89.17,1.21-.16.06-.06.11-.11.18-.17.02-.02.14-.1.12-.09.1-.07.2-.13.31-.19.07-.04.15-.07.22-.11,0,0,0,0,0,0,0,0,0,0,.02,0,.16-.06.32-.11.48-.16.65-.19,1.33-.31,1.99-.46.49-.11.78-.63.72-1.1-.06-.44-.49-.93-.98-.87Z"/>
  <path class="cls-3" d="M107.79,11.5s-.01,0-.02,0c0,0,0,0,0,0-.09.01-.17.01-.27.03-.3.07-.49.25-.6.47-.09.02-.18.03-.28.08-1.41.76-2.46,1.86-3.2,3.21-.28.02-.54.17-.74.47-1.91,3.01-3.44,6.32-4.93,9.55-1.48,3.21-2.95,6.46-2.74,10.07.07,1.19.1,2.75,1.17,3.52,1.06.76,2.14.08,2.92-.71,2.42-2.46,4.61-5.16,6.62-7.96.11-.15.15-.31.16-.46.59-.25.71-1.03.38-1.52.55-.88,1.2-1.72,1.69-2.64.95-1.77,1.55-3.81,2.09-5.74.61-2.18,1.86-8.99-2.26-8.38Z"/>
  <path class="cls-8" d="M117.91,1.89c-.06-.11-.15-.21-.23-.31-.03-.03-.06-.06-.09-.09-.09-.07-.2-.17-.31-.22-.06-.03-.12-.05-.17-.07-.06-.02-.12-.05-.18-.07-.12-.04-.26-.05-.39-.06-.04,0-.09,0-.13,0-.11,0-.21.02-.32.04-.02,0-.05,0-.07.01-.02,0-.04.01-.07.02-.1.04-.2.08-.29.12-.12.06-.21.15-.28.26-.09.1-.15.21-.18.34-.04.13-.05.27-.02.4,0,.13.05.26.12.37.05.07.1.13.16.2.12.12.27.21.44.26l.27.04c.07,0,.13-.01.19-.03.03.03.05.07.08.09.1.09.21.15.34.18.13.04.27.05.4.02.13,0,.26-.05.37-.12.07-.05.13-.1.2-.16.12-.12.21-.27.26-.44.01-.09.02-.18.04-.27,0-.18-.05-.35-.14-.5Z"/>
  <path class="cls-17" d="M118.76,2.38c-.21-.3-.46-.56-.78-.73-.08-.04-.16-.06-.24-.09-.05-.07-.09-.15-.16-.22-.1-.1-.21-.19-.33-.25-.24-.12-.35-.14-.62-.17-.05,0-.11,0-.16,0-.16-.08-.34-.14-.49-.13-.25.01-.55.09-.71.29-.22.29-.45.58-.67.87-.1.09-.17.2-.21.32-.06.12-.09.25-.09.39,0,.25.11.54.29.71.12.11.27.19.43.24.2.07.42.1.62.03.25-.09.51-.17.78-.23.05.06.08.13.14.19.19.18.44.29.71.29.1,0,.21-.03.31-.06.02,0,.04.02.06.03.24.07.56.04.77-.1.21-.14.4-.34.46-.6.06-.25.05-.55-.1-.77Z"/>
  <path class="cls-8" d="M117.35,3.41c-.08-.24-.23-.48-.46-.6-.15-.08-.3-.15-.46-.23-.19-.1-.38-.21-.59-.25-.42-.09-.85,0-1.16.31-.32.33-.38.78-.27,1.21.17.66.36,1.32.54,1.99.07.24.24.47.46.6.21.13.53.18.77.1.52-.17.85-.69.7-1.23-.06-.23-.12-.46-.19-.68.22-.07.44-.23.55-.43.12-.23.18-.51.1-.77Z"/>
  <path class="cls-7" d="M119.17,6.49c-.23-1.31-.95-2.48-1.65-3.59-.19-.3-.5-.5-.86-.5-.05,0-.1.01-.15.02-.23-.33-.59-.58-1.03-.54-.42.04-.86.28-.96.73-.09.42-.19.84-.28,1.27-.08.36-.12.71.05,1.04,0,.04-.02.07-.02.11-.01.44.14.87.39,1.23.05.12.09.24.14.36.09.25.22.46.46.6.21.13.53.18.77.1.42-.13.79-.57.74-1.03.03-.09.05-.18.05-.28,0-.11,0-.22,0-.33.03.07.07.13.1.2,0,.01,0,.01.01.02,0,0,0,0,0,.02.02.06.05.13.07.19.11.3.19.6.24.91.09.52.75.85,1.23.7.56-.18.8-.68.7-1.23Z"/>
  <path class="cls-7" d="M88.51,44.69c-1.29,0-1.29,2,0,2s1.29-2,0-2Z"/>
  <path d="M413.58,180.28c-1.06-1.17-2.65-1.81-4.16-2.17-.75-.17-1.34.49-1.24,1.14-.31.17-.52.48-.55.87-.03.37-.04.75-.04,1.13-.14.22-.25.46-.29.72,0,0,0,0-.01.01-.62.69-.79,1.65-.33,2.47.35.63,1.04,1.01,1.73,1.13.8.14,1.57.04,2.36-.14.85-.19,1.7-.47,2.49-.83,1.89-.87,1.12-3.13.04-4.33Z"/>
  <path class="cls-5" d="M370.5,268.08c-.41-.32-.42-.97-.79-1.35-.28-.3-.64-.45-1.02-.52-2.06-1.67-3.51-3.89-6.3-4.26-1.1-.95-2.3-1.77-2.88-2.28-1.04-.93-1.87-2.59-3.43-2.63-.76-.02-1.35.39-1.97.79-.9.58-1.8,1.14-2.71,1.69-4.1,2.47-8.39,4.63-12.81,6.47-.24.1-.43.29-.56.51-.8-.19-1.66.9-.94,1.69,1.49,1.65,3.45,2.57,5.34,3.63.87.75,1.77,1.45,2.72,2.08.21.14.43.29.65.44.38.39.76.79,1.15,1.19.8.83,1.91,1.89,3.13,2.03-.14.4-.06.85.42,1.12.25.14.5.28.75.42.02.01.04,0,.06.02.1.05.2.11.3.16.47.25,1.09.12,1.37-.36,1.59-2.77,4.33-4.47,7.01-6.05,2.71-1.6,6.25-4.45,9.54-3.12.91.37,1.75-1.07.97-1.67Z"/>
  <path class="cls-10" d="M36.63,370.24c-.48-.53-.95-1.06-1.41-1.61-.23-.28-.45-.56-.67-.83,0,0,0,0,0,0-.05-.06-.1-.13-.14-.19-.11-.15-.23-.3-.34-.45-.85-1.15-1.63-2.35-2.34-3.58-.39-.68-1.37-.98-2.05-.54-.68.44-.96,1.33-.54,2.05,1.52,2.62,3.33,5.06,5.38,7.29.53.58,1.59.58,2.12,0,.57-.62.57-1.5,0-2.12Z"/>
  <path class="cls-10" d="M82.48,341.73c-.03-.75-.66-1.58-1.5-1.5-1.8.18-3.31-1.04-5.04-1.35-1.33-.24-2.63-.01-3.95.11-.06-.02-.13-.04-.2-.05-2.49-.41-4.99-.81-7.51-.86-1.23-.03-2.46.03-3.69-.11-1.14-.13-2.23-.5-3.35-.72-1.12-.21-2.31-.15-3.41-.46-1.04-.3-1.97-.93-2.96-1.36-.96-.42-1.89-.64-2.92-.76-.79-.1-1.76-.08-2.37-.66-.37-.35-.79-.45-1.19-.4-.54-.27-1.12-.47-1.67-.69-1.29-.51-2.57-1.01-3.86-1.52-2.65-1.04-5.29-2.22-7.99-3.12-1.12-.37-2.31-.31-3.34-.92-1.15-.67-2.13-.88-3.44-1.05-2.65-.36-5-1.55-7.34-2.79-.13-.07-.27-.12-.39-.15-.2-.49-.4-.98-.6-1.46-.65-1.58-2.75-1.33-2.95.4-.45,3.88-.86,7.76-1.37,11.64-.1.75.77,1.58,1.5,1.5.16-.02.31,0,.46-.01.56.8,1.69,1.07,2.77,1.16.16.2.38.38.68.49,5.56,2.06,10.41,5.58,15.18,9.02.19.14.38.21.56.24.18.11.4.19.65.21,3.73.39,7.03,2.44,10.43,3.86,3.8,1.58,7.86,2.65,11.87,3.57,3.95.91,7.95,1.6,11.94,2.36,4.2.8,8.41,1.64,12.7,1.78.59.02,1.35-.48,1.45-1.1.77-5.07,1.08-10.17.85-15.3Z"/>
  <path class="cls-10" d="M385.22,279.93c-.12-.11-.24-.22-.4-.35-.35-.28-.7-.56-1.05-.84-1.22-1-2.6-1.76-3.82-2.75-2.43-1.97-3.93-3.81-6.85-4.92-.62-.9-1.48-1.59-2.59-1.75-6.11-.9-10.93,1.79-15.57,5.57-.08.02-.16.05-.22.1-1.6,1.17-2.38,3.23-1.77,5.15.06.18.17.32.29.44.05.14.08.28.15.42.2.39.66.53,1.07.45.39.55.88,1.01,1.46,1.32,4.64,2.46,9.05,4.89,13.3,7.99,2.08,1.52,4.47,3.09,6.98,3.68.64.75,1.53,1.3,2.68,1.5.65.34,1.43.55,2.34.55.17,0,.31-.03.47-.04.22.03.45.04.68.04,1.91,0,3.25-.88,4.03-2.12.68-.59,1.12-1.39,1.38-2.24.09-.2.17-.42.24-.63.44-.81.65-1.75.64-2.69.02-.09.06-.18.08-.28.13-.74.27-1.48.4-2.21.49-2.7-1.23-5.9-3.92-6.37Z"/>
  <path class="cls-10" d="M424.3,182.81c-1.11-3.09-3.24-6-5.77-8.09-1.31-1.08-2.94-1.38-4.48-2-1.83-.73-3.59-.82-5.55-.73-.42.02-.72.29-.87.63-1.1.1-2.18.29-3.25.93-1.21.73-2.81,2.16-3.01,3.69-1.74,1.98-3.19,4.21-4.28,6.62-.4.88.49,1.67,1.18,1.5.07.09.15.17.25.21,1.9.94,3.81,1.88,5.71,2.82,1.71.84,3.41,1.87,5.21,2.51,1.74.62,3.46.18,5.11-.5,1.64-.67,3.21-1.38,4.6-2.48.11-.09.18-.2.22-.32,1.39-.71,2.64-1.61,3.77-2.73.25-.25.32-.53.29-.78.06-.02.12-.04.19-.06.5-.11.87-.74.7-1.23ZM411.91,179.51c1.44.79,2.42,2.29,2.55,3.92.03.39.23.64.47.79-.77,1-2.29,1.35-3.47,1.58-.8.15-1.64.18-2.39-.19-.79-.38-1.5-.91-2.39-1.06-.17-.57-.2-1.29-.21-1.58,0-.18,0-.35,0-.53.04-.17.07-.34.1-.51.18-1.03.37-2.05.55-3.08,0,0,0-.02,0-.03,1.54-.38,3.49-.02,4.77.68Z"/>
  <g>
    <path class="cls-2" d="M462.99,160.14c3.75-1.84,6.36-5.36,8.8-8.76,4.11-5.7,8.23-11.47,10.95-17.95s3.94-13.82,2.03-20.58c-.28-1-.73-2.09-1.7-2.46-.52-.2-1.1-.15-1.65-.08-2.37.3-4.7.86-6.95,1.65-1.17.41-2.32.88-3.44,1.4-.83.39-2.2,1.5-3.11,1.48-1.79-.04-4.54-2.49-6-3.44-2.02-1.32-4.05-2.66-6.26-3.64-3.15-1.4-6.58-2.05-9.83-3.18-2.08-.72-4.1-1.65-6.21-2.27-3.62-1.07-7.44-1.23-11.21-1.16-12.78.23-26.16,3.38-35.4,12.2-3.96,3.78-7.02,8.5-8.86,13.66-2.58,7.25-2.5,15.94,2.22,22.03.81-1.69,1.61-3.39,2.42-5.08.74-1.56,1.5-3.16,1.68-4.88.24-2.21-.78-4.68-.11-6.82.51-1.63,1.27-3.43,2.01-4.98,1.83-3.84,4.85-6.97,7.79-9.99"/>
    <path class="cls-2" d="M390.17,142.51l2.88,5.88c.51,1.05,1.08,2.16,2.1,2.75.66.38,1.44.5,2.21.49,1.55-.01,3.05-.49,4.52-1,3.9-1.35,7.72-2.94,11.44-4.75,1.06-.52,2.12-1.06,3.06-1.78,1.59-1.22,2.75-2.9,3.89-4.55-.28,4.01-1.34,7.97-3.11,11.59-.61,1.26-1.33,2.49-2.38,3.42,3.78.74,7.64-.53,11.29-1.77,2.37-.81,4.75-1.62,6.95-2.8,2.58-1.38,4.9-3.25,6.78-5.48,1.44-1.7,3.69-2.49,5.11-4.21.49-.59.95-1.22,1.4-1.84.51-.69,1.01-1.38,1.52-2.08,1.76-2.4,3.52-4.8,5.27-7.21,1.03-1.41,2.07-2.84,2.83-4.42,2.19-4.6,7.07-7.21,11.25-10.12"/>
    <path class="cls-2" d="M460.6,143.83c1.4-4.65,5.17-8.15,7.58-12.37,1.47-2.59,2.43-5.44,3.83-8.07s3.37-5.12,6.13-6.24"/>
    <path class="cls-2" d="M381.53,138.5c-1.21-4.99-1.22-10.19-1.22-15.33,0-.85,0-1.71.14-2.55.12-.75.35-1.48.48-2.22.17-.96.18-1.93.28-2.9.17-1.59.57-3.15.98-4.7.35-1.34.7-2.68,1.2-3.97.4-1.02.89-2,1.38-2.98.52-1.04,1.04-2.09,1.57-3.13.64-1.28,1.47-2.71,2.88-2.98.88-.17,1.77.18,2.57.57,3.95,1.91,7.22,4.96,10.42,7.97"/>
    <path class="cls-2" d="M395.04,141.86c.33-6.27,4.11-11.8,8.18-16.59,5.12-6.02,10.91-11.47,17.24-16.2"/>
    <path class="cls-2" d="M433.35,108.64c-6.05,1.67-10.85,6.15-15.38,10.48-3.75,3.59-7.52,7.21-10.49,11.46-1.56,2.23-2.9,4.63-3.97,7.13"/>
    <path class="cls-2" d="M408.87,144.01l4.37-8.1c1.81-3.35,3.66-6.76,6.44-9.36,3.1-2.91,7.4-4.89,9.01-8.83"/>
    <path class="cls-2" d="M445.2,111.98c-1.55.32-2.89,1.3-4.1,2.32-5.36,4.51-9.56,10.39-12.08,16.93"/>
    <path class="cls-2" d="M428.51,144.24c2.77-8.24,7.23-15.91,13.03-22.4"/>
    <path class="cls-2" d="M456.18,115.22c-7.33,6.53-12.03,15.54-15.32,24.79"/>
    <path class="cls-2" d="M473.64,149.92c.93.36,1.27,1.48,1.9,2.26.61.77,1.54,1.23,2.18,1.98.87,1.03,1.09,2.45,1.62,3.69.57,1.35,1.52,2.5,2.23,3.79.47.85.84,1.76,1.22,2.66.66,1.55,1.38,3.07,2.16,4.56.86,1.65,1.8,3.27,2.95,4.73,1.04,1.32,2.29,2.56,2.77,4.17.31,1.03,2.07,2.76,2.82,3.61,1.19,1.36,1.32,3.73,1.82,5.42.71,2.42,1.34,4.86,1.88,7.32,1.08,4.92,1.8,9.92,2.15,14.94.03.09.12-.1.02-.1s-.13.12-.14.22c-.34,3.79-.53,7.59-.55,11.4-.01,2.25.03,4.51.46,6.72.38,1.98,1.06,3.89,1.73,5.78,1.8,5.07,3.65,10.22,6.87,14.53"/>
    <path class="cls-2" d="M492.6,181.85l.29,4.75c.05.8.1,1.61-.01,2.4-.16,1.17-.67,2.26-1.16,3.33-.09-.12-.19-.24-.28-.36-1.66,3.97-3.33,7.96-5.58,11.63-2.57,2.06-4.51,4.89-5.5,8.03-.25.78-.44,1.61-.26,2.41.07.03.07-.12,0-.12s-.12.08-.15.14c-1.09,2.5-1.58,5.25-1.44,7.97.06,1.25.05,2.66.05,3.91"/>
    <path class="cls-2" d="M492.06,166.98c-1.14-5.11-3.51-9.84-5.86-14.52-.99-1.97-1.99-3.97-3.38-5.68-1.15-1.43-2.55-2.63-3.93-3.83"/>
    <path class="cls-2" d="M501.19,182.47c-.16-2.49-1.24-4.84-1.61-7.31-.21-1.39-.19-2.81-.38-4.2-.2-1.43-.61-2.81-1.05-4.19-1.83-5.76-4.06-11.4-6.65-16.86-1.2-2.54-2.75-5.27-5.42-6.12"/>
    <path class="cls-2" d="M483.17,134.5c2.08-.24,3.97,1.17,5.48,2.62,1.56,1.49,3,3.11,4.31,4.83s2.34,4.04,3.8,5.7c1.03,1.18,3.01.84,4.41,1.47,2.02.9,3.68,2.48,5.16,4.08,2.72,2.94,5.21,6.09,7.68,9.23,1.65,2.1,3.31,4.19,4.96,6.29,1.62,2.05,3.23,4.11,4.73,6.25,2.58,3.69,4.8,7.62,6.73,11.68.98,2.06,1.9,4.17,2.4,6.4,1.09,4.77.31,10.03,2.55,14.38,1.51,2.92,1.05,6.31.49,9.55-.19,1.12-.52,2.22-.73,3.34-.29,1.51-.37,3.04-.45,4.57-.13,2.33-.25,4.67-.38,7-.06,1.17-.13,2.35.06,3.51.09.55.23,1.08.29,1.64.06.58.02,1.16,0,1.74-.16,4.56.67,9.11,1.93,13.49s.85,9.49,1.14,14.24c.11.02.06-.2-.05-.18s-.14.16-.16.28c-.65,5.37-1.05,10.77-1.2,16.18"/>
    <path class="cls-2" d="M519.12,175.31c3.2,3.4,3.47,8.52,5.07,12.9.76,2.08,1.84,4.02,2.59,6.1.63,1.75,1.03,3.58,1.42,5.4.31,1.43.62,2.87.93,4.3"/>
    <path class="cls-2" d="M510.13,165.46l4.31,15.75c.46,1.67.92,3.35,1.64,4.93.84,1.85,2.03,3.56,2.56,5.52.27,1,.35,2.03.47,3.05.41,3.56,1.2,7.07,2.26,10.49.75,2.43,1.63,4.82,2.12,7.32.35,1.79.49,3.62.64,5.44.89,10.64,2.27,21.23,4.15,31.74.63,3.55-.38,7.15.65,10.61.36,1.21.85,2.39,1.08,3.64.25,1.34.21,2.73.17,4.09"/>
    <path class="cls-2" d="M509.75,233.42c1.4,2.83,1.96,5.99,2.3,9.12.87,8.12.15,16.89-4.69,23.47-1.37,1.87-3.1,3.62-3.59,5.88-.37,1.69-.01,3.54-.78,5.08,1.03-8.76-.41-17.79-4.1-25.8-1.63-3.54-3.7-6.88-5.11-10.52-.65-1.66-1.15-3.38-1.66-5.09-3.17-10.71-6.37-21.78-5.03-32.87"/>
    <path class="cls-2" d="M512.41,289.15c3.34,4.45,6.08,9.36,8.11,14.54,1.85,4.73,3.09,10.16,1.03,14.8-3.07-5.76-6.14-11.52-9.22-17.28-1.99-3.73-3.99-7.48-6.61-10.8-1.16-1.48-2.44-2.86-3.83-4.13-.92,3.52-1.84,7.04-2.76,10.56.48-3.44.15-6.99-.95-10.28-1.16-3.47-3.15-6.61-4.31-10.07-.89-2.66-1.28-5.47-1.66-8.25-.36-2.6-.72-5.22-.69-7.84.07-6.02,2.18-11.93,1.78-17.94"/>
    <path class="cls-2" d="M525.45,302.14c-.37-3.11-1.54-6.13-3.37-8.68-.69-.96-1.47-1.85-2.06-2.88-.42-.73-.74-1.51-1.05-2.29-1.03-2.54-2.06-5.08-3.09-7.61-2.44-6.02-4.92-12.19-5.25-18.68"/>
    <path class="cls-2" d="M509.25,228.47l-.85-10.78c-.03-.43-.07-.85-.1-1.28-.13-1.61-.25-3.22-.41-4.83-.46-4.6-1.21-9.17-1.67-13.78"/>
    <path class="cls-2" d="M522.24,318.65c1.29.08,2.63-.04,3.78-.63s2.1-1.68,2.26-2.96c.06-.47.01-.96.14-1.42.15-.55.54-1,.81-1.51.38-.7.54-1.5.69-2.29.6-3.18,1.14-6.41.94-9.65-.08-1.31-.28-2.62-.68-3.86-.18-.56-.4-1.11-.52-1.69-.11-.52-.14-1.05-.19-1.58-.32-3.71-1.36-7.32-2.4-10.9-1.62-5.59-3.67-11.01-5.46-16.55-.35-1.08-.69-2.16-.85-3.28-.16-1.08-.14-2.18-.24-3.27-.09-1.01-.29-2-.48-3-.45-2.36-.9-4.78-.52-7.15.18-1.09-.49-2.1-.66-3.19-.23-1.43-.21-2.88-.41-4.31-.18-1.28-.54-2.53-.67-3.82-.11-1.07-.06-2.15-.05-3.22,0-1.53-.08-3.07-.19-4.6-.35-4.98-.94-9.97-2.28-14.78-.8-2.87-.65-5.71-1.2-8.64-.75-3.96-.73-8.19-2.62-11.75-1.31-2.48-1.15-5.34-2.5-7.8-.63-1.15-1.38-2.26-1.66-3.54"/>
    <path class="cls-2" d="M529.71,313.52c1.59,2.63,4.08,4.56,6.52,6.43.4.3.8.61,1.25.81.91.4,1.94.34,2.89.64.78.25,1.47.73,2.22,1.06,1.95.86,4.18.66,6.3.44-1.87-1.36-3.38-3.15-4.85-4.93-.77-.93-1.54-1.87-2.02-2.98-.3-.7-.48-1.44-.66-2.18-.48-1.98-.96-3.98-1.01-6.02-.04-2.13.39-4.23.83-6.31.48-2.3.96-4.61,1.76-6.83.54-1.5,1.22-2.96,1.47-4.53.27-1.69.03-3.45.42-5.12.44-1.9,1.69-3.74,1.23-5.63-.58-2.44-.33-4.71-.42-7.21-.07-2-.04-4-.11-5.99-.07-2.11-.24-4.22-.52-6.32-.19-1.4-.42-2.8-.84-4.16-.16-.5-.34-1-.43-1.52-.13-.73-.08-1.48-.07-2.22.05-2.5-.28-5.01-.99-7.41-.5-1.69-.6-3.45-.83-5.19-.35-2.57-.14-5.18-.18-7.77-.05-2.76-.39-5.5-.72-8.23-.28-2.33-.55-4.72-.1-7.02.84-4.29.15-8.41-.52-12.74-.61-3.97-2.18-7.72-3.73-11.42-.87-2.07-1.74-4.15-3.08-5.95s-3.18-3.31-5.37-3.79"/>
    <path class="cls-2" d="M462.92,220.55c-3.58,7.97-8.13,15.51-13.52,22.39-.4-.04-.78-.28-.98-.63-.33.92-1.09,1.6-1.83,2.23-5.82,5-12.06,9.85-19.41,12.06-4.1,1.23-8.45,1.62-12.43,3.21-2.08.84-4.02,1.99-6.15,2.68-2.29.74-4.73.91-7.01,1.67-6.97,2.35-11.4,9.86-18.53,11.67"/>
    <path class="cls-2" d="M389.47,188.1c1.3.87,3.09.93,4.44.17,1.53-.86,2.36-2.56,3.1-4.15,1.3-2.82,2.6-5.69,4.61-8.07s4.85-4.23,7.95-4.32c2.88-.09,5.59,1.32,7.99,2.92,2.69,1.79,5.28,4,6.57,6.96.2.47.37.97.31,1.47-.08.65-.54,1.19-.99,1.67-2.49,2.61-5.51,4.71-8.82,6.14-.95.41-1.95.77-2.98.73-1.02-.03-1.99-.44-2.93-.85-4.01-1.76-7.97-3.65-11.86-5.67"/>
    <path class="cls-2" d="M406.92,182.25c-.08.64-.15,1.33.15,1.9.2.38.54.67.91.9.89.56,1.97.81,3.02.69.93-.1,1.81-.47,2.63-.92.9-.49,1.77-1.1,2.29-1.98.76-1.29.61-3-.19-4.27-1.06-1.7-3.95-3.49-5.95-2.42s-2.63,4.17-2.86,6.09Z"/>
    <path class="cls-2" d="M393.05,166.42c2.1.08,3.7-1.75,5.58-2.68,1.2-.6,2.55-.82,3.87-1.04,1.84-.3,3.67-.59,5.51-.89,1.33-.21,2.69-.42,4.01-.19,1.05.19,2.02.65,2.98,1.1,5.09,2.4,10.59,5.23,12.77,10.41"/>
    <path class="cls-2" d="M379.58,247.82c-.01-6.41,3.41-12.73,8.78-16.23,3.14-2.05,6.8-3.14,10.43-4.12"/>
    <path class="cls-2" d="M332.19,220.35c2.23,1.22,3.95,3.17,5.62,5.09.59.68,1.2,1.38,1.5,2.23.28.77.28,1.61.29,2.42.01,1.96-.06,4.14-1.44,5.53-.61.62-1.4,1-2.15,1.43-.99.57-1.92,1.24-2.92,1.79-3.25,1.8-7.06,2.31-10.77,2.57-2.45-2.8-2.64-7.06-1.37-10.55s3.8-6.38,6.39-9.05c3.1-3.19,6.73-6.36,11.16-6.74,1.51-.13,3.11.11,4.31,1.03,2.44,1.88,2.23,5.6,1.36,8.55-.64,2.19-1.51,4.31-2.38,6.42-.52,1.25-1.16,2.64-2.44,3.09"/>
    <path class="cls-2" d="M289.87,219.5c1.39.04,2.65-.76,3.73-1.63,2.57-2.06,4.7-4.68,6.21-7.61.36-.71.69-1.45.73-2.24"/>
    <path class="cls-2" d="M380.25,137.58c-3.8,3.55-7.98,6.7-12.45,9.38-1.25.75-2.53,1.47-3.62,2.44-1.79,1.6-2.97,3.82-4.86,5.31-4.32,3.39-10.98,1.98-15.5,5.11-4.96,3.43-5.57,11.03-10.52,14.47-1.94,5.05-7.32,7.81-10.65,12.07-.68.87-1.28,1.8-2.01,2.63-.68.77-1.48,1.43-2.28,2.07-2.09,1.66-4.27,3.21-6.45,4.75-2.53,1.79-5.07,3.58-7.6,5.37-2.15,1.52-4.3,3.04-6.61,4.31-2.36,1.3-4.93,2.38-6.79,4.33-1.29,1.36-2.48,3.02-3.51,4.59-.73,1.12-1.46,2.23-2.2,3.35-.85,1.29-1.7,2.59-2.4,3.97-1.94,3.8-2.71,8.06-3.46,12.26-.31,1.75-.62,3.5-.93,5.25-.6,2.34-1.01,4.73-1.23,7.13-.14,1.54-.2,3.13.29,4.61s1.62,2.81,3.13,3.15c2.25.51,4.14,1.76,6.23,2.74,12.27,5.73,25.03,11.58,38.58,11.69,2.42.02,4.85-.15,7.22-.65,3.1-.66,6.06-1.88,8.9-3.28,2.39-1.18,4.72-2.5,7.04-3.81,1.1-.62,2.2-1.25,3.33-1.82,4.3-2.21,9.01-3.78,13.85-3.9s9.81,1.33,13.43,4.54c-.66-.58-7.5,4.78-8.17,5.48-2.66,2.81,1.71,5.07,3.84,6.45,1.6,1.03,3.07,2.25,4.53,3.46,2.63,2.18,5.26,4.36,7.89,6.53"/>
    <path class="cls-2" d="M289.47,259.63c-2.5,3.36-5.02,6.74-6.94,10.47s-3.24,7.85-3.17,12.04c.02,1.56.26,3.16,1.06,4.5.55.92,1.34,1.66,2.17,2.34,3.61,2.94,8.07,4.72,12.63,5.66s9.25,1.08,13.91,1.01"/>
    <path class="cls-2" d="M280.16,287.91c-.38,2.85.03,5.81,1.17,8.45.41.94.9,1.84,1.39,2.74.51.93,1.03,1.87,1.66,2.72.87,1.18,1.94,2.19,3.04,3.15,3.91,3.41,8.42,6.3,13.47,7.5,1.32.31,2.67.51,4.03.68,6.29.78,13,.87,18.59-2.11,3.6-1.92,6.44-4.96,9.31-7.85,5.71-5.76,11.79-11.16,18.19-16.14,1.04-.81,2.2-.99,3.32-1.68.28-.17.55-.34.85-.47.41-.19.85-.31,1.29-.41.54-.13,1.09-.23,1.64-.32"/>
    <path class="cls-2" d="M295.83,262.19c-1.7,2.62-3.41,5.29-4.33,8.28s-.94,6.39.65,9.08c.38.64.84,1.23,1.37,1.75,3.02,2.96,7.67,3.24,11.89,3.36,2.01.05,4.01.11,6.02.16,3.22.09,5.99.23,8.77-1.42s5.25-3.34,7.62-5.65c1.7-1.65,3.37-3.34,5-5.05,1.11-1.16,2.25-2.41,2.67-3.96.14-.52.43-1.23.95-1.1.26.07.41.33.55.56,1.24,2.01,3.67,2.7,5.55,3.92s3.49,2.9,5.26,4.27l3.79,2.95c2.19,1.71,4.39,3.42,6.78,4.84,1.6.95,3.28,1.77,4.84,2.8,1.55,1.02,2.97,2.24,4.49,3.3,2.88,2.02,6.12,3.48,9.33,4.94-.76-2.65-.51-5.58.67-8.07s3.29-4.53,5.82-5.63c1.2-.52,2.62-.82,3.8-.26,1.03.49,1.68,1.56,1.94,2.67s.16,2.27.05,3.4c-.17,1.69-.4,3.39-1.03,4.97s-1.7,3.04-3.2,3.83c-2.61,1.37-5.79.47-8.59-.46"/>
    <path class="cls-2" d="M327.16,279.79c1.26-.58,2.52-1.15,3.79-1.71.51-.22,1.01-.44,1.52-.66.28-.12.56-.25.84-.37,1.22-.53,2.45-1.07,3.71-1.5.75-.26,1.51-.47,2.25-.77.36-.14.71-.3,1.07-.43,1.09-.39,2.3-.47,3.41-.15"/>
    <path class="cls-2" d="M357.56,257.9c.77.81,1.6,1.57,2.48,2.26,2.97,2.34,6.55,4,8.92,6.95"/>
    <path class="cls-2" d="M303.39,265.49c-1.6.6-2.88,1.85-3.93,3.21s-1.92,2.84-3,4.18c-.49.61-1.03,1.18-1.46,1.83-1.06,1.58-1.46,3.49-1.81,5.36"/>
    <path class="cls-2" d="M308.21,281.04l1.91-5.2c.47-1.29.95-2.59,1.69-3.75.84-1.32,2.01-2.41,2.75-3.79"/>
    <path class="cls-2" d="M443.41,285.48c-2.14-4.15-5.76-7.36-9.63-9.98-2.89-1.95-5.97-3.63-9.17-5.02-2.24-.98-4.55-1.81-6.85-2.64-2.08-.75-4.16-1.51-6.25-2.26-2.08-.75-4.18-1.51-6.37-1.77"/>
    <path class="cls-2" d="M357.53,159.82c-2.32,3.25-6.04,5.21-9.74,6.71s-7.59,2.69-10.91,4.92"/>
    <path class="cls-2" d="M437.52,342.68c12.08-3.6,24.32-6.67,36.67-9.21,1.77-.36,3.54-.72,5.3-1.09,12.15-2.56,24.11-6.06,35.73-10.45,2.03-.77,4.15-1.63,5.54-3.3"/>
    <path class="cls-2" d="M430.67,283.97c-4.1-3.47-9.04-5.93-14.28-7.13-1.69-.39-3.45-.65-5.16-.37-1.64.26-3.17.99-4.67,1.71-2.25,1.08-4.5,2.17-6.58,3.54-3.91,2.57-7.11,6.07-10.26,9.53"/>
    <path class="cls-2" d="M376.31,296.92c-2.53,1.92-3.88,4.96-5.14,7.87-2.83,6.58-5.66,13.16-8.05,19.91-1.91,5.41-3.54,10.96-6.16,16.06-2.62,5.11-6.37,9.84-11.47,12.47-1.89.98-3.93,1.65-5.84,2.59-7.12,3.51-12.02,10.6-19.25,13.87-4.14,1.87-8.75,2.35-13.27,2.81-7.83.79-15.65,1.59-23.48,2.38-3.87-.32-7.97.29-11.77,1.07-1.26.26-2.5.57-3.74.89-5.58,1.42-11.17,2.85-16.75,4.27-10.56,2.69-21.15,2.75-31.97,4.05-13.81,1.66-27.77,2.61-41.63,1.51-9.74-.77-19.38-2.56-29.11-3.46-27.48-2.53-55.67,2-82.49-4.47"/>
    <path class="cls-2" d="M100.76,19.25c-2.83,4.96-5.73,10.16-6,15.87-.08,1.66.39,3.74,2,4.14,1.3.32,2.53-.67,3.46-1.64,5.02-5.2,8.62-11.75,10.32-18.77.66-2.71,1.71-8.51-2.84-7.66-3.11.58-5.55,5.62-6.94,8.06Z"/>
    <path class="cls-2" d="M248.32,120.83c-4.63-7.77-9.68-15.29-15.12-22.52-14.04-18.68-30.68-35.41-49.28-49.55-10.98-8.35-22.62-15.79-34.25-23.22-1.48-.94-2.95-1.89-4.43-2.83-3.63-2.32-7.25-4.63-10.88-6.95-2.72-1.74-5.44-3.47-8.16-5.21-1.7-1.09-5.85-2.73-6.82-4.49-1.51-2.74.33-6.99-5.04-5.1-5.46,1.92-10.64,5.91-14.61,10.04-8.17,8.49-13.03,20.23-12.82,32.05.02,1.14.12,2.37.88,3.22.89.99,2.37,1.13,3.7,1.2,4.95.25,6.22.67,10.39,3.56,3.58,2.48,7.22,4.89,11.04,7,16.79,9.29,36.78,13.01,51.42,25.42,3.25,2.76,6.17,5.9,9.07,9.02,13.88,14.94,27.93,30.12,37.33,48.21"/>
    <path class="cls-2" d="M98.68,47.84c3.46-.4,6.75-2.13,9.06-4.74,1.38-1.56,2.4-3.41,3.4-5.23,3.02-5.49,6.05-10.98,8.5-16.75.65-1.53,1.26-3.08,1.54-4.72.45-2.59.03-5.33-1.16-7.67"/>
    <path class="cls-2" d="M351,350.97c5.03,2.06,9.5,5.26,14.22,7.96,8.81,5.05,18.57,8.43,28.62,9.9"/>
    <path class="cls-2" d="M78.16,205c16.72-4.37,33.45-8.74,50.17-13.12,10.22-2.67,20.51-5.37,30.02-9.95,28.74-13.85,47.7-43.48,76.93-56.28,11.09-4.86,23.15-7.03,35.11-8.91,36.95-5.81,74.28-9.17,111.68-10.07"/>
    <path class="cls-2" d="M131.12,192.93c2.22,5.42,6.87,9.79,12.42,11.68,2.11.72,4.34,1.1,6.36,2.02,3.32,1.52,5.82,4.39,8.96,6.25,4.26,2.51,9.37,3,14.11,4.39,7.26,2.12,13.76,6.41,21.07,8.35,3.27.87,6.65,1.26,9.96,1.98,8.29,1.8,16.04,5.65,24.38,7.24,3.14.6,6.35.87,9.41,1.8,3.52,1.08,6.72,2.99,10.19,4.24,3.38,1.22,6.96,1.77,10.52,2.32,5.92.92,11.84,1.83,17.76,2.75"/>
    <path class="cls-2" d="M218.69,136.41c15.15.7,29.45,8.46,44.62,8.3,1.81-.02,3.66-.15,5.4.33,2.17.6,3.98,2.08,6.1,2.83,1.46.52,3.01.68,4.55.82,15.81,1.48,31.71,1.66,47.51,3.2,3.21.31,6.46.7,9.42,1.97,2.59,1.12,4.88,2.91,6.59,5.16"/>
    <path class="cls-2" d="M681.24,222.53c-7.93,3.31-5.03,5.43-13.39,7.43-2.39.57-4.9.67-7.22,1.49-2.37.84-4.4,2.39-6.52,3.74-4.27,2.72-9.03,4.67-13.97,5.76-.31-6.73-.92-14.15-5.72-18.88-2.8-2.75-6.62-4.15-10.31-5.46-2.06-.73-4.17-1.48-6.35-1.45-1.84.02-3.63.59-5.36,1.24-3.49,1.3-6.86,2.93-9.93,5.04-3.29,2.26-6.21,5.04-8.78,8.1-2.32,2.76-4.35,5.75-6.19,8.85-7.33,12.39-11.39,26.7-11.66,41.1-.12,6.19,2.25,12.13,6.14,16.95.76.94,1.59,1.84,2.62,2.48,1.83,1.13,4.07,1.3,6.21,1.43,6.88.44,14.08.81,20.35-2.06,6.61-3.03,11.18-9.24,14.73-15.59,3.37-6.02,6.09-12.38,8.8-18.72.93-2.18,1.87-4.36,2.66-6.6,1.87-5.26,2.95-10.78,3.43-16.34"/>
    <path class="cls-2" d="M583.8,299.58c-.67.41-1.55.26-2.24-.11s-1.27-.91-1.93-1.34c-1.69-1.1-3.79-1.33-5.71-1.97-3.99-1.32-9.74-5.37-11.35-9.46-1.99-5.07-.16-12.84.56-18.03,2.04-14.64,8.71-28.4,16.75-40.64,2.36-3.59,4.88-7.13,8.07-10.01,7.38-6.64,17.54-9.03,27.24-11.18"/>
    <path class="cls-2" d="M541.97,311.37c6.1-8.16,14.5-14.56,23.98-18.28"/>
    <path class="cls-2" d="M614.77,206.93c1.95.09,3.72,1.07,5.42,2.03,5.72,3.24,11.81,6.87,14.47,12.88"/>
    <path class="cls-2" d="M541.98,177.68c10.79,10.65,18.95,23.96,23.54,38.41-6.02,8.32-14.45,14.88-24,18.68"/>
    <path class="cls-2" d="M400.24,103.6h7.35"/>
    <path class="cls-2" d="M680.57,223.01c.09,1.17,7.84-9.99,6.3-13.21-3.11-6.51-8.78-11.44-13.17-17.16-3.75-4.89-7.51-9.78-11.67-14.31-11.27-12.27-25.82-22.2-41.63-27.61s-33.53,7.32-50.37,2.74c-8.84-2.41-16-8.7-23.96-13.23-7.15-4.06-15.01-6.7-22.83-9.23-11.56-3.74-23.19-7.27-34.88-10.61,8.98-.71,19.95,1.36,28.74,3.32,10.38,2.31,20.77,4.63,31.15,6.94,3.66.81,7.36,1.65,10.68,3.39,2.48,1.3,4.71,3.09,7.34,4.04,2.37.86,4.93.98,7.45,1.2,12.12,1.02,24.06,4.2,35.08,9.36"/>
    <path class="cls-2" d="M173.86,276.23c2.37-1.13,4.67-2.53,7.26-2.96s5.62.39,6.85,2.71c.59,1.11.69,2.42.55,3.67-.4,3.57-2.65,6.75-5.5,8.94s-6.28,3.49-9.72,4.54c-8.81,2.68-18.08,3.85-27.28,3.45-2.02-.09-4.21-.32-5.69-1.7-.92-.86-1.45-2.06-1.79-3.27-.89-3.22-.58-7.2,1.14-10.11,2.84-4.8,3.65-3.39,8.46-2.54,8.85,1.55,17.48,1.24,25.73-2.71Z"/>
    <path class="cls-2" d="M69.3,213.15c3.93-1.92,8.43-2.94,12.71-2.07.57.12,1.19.3,1.52.78.25.35.29.8.3,1.23.09,4.29-3.01,7.99-6.39,10.63-4.69,3.66-15.77,18.33-21.19,10.16-5.77-8.69,6.92-17.73,13.04-20.73Z"/>
    <path class="cls-2" d="M542.32,177.84c-6.75-3.1-13.86-5.4-21.14-6.84"/>
    <path class="cls-2" d="M491.45,250.61c-6.68-.06-13.09,2.39-19.31,4.81-4.03,1.57-8.07,3.14-12.1,4.71-4.07,1.58-8.23,3.22-11.46,6.16-4.21,3.83-6.88,9.84-12.34,11.44"/>
    <path class="cls-2" d="M412.61,285.81c-6.52.96-13.34,2.34-18.34,6.64-4.05,3.48-6.46,8.56-7.64,13.77s-1.26,10.59-1.32,15.93c-.06,4.88-.12,9.76-.18,14.64-.11,8.9-.19,17.98,2.52,26.46.49,1.52,1.09,3.06,2.22,4.18,1.49,1.48,3.65,2.02,5.7,2.5,3.65.85,7.54,1.69,11.06.41,2.41-.88,4.36-2.67,6.49-4.1,2.3-1.55,4.84-2.7,7.18-4.18,6.94-4.4,11.75-11.44,15.93-18.51,3.7-6.26,7.17-13.14,6.69-20.4-.2-3.11-1.14-6.14-1.4-9.25-.31-3.68.32-7.44-.5-11.05-1.32-5.8-6.07-11.51-9.22-16.46s-14.03-1.33-19.19-.57Z"/>
    <path class="cls-2" d="M477.55,225.46c.73,4.48,3.1,8.5,5.43,12.4,2.91,4.87,5.82,9.75,8.74,14.62"/>
    <path class="cls-2" d="M428.38,255.86c2.27,7.6,5.3,14.98,9.02,21.98"/>
    <path class="cls-2" d="M300.98,311.87c-18.48,6.26-37.18,11.83-56.07,16.71-13.13,3.39-26.47,6.46-40.03,6.66-9.04.13-18.04-1.02-27.07-1.48-21.49-1.09-43.03,1.75-64.53.85-19.07-.8-37.88-4.54-56.6-8.26-10.1-2.01-20.32-4.06-29.57-8.58-9.25-4.52-17.56-11.88-21-21.58-5.2-14.67,1.7-30.9,10.74-43.56,15.7-22,38.4-38.91,63.96-47.67"/>
    <path class="cls-2" d="M66.79,379.73c-13.82-8.77-27.63-17.55-41.45-26.32-5.88-3.74-11.83-7.53-16.59-12.61s-8.28-11.7-8.24-18.66c.03-5.23,4.66-18.62,6.62-23.46"/>
    <path class="cls-2" d="M11.31,333.59c-.07.28-.15.59-.05.86.12.33.46.53.78.69,5.98,3.08,12.52,5.28,17.66,9.61.66.56,1.31,1.16,2.1,1.53.72.34,1.52.47,2.29.64,3.2.72,6.14,2.25,9.19,3.45,3.49,1.37,7.13,2.3,10.76,3.23,2.38.61,4.75,1.22,7.14,1.76,6.64,1.52,13.39,2.57,20.18,3.13,1.06-7.51,1.55-10.35,1.22-17.93-6.62-2.26-13.67-2.37-20.64-2.88-12.31-.9-24.54-8.18-36.56-10.98-4.66-1.09-9.05-2.81-11.6-6.81-1.92,2.41-1.68,10.66-2.47,13.69Z"/>
  </g>
</svg>