<?xml version="1.0" encoding="UTF-8"?>
<svg id="Layer_1" data-name="Layer 1" xmlns="http://www.w3.org/2000/svg" viewBox="0 0 213.11 354.7">
  <defs>
    <style>
      .cls-1 {
        fill: #d8d5d2;
      }

      .cls-1, .cls-2, .cls-3, .cls-4, .cls-5, .cls-6, .cls-7, .cls-8, .cls-9, .cls-10, .cls-11 {
        stroke-miterlimit: 10;
      }

      .cls-1, .cls-4, .cls-5, .cls-7 {
        stroke: #532c13;
      }

      .cls-2 {
        stroke: #766e70;
      }

      .cls-2, .cls-7, .cls-9 {
        fill: none;
      }

      .cls-3 {
        fill: #eae1e4;
        stroke: #bb2430;
      }

      .cls-4 {
        fill: #422412;
      }

      .cls-5 {
        fill: #995725;
      }

      .cls-6 {
        fill: #d7a6c4;
        stroke: #ae6fa1;
      }

      .cls-8 {
        fill: #cd9a50;
        stroke: #704322;
      }

      .cls-9 {
        stroke: #422412;
      }

      .cls-10 {
        fill: #fff;
      }

      .cls-10, .cls-11 {
        stroke: #000;
      }

      .cls-11 {
        fill: #332e2f;
      }
    </style>
  </defs>
  <path id="Kropp" class="cls-8" d="M54.43,89.2c3.11.89,3.49,8.97,4.79,11.92.44.99-4.81,3.07-4.67,4.15,1.22,9.35-1.71,18.47.59,27.61,1.3,5.18,2.77,10.31,4.24,15.44.69,2.42,1.46,4.97,3.32,6.66-.73.16-.71,1.2-.5,1.92,2.48,8.32,7.61,15.83,14.47,21.16,3.8,2.95,16.38-1.07,20.63,1.19,5.02,2.67,3.42,11.57,8.36,8.74,19.05-10.91,44.39-22.66,57.99-3.16.53.76.62,3.9,1.49,4.58.52.41.56,1.17.67,1.82,2.01,12.25,5.62,24.23,10.69,35.56-9.46.93-18.91,1.86-28.37,2.8-2.49.25-5.04.49-7.48-.09s-4.79-2.13-5.64-4.49c-.55-1.53-.51-3.4-1.7-4.51-.65-.6-1.55-.85-2.41-1.04-9.55-2.15-19.9-.49-28.29,4.55-1.44.87-2.91,1.92-3.53,3.48-1.08,2.71.52,6.45-1.7,8.33-.63.53-1.44.77-2.24.99-9.19,2.57-19.07,4.74-28.13,1.76-.61-.2-1.24-.44-1.66-.93-.49-.57-.6-1.37-.64-2.12-.24-4.08.69-8.22-.16-12.22-.55-2.6-1.83-4.98-2.64-7.51-2.03-6.34-1.04-13.2-.02-19.78-12.05-1.77-22.89-10.28-27.46-21.57-2.57-6.34-3.23-13.27-3.74-20.09-.52-6.96-.92-13.93-1.18-20.9.54,7.39,1.36,14.76,1.9,22.15-.08-.41-.61.18-.51.59,1.46,6.44,2.93,12.88,4.39,19.32,2.54,3.5,5.08,7,7.62,10.5,1.22,1.69,2.51,3.62,2.17,5.68-.28,1.66-1.59,3.02-1.82,4.68-.06.43-.05.9-.32,1.25-.26.34-.7.46-1.12.56-10.01,2.36-20.48,2.79-30.65,1.27-.29-.04-.65-.15-.7-.44s.55-.37.46-.09l.04.23c-1.67-3.66-.68-8.04-2-11.83-.37-1.05-.91-2.04-1.25-3.1-.55-1.72-.54-3.56-.53-5.36.02-3.18.05-6.35.07-9.53.02-2.13.03-4.27.41-6.36.37-2.06,1.09-4.04,1.53-6.09.61-2.81.68-5.7.85-8.57.34-5.71,1.08-11.39,1.82-17.06.23-1.75.46-3.51.99-5.19.49-1.54,1.22-2.99,1.94-4.44l5.6-11.11c.82-1.64,3.16-1.93,4.68-2.95,1.63-1.1,3.25-2.19,4.88-3.29,3.88-2.61,20.57-12.45,24.45-15.06"/>
  <path id="Mann" class="cls-5" d="M181.89,169.19c-1.19-2.39-21.36-144.01-18.75-144.52-4.55-4.09-7.84-9.57-9.33-15.5-5.03,7.37-16.07,9.79-23.73,5.21-5.69-3.41-9.02-9.67-14.05-14,1.39,1.2-4.27,9.01-5.12,9.98-2.63,2.99-6.02,5.33-9.78,6.66-8.75,3.08-13.68-5.02-21.13-7.59-.75-.26-1.58-.43-2.33-.16-1.02.36-1.6,1.42-2.04,2.41-1.69,3.81-2.65,7.95-2.81,12.12-.06,1.54-.04,3.2-.92,4.47-.91,1.32-2.57,1.89-4.13,2.27-5.31,1.29-10.91,1.4-16.26.3.4,8.3.8,16.59,1.21,24.89.22,4.59.24,9.74-2.95,13.04-3.32,3.43-8.73,3.43-13.5,3.19,1.72,5.03,7.95,6.58,11.96,10.07,5.26,4.58,6.33,12.77,3.76,19.24s-8.18,11.35-14.35,14.6c3.78,1.83,7.61,3.71,10.71,6.53s5.44,6.79,5.33,10.98c-.14,5.72-4.53,10.29-8.46,14.45-.81.85-1.64,1.79-1.81,2.95-.27,1.88,1.41,3.58,3.25,4.03s3.77-.03,5.6-.52c5.78,2.39,7.45,11.22,2.94,15.55-2.94,2.83-7.99,4.28-8.43,8.33,5.35,1.47,11.15,1.23,16.36-.66,2.96-.42,6.26-.76,8.7.97,4.7,3.33,2.49,11,5.39,15.97,2.15-3.32,4.35-6.7,7.39-9.24s7.09-4.17,10.97-3.38c6.98,1.41,10.2,9.33,12.28,16.14-1-7.78,7.91-13.98,15.71-13.04s14.11,6.65,19.29,12.54c1.94-4.06,4.09-8.01,6.44-11.84.43-.69.91-1.43,1.67-1.72,1-.38,2.09.12,3.06.57,5.27,2.45,11.13,3.65,16.94,3.47-.76-3.45-1.11-6.99-1.02-10.52,4.03,1.05,8.24,1.35,12.38.91-.14-3.05-.29-6.1-.43-9.14"/>
  <g id="stövlar">
    <path id="stövlar-2" data-name="stövlar" class="cls-11" d="M9.79,193.98l-5.44,1.24c-1.18.27-2.71,1.28-2.05,2.3.28.43.85.56,1.37.64,12.77,2.11,25.89,2.15,38.68.11.57-.09,1.2-.17,1.68.13.59.37.73,1.15.8,1.84,2.5,22.1-1.98,44.58.79,66.65.24,1.9.54,3.82,1.3,5.58,1.33,3.05,3.93,5.33,5.94,7.98,3.07,4.03,4.81,9.04,4.92,14.1.03,1.32-.13,2.8-1.15,3.64-.57.47-1.32.65-2.04.82-9.92,2.23-20.12,3.22-30.29,2.92-3.58-.11-7.53-.54-9.95-3.17-1.55-1.68-2.49-4.25-4.71-4.8-.95-.24-2.01-.04-2.88-.49-1.15-.59-1.52-2.03-1.77-3.3-2.24-11.5-4.48-23.37-2.09-34.84.34-1.64.78-3.29.74-4.97-.04-1.53-.47-3.01-.79-4.5-1.76-8.11-.31-16.55-.79-24.84-.42-7.33-2.35-14.67-1.21-21.93.24-1.51.71-3.16,2.01-3.98l6.93-1.14Z"/>
    <path class="cls-11" d="M56.38,237.11c-1.56,1.9-1.51,4.62-1.18,7.05.54,3.98,1.61,7.88,3.18,11.58-1.19,5.66.78,11.43,2.05,17.07,1.81,8.04,2.23,16.33,2.82,24.55.54,7.59,1.23,15.18,2.47,22.7.96,5.82,2.25,11.59,3.87,17.27.28.98.59,2,1.33,2.7,1.39,1.33,3.84,1.11,5.06,2.59.39.48.6,1.09.85,1.66,1.42,3.19,4.41,5.46,7.65,6.75s6.75,1.73,10.21,2.15c7.73.95,15.73,1.87,23.19-.37,2.24-.68,4.47-1.68,6.04-3.43,3.1-3.46,2.78-8.69,2.23-13.3-.46-3.9-1.22-8.25-4.43-10.51-1.12-.79-2.45-1.24-3.64-1.91-3.18-1.79-5.26-5.11-6.33-8.59s-1.23-7.17-1.39-10.82c-.4-9.08-.79-18.16-1.19-27.24-.64-14.62-1.28-29.3-4.02-43.68-1.66-1.31-4.14-.88-5.97.19s-3.3,2.66-5.12,3.74c-3.75,2.24-8.41,2.05-12.77,1.79-3.99-.24-7.97-.47-11.96-.71-1.35-.08-3.02-.29-4.17-1.07-.84-.57-1.25-2.01-2.05-2.41-1.9-.95-5.5.77-6.72,2.25Z"/>
    <path class="cls-11" d="M131.44,232.26c-.47,2.82.38,5.66,1.17,8.4,4.13,14.37,6.82,29.11,9.5,43.82,2.17,11.89,4.34,23.77,6.5,35.66,1.14,6.25,3.04,13.48,8.91,15.89,2.34.96,5.01.97,7.31,2.05,3.09,1.46,5.01,4.62,7.82,6.55,2.54,1.75,5.65,2.4,8.7,2.83,2.85.4,5.76.63,8.61.19,3.76-.58,7.24-2.29,10.64-3.97,2.53-1.25,5.14-2.56,6.94-4.73,3.8-4.56,2.89-11.53.13-16.78-2.76-5.26-7.04-9.58-9.94-14.76-2.95-5.26-4.39-11.22-5.53-17.15-3.21-16.72-4.28-33.76-5.34-50.75-.18-2.87-.36-5.74-.54-8.6-.16-2.49-.55-5.37-2.69-6.63-2.64-1.55-5.83.42-8.66,1.6-4.21,1.76-8.93,1.72-13.49,1.64-6.26-.1-12.53-.2-18.79-.3-4.81-.08-10.19-1.38-11.26,5.04Z"/>
    <path class="cls-11" d="M119.84,282.62c1.91,3.74,2.62,7.98,2.95,12.17.03.37.05.76-.08,1.11-.25.66-.97,1-1.62,1.26-3.36,1.35-6.82,2.43-10.34,3.24-.65-5.73-2.91-14.83-.94-20.35,2.45-6.87,8.05-1.34,10.04,2.58Z"/>
  </g>
  <g id="Rött_till_stövlar" data-name="Rött till stövlar">
    <path class="cls-3" d="M154.24,253.62c.01.08.03.17.09.22.06.05.15.06.23.06,5.36.25,10.73-.24,16.07-.8,1.41-.15,2.83-.3,4.21-.65.8-.2,1.58-.47,2.4-.6,1-.16,2.03-.1,3.01-.34.88-.22,1.69-.67,2.48-1.12.14-.08.28-.16.35-.3.09-.16.06-.36.03-.55-.11-.7-.23-1.39-.34-2.09-.49-2.96-.97-5.93-1.46-8.89-.03-.19-.07-.4-.22-.53-.1-.08-.23-.12-.35-.14-2.24-.46-4.48.57-6.66,1.23-2.34.7-4.77.99-7.2,1.28-3.46.41-6.92.82-10.39,1.23-1.02.12-3.22-.12-3.47,1.07-.3,1.42.34,3.62.5,5.07.22,1.95.46,3.9.74,5.84Z"/>
    <path class="cls-3" d="M71.23,261.11c.07.38.16.79.47,1.03.24.18.57.21.88.23,3.6.18,7.21-.19,10.8-.56,3.53-.36,7.09-.73,10.47-1.78,2.34-.72,4.64-1.78,7.09-1.84-.05-3.64-.76-7.27-2.08-10.66-.07-.19-.16-.39-.34-.48-.14-.07-.3-.06-.46-.05-2.22.18-4.42.54-6.58,1.08-1.98.5-3.93,1.14-5.91,1.65-4.57,1.17-8.9.96-13.52,1.26-2,.13-2.25,1.01-2.01,2.86.32,2.43.75,4.86,1.19,7.27Z"/>
    <path class="cls-3" d="M16.6,222.72c5.28.37,10.56.73,15.85.57,2.74-.09,5.77-.45,7.57-2.51.75-3.71.89-7.54.39-11.3.02.15-16.63,2.61-18.22,2.63-1.71.03-5.19-1.05-6.05.95-.49,1.15-.05,3.25.01,4.49.08,1.72.23,3.45.44,5.16Z"/>
  </g>
  <g id="skuggor_stuvlar" data-name="skuggor stuvlar">
    <g id="skuggor_stövlar" data-name="skuggor stövlar">
      <path class="cls-2" d="M8.37,205.01c-1.1,7.09.79,14.29.87,21.47.02,1.96-.09,3.93-.08,5.89,0,1.8.12,3.6.24,5.4.5,7.96,1,15.92,1.5,23.88"/>
      <path class="cls-2" d="M34.97,247.01c.48-.84.81-1.77.98-2.72.14-.8.17-1.62.39-2.41.41-1.48,1.46-2.68,2.48-3.82"/>
      <path class="cls-2" d="M22.06,266.33c.71-.05,1.32-.49,1.97-.78,1.18-.53,2.52-.54,3.81-.54,3.12,0,6.36.02,9.17,1.37"/>
      <path class="cls-2" d="M9.27,273.57c.23,4.85,1.82,9.52,3.4,14.11.72,2.09,1.5,4.27,3.15,5.73"/>
      <path class="cls-2" d="M4.69,287.17c3.37.23,6.55,2.31,8.12,5.31.78,1.49,1.19,3.2,2.28,4.48,1.53,1.79,4.1,2.36,6.43,2.13s4.55-1.11,6.8-1.79c3.03-.91,6.16-1.43,9.14-2.48,1.45-.51,2.86-1.14,4.36-1.45,2-.41,4.06-.24,6.1-.06,3.15.27,6.36.56,9.31,1.7"/>
      <path class="cls-2" d="M32.91,278.26c2.27.96,4.69,1.54,7.15,1.69"/>
      <path class="cls-2" d="M19.82,275.45c4.77-2.86,10.36-4.49,15.91-4.11s11.02,2.86,14.6,7.12"/>
      <path class="cls-2" d="M3.52,200.69c1.79.67,3.63,1.2,5.51,1.57"/>
      <path class="cls-2" d="M11.32,202.84c4.42,1.54,9.18,2.1,13.83,1.63,4.06-.41,8-1.6,12.06-2.06,1.21-.14,2.46-.22,3.55-.77"/>
      <path class="cls-2" d="M18.65,215.86l.24,4.23"/>
      <path class="cls-2" d="M20.49,215.86l.27,3.95"/>
      <path class="cls-2" d="M18.67,217.95h2.15"/>
      <path class="cls-2" d="M22.43,215.69c-.04.82.14,1.63.31,2.43.07.31.14.63.35.87s.59.35.84.16c.21-.17.24-.47.26-.74.04-.9.09-1.8.13-2.71"/>
      <path class="cls-2" d="M25.88,219.46c-.02-1.14-.09-2.27-.21-3.4.65.21,1.12.74,1.57,1.25.46.53.91,1.05,1.32,1.61.17-1.21.22-2.43.15-3.65"/>
      <path class="cls-2" d="M30.16,215.86l2.09-.2"/>
      <path class="cls-2" d="M29.81,215.88c.43-.02.79.29,1.22.27v2.96"/>
      <path class="cls-2" d="M35.39,214.69c-.7-.06-1.38.23-2.02.52-.07.03-.15.07-.18.14-.03.06-.01.13,0,.19.17.82.46,1.53.63,2.35.03.16.07.34.19.45.15.14.37.16.57.15.45-.02.9-.13,1.32-.31"/>
      <path class="cls-2" d="M36.94,218.53c.16-.96-.15-1.92-.3-2.88-.04-.24-.07-.5,0-.73.13-.41.59-.68,1.01-.59s.74.52.7.94c-.34.21-.7.39-1.07.53.35.83.73,1.64,1.16,2.43"/>
      <path class="cls-2" d="M33.12,216.73c.76.03,1.52-.05,2.26-.25"/>
    </g>
    <path class="cls-2" d="M60.02,239.6c6.94,4,15.25,5.08,23.24,4.59,2-.12,4.01-.34,5.94-.89,1.5-.43,2.94-1.06,4.36-1.69,2.86-1.25,5.71-2.51,8.57-3.76"/>
    <path class="cls-2" d="M63.72,245.25l-.19-.32c1.9,13.2,3.95,26.39,5.99,39.57.43,2.74.85,5.49,1.28,8.23,1.82,11.71,3.63,23.41,5.45,35.12"/>
    <path class="cls-2" d="M94.64,335.89l6.11.8c2.69.35,5.44.7,8.09.12s5.21-2.31,6.03-4.89"/>
    <path class="cls-2" d="M82.44,330.55c-.72-2.18,0-4.66,1.41-6.47s3.44-3.04,5.54-3.99c7.85-3.53,17.3-3.31,24.98.6"/>
    <path class="cls-2" d="M82.44,317.6l4.3-2.33c1.42-.77,2.86-1.54,4.42-1.93,1.37-.34,2.8-.37,4.21-.39,2.93-.06,5.93-.1,8.72.79"/>
    <path class="cls-2" d="M100.62,288.1c-.48-3.55-.23-7.19.76-10.63"/>
    <path class="cls-2" d="M116.32,284.9c.27,1.09,1.13,1.91,1.76,2.84.72,1.06,1.15,2.31,1.24,3.58"/>
    <path class="cls-2" d="M134.13,231.5c6.02,1.79,12.26,2.81,18.54,3.04,1.16.04,2.33.06,3.47-.19,1.06-.23,2.06-.69,3.12-.91,1.64-.34,3.34-.1,5.01-.18,6.04-.29,11.62-4.73,17.58-3.73"/>
    <path class="cls-2" d="M143.11,238.28c1.49,11.51,3,23.1,6.47,34.17.66,2.11,1.39,4.2,2.09,6.3,3.79,11.41,6.59,23.15,8.35,35.04"/>
    <path class="cls-2" d="M168.41,304.63c.96-.13,1.7-.87,2.54-1.35.94-.54,2.02-.77,3.08-.98,2.32-.48,4.65-.95,7.01-.94s4.79.55,6.7,1.93"/>
    <path class="cls-2" d="M163.8,315.93c1.58-1.65,3.72-2.61,5.81-3.52,2.74-1.2,5.53-2.42,8.49-2.86,1.52-.23,3.06-.25,4.59-.27,5.59-.07,11.24-.14,16.68,1.18"/>
    <path class="cls-2" d="M160,323.97c1.19,4.09,3.96,7.7,7.62,9.89"/>
    <path class="cls-2" d="M185.55,328.28c2.38-.93,4.63-2.4,7.18-2.54.64-.04,1.31.01,1.92-.2.41-.14.78-.4,1.18-.57,1.51-.66,3.33-.15,4.84-.8"/>
    <g>
      <path class="cls-2" d="M72.11,254.26c-.03.47-.22,1.79.13,2.15.32.34,1.89.23,2.36.28.13.01.32-.11.22-.19"/>
      <path class="cls-2" d="M74.18,253.78c-.15,1.72-.07,3.46.25,5.16"/>
      <path class="cls-2" d="M72.35,256.8l.24,2.24"/>
      <path class="cls-2" d="M76.01,254.39c.36,1.12.87,2.19,1.51,3.18.15.22.36.46.62.42.23-.04.36-.28.44-.5.44-1.24.29-2.6.13-3.91"/>
      <path class="cls-2" d="M80.86,257.96c.09-1.4.05-2.82-.13-4.21.73,1.21,1.76,2.2,2.78,3.18,0-1.35.08-2.7.25-4.04"/>
      <path class="cls-2" d="M85.36,253.4l3.12-.15"/>
      <path class="cls-2" d="M87.01,253.48c-.03,1.17.08,2.35.33,3.5"/>
      <path class="cls-2" d="M93.37,256.35c-.56.24-1.14.44-1.73.6-.2.05-.44.1-.6-.03-.09-.07-.14-.19-.18-.3-.51-1.35-.84-2.77-.96-4.2,1.02-.26,2.07-.46,3.08-.72"/>
      <path class="cls-2" d="M89.85,254.5l2.92-.7"/>
      <path class="cls-2" d="M95.18,256.4c-.2-1.76-.46-3.51-.79-5.25.48-.02.93-.21,1.38-.37s.94-.29,1.4-.19.9.52.86.99c-.86.58-1.8,1.06-2.78,1.4,1.16.54,2.12,1.49,2.68,2.64"/>
    </g>
    <g>
      <path class="cls-2" d="M156.01,245.82c-.2,1.65.64,3.32.31,4.95"/>
      <path class="cls-2" d="M157.8,245.99c0,1.54.66,3.03.65,4.58"/>
      <path class="cls-2" d="M155.99,248.35h2.04"/>
      <path class="cls-2" d="M159.64,246.21c-.05.94.06,1.94.58,2.72.18.28.42.52.71.68.13.07.27.13.41.1.3-.06.4-.45.42-.76.07-1.03.04-2.06-.08-3.08"/>
      <path class="cls-2" d="M163.94,249.91v-4.02c1.07.6,1.97,1.51,2.57,2.58.16.29.32.61.63.74-.19-1.51-.43-3.02-.7-4.52"/>
      <path class="cls-2" d="M168.18,245.38c1.04.06,2.09-.08,3.08-.42"/>
      <path class="cls-2" d="M169.69,245.51c-.06,1.27.1,2.55.47,3.76"/>
      <path class="cls-2" d="M175.8,247.71c-.63.37-1.35.54-2.06.7-.15.03-.32.07-.46,0-.15-.08-.22-.26-.26-.43-.39-1.34-.56-2.74-.5-4.13.77-.02,1.55.26,2.32.18"/>
      <path class="cls-2" d="M172.75,246.24c.71.07,1.45-.04,2.1-.33"/>
      <path class="cls-2" d="M177.19,247.49c.21-1.48-.94-2.87-.83-4.36,0-.05,0-.1.03-.15.03-.06.08-.1.12-.14.63-.5,1.58-.54,2.26-.11.23.15.43.34.62.53.17.16.35.37.32.6-.03.2-.2.34-.37.45-.76.5-1.66.78-2.56.8.45-.06.93-.11,1.33.09.17.09.32.22.46.36.59.59,1.06,1.31,1.36,2.1"/>
    </g>
    <g>
      <path class="cls-2" d="M66.16,321.31c.69,2.11.7,4.38,1.05,6.57s1.17,4.48,2.98,5.77c1.18.84,2.66,1.17,3.81,2.04,2.57,1.94,2.72,5.86,4.96,8.17,1.05,1.08,2.48,1.71,3.86,2.32,2.76,1.2,5.58,2.42,8.58,2.69,2.18.2,4.37-.12,6.53-.43,3.92-.57,7.84-1.14,11.76-1.71,3.18-.46,6.38-.92,9.58-.7,1.38.09,2.8.31,4.1-.14s2.41-1.86,1.95-3.16"/>
      <path class="cls-2" d="M149.59,325.95c2.54,1.15,4.9,2.7,6.98,4.56,1.47,1.32,2.81,2.81,4.53,3.76,1.07.6,2.26.97,3.34,1.56.89.49,1.7,1.13,2.49,1.77,1.54,1.23,3.08,2.45,4.62,3.68.87.7,1.77,1.4,2.83,1.76,2.62.89,5.38-.56,8.02-1.4,3.8-1.2,7.9-1.15,11.7-2.32,2.35-.72,4.54-1.9,6.91-2.56s5.08-.74,7.12.63"/>
    </g>
    <path class="cls-10" d="M5.25,194.58c-.52.16-1.04.36-1.47.7s-.77.82-.83,1.37c-.01.11-.01.22.04.31.09.17.31.22.51.25,2.13.31,4.26.61,6.39.92.12.02.25.03.33-.06.06-.07.07-.17.07-.26.01-.91-.09-2.86-.91-3.47-.91-.68-3.16-.06-4.13.24Z"/>
  </g>
  <path id="Ansikte" class="cls-8" d="M66.09,39.57c-8.28,5.4-10.93,17.64-6.04,26.23,4.89,8.59,16.29,12.63,25.67,9.51-.97,20.97,7.82,41.29,19.33,58.86,2.65,4.04,5.46,8,8.84,11.44,10.23,10.43,24.71,15.33,38.75,19.4,7.11,2.06,14.35,4.01,21.75,4.06s15.08-2.03,20.47-7.1c5.67-5.33,8.13-13.24,9.46-20.91.8-4.65,1.27-9.36,1.41-14.08.02-.84.04-1.7.35-2.47.33-.81.94-1.46,1.52-2.11,2.72-3.1,4.8-6.95,5-11.07.29-6.08-3.43-11.54-6.99-16.48-5.06-7.03-10.13-14.06-15.19-21.09-.79-1.1-1.63-2.34-1.49-3.7.13-1.2,1-2.19,1.36-3.35.63-2.01-.44-4.25-2.05-5.6s-3.68-2.03-5.69-2.67c4.93-4.52,8.98-10.42,9.69-17.07s-2.63-13.98-8.85-16.45c-1.99-.79-4.14-1.06-6.27-1.22-3.6-.27-7.32-.22-10.69,1.09s-6.34,4.08-7.06,7.62c.22-1.07-17.67-2.81-19.29-2.86-6.87-.18-13.76.5-20.46,2s-13,3.74-19.03,6.78c-2.41,1.21-5.38,3.78-8.11,4.11-3.05.37-4.87-1.89-7.37-3.24-5.8-3.14-13.4-3.28-19.01.38Z"/>
  <g id="_Ögonbryn" data-name="Ögonbryn">
    <path class="cls-7" d="M116.7,51.05c-4.88,1.31-10.15,1.57-14.55,4.07-1.56.88-3.03,2.12-3.62,3.82s.03,3.88,1.67,4.59c.8.34,1.7.31,2.57.26,3.6-.18,7.2-.36,10.8-.54,2.44-.12,4.89-.24,7.31-.63,3.07-.49,6.06-1.4,9.04-2.3,1.42-.43,2.84-.87,4.13-1.59,3.08-1.73,5.13-5.15,5.22-8.68,0-.2,0-.42-.11-.59-.56-.9-3.32-2.21-4.42-2.55-1.75-.54-4-.08-5.75.29-4.22.88-8.15,2.74-12.3,3.85Z"/>
    <path class="cls-7" d="M166.17,39.35c1.46-.34,2.98-.49,4.44-.16s2.84,1.17,3.59,2.46c.91,1.58.76,3.55.26,5.3-.86,3.04-2.86,5.93-5.82,7.05-1.5.56-3.12.64-4.72.71-.42.02-.86.04-1.27-.08-.46-.13-.85-.41-1.24-.69-3.07-2.23-8.27-4.26-5.01-8.37,2.44-3.08,5.94-5.33,9.77-6.22Z"/>
  </g>
  <path id="Näsa" class="cls-6" d="M173.19,88.01c6.9-1.56,13.68-4.36,20.74-3.98-.33,8.99-3.23,18.28-9.87,24.35-.14.13-.29.26-.47.28-.2.02-.39-.09-.56-.2-2.6-1.68-5.2-3.36-7.8-5.03-3.08-1.99-6.19-4-8.79-6.59-1.25-1.24-5.11-4.86-3.2-6.87.93-.97,3.43-.79,4.67-.97,1.77-.27,3.53-.58,5.27-.98Z"/>
  <g id="_Ögon" data-name="Ögon">
    <path class="cls-1" d="M100.61,69.8c-.67,1.64-1.14,3.8.19,4.97,1.62,1.42,4.4.05,6.21,1.22.48.31.83.77,1.22,1.19,1.96,2.17,4.74,3.37,7.43,4.52,1.37.58,2.78,1.18,4.27,1.22,1.38.04,2.73-.38,4.04-.81,1.14-.37,2.29-.74,3.4-1.21,3.09-1.31,5.88-3.42,7.73-6.22s2.7-6.3,2.04-9.59c-6.63,3.24-14.36,5.05-21.43,2.92-2.24-.68-4.35-1.73-6.58-2.46-1.58-.52-4.78-1.55-6.29-.39-1.1.84-1.73,3.4-2.23,4.63Z"/>
    <path class="cls-1" d="M173.4,55.21c1.13-.1,2.31-.06,3.33.44,2.02,1,2.79,3.49,2.98,5.74.15,1.73-.09,3.79-1.59,4.66-.9.52-2.04.45-3,.07s-1.79-1.04-2.6-1.68c-1.43-1.14-6.68-4.06-6.46-6.23s5.65-2.86,7.34-3Z"/>
  </g>
  <g id="Skuggor_lejon" data-name="Skuggor lejon">
    <path class="cls-9" d="M88.76,53.8c-3.11-1.3-6.13-2.98-9.46-3.51s-7.19.41-8.95,3.29c-.91,1.49-1.14,3.31-1.07,5.06.22,5.42,3.3,10.64,7.93,13.46"/>
    <path class="cls-9" d="M77.75,57.56c2.11.62,4.11,1.59,5.91,2.85"/>
    <path class="cls-9" d="M80.54,54.55c1.3.73,2.53,1.58,3.67,2.55"/>
    <path class="cls-9" d="M138.63,73.32c-.4,2.59-1.33,5.1-2.72,7.33-.44.71-.93,1.39-1.55,1.94-1.13,1-2.6,1.49-3.94,2.18-1.55.8-2.93,1.88-4.47,2.69s-3.31,1.37-5.01,1.01"/>
    <path class="cls-9" d="M152.46,68.33c.63,2.19,1.9,4.15,2.73,6.27.99,2.57,1.32,5.39.94,8.11"/>
    <path class="cls-9" d="M159.43,83.04c-2.51,2.29-4.27,5.38-4.96,8.7-.15.73-.25,1.52.02,2.22.22.58.67,1.04,1.13,1.45,4.07,3.65,9.73,4.77,14.98,6.31s10.8,4.1,13.01,9.1c1.22,2.76,1.23,5.88,1.1,8.89-.09,2.22-.27,4.53-1.4,6.45-1.32,2.24-3.71,3.58-5.99,4.81-2.5,1.36-5.03,2.72-7.78,3.46-1.69.45-3.43.66-5.17.85-3.21.35-6.43.64-9.65.88-2.1.15-4.21.28-6.29-.02-6.69-.98-12.32-6.92-12.94-13.66"/>
    <path class="cls-9" d="M147.02,120.57c-.72-4.01-.64-8.17.26-12.15"/>
    <path class="cls-9" d="M137.39,107.82c1.39.44,2.92-.08,4.15-.87s2.29-1.82,3.54-2.57c1.27-.77,2.71-1.23,4.15-1.59,1.61-.4,3.27-.7,4.91-.52"/>
    <g>
      <path class="cls-9" d="M156.36,53.99c8.17,5.29,15.96,11.16,23.22,17.64,2.51,2.24,5,4.58,8.02,6.06,2.58,1.26,5.54,1.89,7.64,3.85,3.31,3.09,3.26,8.53,1.33,12.63s-5.33,7.28-8.3,10.7"/>
      <path class="cls-9" d="M183.83,109.43c1.42,2.47,1.76,5.45,1.41,8.28s-1.34,5.54-2.43,8.17c-.33.78-.63,1.78-.05,2.4.32.35.83.45,1.3.52,7.42,1.08,14.84-1.39,21.92-3.84"/>
      <path class="cls-9" d="M170.95,139.02c5.24.56,10.68,1.09,15.64-.67,2.75-.98,5.24-2.66,7.19-4.83"/>
      <path class="cls-9" d="M195.28,154.78l1.28-2.65c1.27-2.62,2.54-5.26,3.23-8.09"/>
      <path class="cls-9" d="M144,152.39c3.53,3.36,7.06,6.72,10.59,10.07.79.75,1.58,1.5,2.48,2.12,1.03.71,2.19,1.23,3.33,1.75,1.38.62,2.75,1.24,4.13,1.86"/>
      <path class="cls-9" d="M114.39,137.25c-3.89-2.05-7.64-4.39-11.19-6.98-1.25-.91-2.53-1.91-3.2-3.31"/>
    </g>
    <path class="cls-9" d="M58.85,87.84c3.4,1.45,6.66,3.22,9.73,5.27"/>
    <path class="cls-9" d="M62.56,94.59c2.18,1,4.48,1.74,6.83,2.22"/>
    <path class="cls-9" d="M55.28,38.32c-.26,2.34-.04,4.73.64,6.99"/>
    <path class="cls-9" d="M77.74,29.23l6.13,6.5"/>
    <path class="cls-9" d="M48.02,118.77c2.46.35,5.02-.11,7.2-1.29"/>
    <path class="cls-9" d="M53.94,122.94c1.82.06,3.65-.1,5.42-.49"/>
    <path class="cls-9" d="M59.11,147.97c2.3-.68,4.55-1.53,6.72-2.55"/>
    <path class="cls-9" d="M60.4,153.87c2.38.32,4.86-.11,6.99-1.21"/>
    <path class="cls-9" d="M100.42,142.29c3.22,3.23,6.48,6.51,8.67,10.51.71,1.3,1.3,2.66,2.09,3.91,2.68,4.25,7.37,6.83,12.1,8.51"/>
    <path class="cls-9" d="M106.8,178.16c-.75-1.73-1.73-3.36-2.91-4.83"/>
    <path class="cls-9" d="M98.04,176.08c.12-1.98.04-3.97-.25-5.93"/>
    <path class="cls-9" d="M138.28,177.66l-6.46-5.14"/>
    <path class="cls-9" d="M141.66,173.75c-.99-1.55-2.22-2.94-3.63-4.11"/>
    <path class="cls-9" d="M118.24,199.29c-.27-2.76-.19-5.55.26-8.28"/>
    <path class="cls-9" d="M61.68,172.49l5.16-.3"/>
    <path class="cls-9" d="M69.17,132.77l5.67-.3"/>
    <path class="cls-9" d="M147.85,24.64v-3.87"/>
    <path class="cls-9" d="M151.98,23.87v-3.35"/>
    <path class="cls-9" d="M165.41,31.66l4.9-1.55"/>
    <path class="cls-9" d="M170.81,38.83c1.67-1.67,3.9-2.76,6.24-3.04,1.83-.22,3.89.13,5.09,1.53.76.88,1.07,2.06,1.32,3.2.77,3.64.93,7.7-1.14,10.79-1.06,1.59-2.75,3.18-2.29,5.03.63,2.57.83,5.76,2.7,7.64s4.14,3.42,5.55,5.66"/>
    <path class="cls-9" d="M159.35,207.07c.65,1.97,1.98,3.72,3.72,4.87"/>
    <path class="cls-9" d="M131.65,217.02c.84.54,1.92-.1,2.7-.72,2.38-1.88,4.76-3.75,7.13-5.63"/>
    <path class="cls-9" d="M94.19,210.12c2.86,2.18,5.42,4.74,7.61,7.59"/>
    <path class="cls-9" d="M16.56,152.15c1.47,5.34,3.94,10.41,7.25,14.86"/>
    <path class="cls-9" d="M30.85,106.36c-1.52,3.03-2.17,6.49-1.85,9.86"/>
  </g>
  <path class="cls-4" d="M121.84,82.11c.21-1.31,0-2.64-.04-3.97s.17-2.75,1.06-3.73c.56-.62,1.33-.99,2.08-1.35,2.56-1.23,5.25-2.48,8.09-2.38.81.03,1.64.18,2.32.63.11.07.22.16.27.28.06.16,0,.34-.05.5-.42,1.14-1.04,2.2-1.82,3.14-.93,1.11-2.07,2.02-3.28,2.8-2.49,1.62-5.3,2.75-8.22,3.3-.01-.85-.02-1.7-.03-2.56"/>
  <path class="cls-4" d="M177.51,60.14c.36.02.74.07,1.01.3.33.27.43.73.48,1.16.14,1.24-.02,2.51-.47,3.67-.05.14-.11.28-.23.38-.18.14-.43.14-.65.11-1.25-.14-2.43-.58-3.53-1.17-.77-.41-2.51-1.19-2.73-2.13-.43-1.84,4.98-2.37,6.11-2.3Z"/>
</svg>