<?xml version="1.0" encoding="UTF-8"?>
<svg id="Layer_1" xmlns="http://www.w3.org/2000/svg" version="1.1" viewBox="0 0 431.74 402.42">
  <!-- Generator: Adobe Illustrator 29.8.1, SVG Export Plug-In . SVG Version: 2.1.1 Build 2)  -->
  <defs>
    <style>
      .st0, .st1 {
        fill: none;
      }

      .st2 {
        fill: #936a4e;
      }

      .st3 {
        fill: #5b391f;
      }

      .st1 {
        stroke: #231f20;
      }

      .st1, .st4 {
        stroke-miterlimit: 10;
      }

      .st5 {
        fill: #b8652a;
      }

      .st6 {
        fill: #68482e;
      }

      .st7 {
        fill: #bc788d;
      }

      .st8 {
        fill: #774c2c;
      }

      .st4 {
        fill: #bb2430;
        stroke: #e5ae56;
        stroke-width: 9px;
      }

      .st9 {
        fill: #b25f7d;
      }

      .st10 {
        fill: #fff;
      }

      .st11 {
        fill: #52422e;
      }

      .st12 {
        fill: #8a2945;
      }

      .st13 {
        fill: #6b5234;
      }

      .st14 {
        fill: #7f6045;
      }

      .st15 {
        fill: #66452c;
      }
    </style>
  </defs>
  <polygon class="st4" points="131.82 273.48 299.92 273.48 223.15 116.79 131.82 273.48"/>
  <path class="st10" d="M207.18,247.13c-.08-.4-.19-.83-.63-.95-.04-.01-.07-.02-.11-.02-.04-.03-.09-.05-.14-.07-.19-.06-.4-.09-.62-.1.15-.17.14-.49-.08-.64-1.22-.83-2.41-1.7-3.55-2.63-.58-.46-1.13-.96-1.7-1.43-.44-.36-.94-.45-1.5-.39-1.26.14-2.44.93-3.46,1.64-.53.37-1.05.77-1.54,1.19-.5.43-1.01.87-1.31,1.47-.17.33.14.62.41.61.04.07.09.14.16.19,2.54,1.74,5.07,3.47,7.8,4.9.1.05.21.06.3.03.25.18.5.37.73.57.12.1.26.12.38.08v.1c-.01.31.27.43.5.37.06.06.15.1.27.09.49-.04.9.15,1.38.18.4.02.79-.13,1.13-.33.38-.23.73-.48.93-.89.21-.42.38-.88.56-1.31.17-.41.34-.83.32-1.28-.02-.46-.13-.94-.22-1.39h0Z"/>
  <path class="st10" d="M220.58,204.59c-.39-.56-.75-.9-1.37-1.17-.67-.3-1.3-.71-1.97-1-1.4-.61-2.69-.34-3.92.5-.65.44-1.05,1.04-1.48,1.67-.44.64-.91,1.27-1.1,2.04-.3.13-.34.61.04.75.69.26,1.37.56,2.03.88.22.23.47.42.76.57,0,0,.02,0,.02,0,.03.08.08.15.19.19.58.26,1.16.54,1.75.79.56.23.95.02,1.51.02.5,0,.92.06,1.36-.23.41-.27.67-.71,1.1-.95h0s.06-.04.08-.06c.16-.12.16-.29.08-.43.27-.1.53-.21.79-.34.58-.28,1-.68.98-1.36-.02-.67-.48-1.32-.86-1.86h0Z"/>
  <path class="st11" d="M238.95,203.5c-1.47-2.09-4.06-.92-4.95.98-.03.07-.06.15-.09.21-.24-.01-.49.02-.73.08-1.07-.57-2.53-.36-2.78,1.17-.13.75-.5,2.14-.75,3.6-1.15-.89-3.32-.38-3.33,1.53,0,1.48-.47,3.84.5,5.08.91,1.16,2.55,1.07,3.6.16.4-.35.77-.75,1.12-1.2.59.75,1.49,1.06,2.42.95.52.9,1.56,1.25,2.7.74,2.08-.95,2.45-3.99,2.74-5.98.29-2.06.84-5.49-.45-7.32h0Z"/>
  <path class="st13" d="M235.39,212.49c.65-2.11,1.15-4.5.45-6.34-.48-1.24-1.73-1.86-2.96-1.21-.31.17-.57.37-.78.59-.48-.65-1.32-1.03-2.14-.76-2.65.88-2.93,4.51-3.16,6.92-.23,2.38,0,6.55,2.63,7.61,1.54.62,2.74-.17,3.62-1.36.17.02.33.02.51,0,1.75-.14,2.66-1.56,3.11-3.09.36-1.2-.36-2.07-1.29-2.37h0Z"/>
  <path class="st12" d="M178.29,229.43c-2.59,0-2.6,4.03,0,4.03s2.6-4.03,0-4.03Z"/>
  <path class="st13" d="M205.46,220.53c-2.24.33-4.22,1.83-6.22,2.81-2.3,1.14-4.68,2.11-7.1,2.95-.73.25-1.15.79-1.31,1.38,0,0-.01,0-.02.01-3.63,2.34-7.67,4.01-10.75,7.13-1.82,1.85,1.03,4.71,2.85,2.85,2.81-2.86,6.6-4.36,9.93-6.5.48-.31.76-.73.87-1.17,2.13-.76,4.22-1.6,6.27-2.56,2.08-.97,4.26-2.68,6.54-3.02,2.56-.38,1.47-4.27-1.07-3.89h0Z"/>
  <path class="st6" d="M194.19,246.7c-.13-.11-.26-.17-.43-.18-.07,0-.14,0-.21,0,0-.01,0-.02-.01-.03-.09-.14-.21-.24-.35-.33-.16-.1-.33-.16-.52-.19-.03-.08-.07-.17-.12-.25-.35-.65-1.1-1.17-1.75-1.48-.17-.08-.34-.13-.52-.18-.16-.22-.37-.42-.61-.56-.06-.23-.25-.43-.56-.43-.19,0-.33.07-.43.19-.15,0-.3.02-.46.06-1.23.29-2.41.72-3.54,1.28-.35.17-.67.33-.98.49-.94.17-1.86.35-2.61.93-.16.08-.32.16-.48.25-1.05.6-1.81,1.02-3.02,1.18-.5.07-1.01.13-1.51.18-.22-.08-.47-.12-.76-.1-1.39.06-2.61-.14-3.98-.27-.23-.02-.47-.01-.72,0-.56-.22-1.11-.46-1.66-.71h0c-.18-.33-.36-.66-.53-.98-.06-.12-.13-.24-.19-.36h0c-.06-.65-.49-1.15-.49-1.76,0-.29-.07-.57-.2-.82.05-.72.47-1.43.75-2.09.29-.67.55-1.29,1.13-1.77.35-.29.15-.91-.27-1.01-.48-.11-.92-.32-1.29-.65-.25-.21-.61-.24-.86,0-.19.19-.23.52-.09.75-.03.02-.07.04-.09.08-.95,1.18-1.8,2.43-2.51,3.76-.06.12-.08.25-.06.38-.51.65-.81,1.27-.92,2.1-.06.44-.08.87-.13,1.31-.1.24-.15.51-.15.82.01.14,0,.28-.02.41-.04.36.06.69.25.99-.1.25-.13.54-.1.89.31,2.86,1.24,5.66,3.56,7.51,1.25,1,2.67,1.7,4.17,2.14.32.43.84.71,1.56.68.36-.02.71-.04,1.07-.05.33.21.71.33,1.07.31.36-.02.7-.1,1.03-.19.22.07.46.11.74.1.73-.03,1.36-.17,1.95-.36.26.02.54-.01.85-.12.74-.25,1.4-.56,2.03-.98.13-.05.25-.11.38-.17h0s.02,0,.02-.01c.83-.38,1.55-.85,2.18-1.56.43-.48.79-1.13,1.21-1.69.3-.09.58-.26.82-.55.18-.21.34-.42.5-.64.1-.04.21-.07.31-.12.86-.42,1.65-1.05,2.1-1.91.02-.02.03-.04.04-.06.02-.03.05-.06.07-.08.09-.1.18-.2.27-.3.67-.36,1.27-.8,1.86-1.28.42-.34.89-.7,1.25-1.12.04,0,.08,0,.12-.02.17-.02.34-.1.49-.19.1-.06.19-.14.28-.22.21,0,.43-.02.64,0,.15.01.33-.08.43-.18s.19-.28.18-.43c0-.16-.06-.32-.18-.43v.02Z"/>
  <path class="st6" d="M248.98,206.93c.26-.65.17-1.43-.43-2.09-.73-.79-1.26-1.95-1.88-2.85-.83-1.19-1.53-2.47-2.07-3.81h0c-.06-.15-.13-.31-.2-.48-.11-.25-.27-.45-.45-.61-.01-.02-.02-.05-.03-.08-.08-.21-.19-.38-.31-.54-.04-.13-.09-.25-.14-.38-.03-.19-.09-.4-.18-.61-.21-.51-.54-.87-.93-1.1-.05-.08-.1-.16-.15-.23-.09-.62-.44-1.19-1.04-1.48.01-.02.02-.04.04-.07.13-.1.24-.21.34-.33.23-.3.41-.61.56-.93.27-.16.52-.4.72-.73.2-.31.35-.63.46-.94.18-.38.36-.75.54-1.13.3-.23.54-.59.66-1.07.02-.1.05-.2.08-.3.16-.18.29-.4.39-.66.11-.24.19-.48.25-.73.78-2.34,1.34-4.78.75-7.23-.4-1.65-2.2-1.76-3.23-.93-.08,0-.15-.01-.23-.01-.23,0-.43.03-.61.09-.57.01-1.01.23-1.33.54-.5.07-.88.31-1.14.63-.04,0-.08,0-.11.02-.18.07-.35.15-.52.23-.46.09-.81.31-1.06.62-1.04.48-1.95,1.14-2.68,2.06-.91,1.15-1.32,2.54-2.25,3.67-.65.58-1.09,1.24-1.61,2-.66.95-1.54,1.71-2.39,2.49-1.05.96-2.05,1.98-3.25,2.75-.65.42-1.29.91-1.98,1.23-.23.04-.47.12-.71.26-.03,0-.06.02-.09.02-.18.03-.36.05-.54.08-.48.02-.87.17-1.17.39-.16,0-.33.04-.51.09-1.05.32-1.95.36-2.94.14.23-.3.42-.63.62-.94.36-.59.73-1.17,1.09-1.76.16-.26.1-.51-.06-.68.18-.23.25-.54.46-.75.56-.54-.3-1.4-.86-.86-.22.22-.32.46-.47.72-.15.26-.4.34-.67.48-.69.34-1.38.68-2.07,1.02-.64.32-1.28.66-1.95.92-.71.27-1.46.46-2.19.65-.1.02-.18.07-.24.13-.44.02-.89.02-1.34,0h-.04c-.2-.36-.42-.73-.64-1.09-.42-.69-.8-1.33-1-2.08-.16-.56-1.02-.58-1.17,0-.11.45-.28.76-.46,1.19-.15.33-.27.65-.35.99-.64-.9-1.28-1.83-1.56-2.92-.02-.09-.06-.16-.1-.22-.01-.26,0-.51.05-.77.06-.28-.06-.5-.25-.63.1-.01.17-.1.17-.2.05-.5,0-1-.08-1.5.05-.03.09-.08.09-.16l.04-.67s0-.02,0-.03c.06-.03.12-.06.17-.11.1-.12.19-.27.18-.43-.01-.31,0-.63.02-.94.1-.12.16-.27.15-.44.05-.06.1-.14.13-.22.15-.38.28-.68.45-1.06.17-.38.35-.75.54-1.11.03-.06.05-.13.06-.19.24-.32.48-.65.71-.97.39-.53.81-1.05,1.19-1.59.16,0,.32-.05.42-.17.19-.23.36-.47.5-.73h0c.66-.44,1.32-.88,1.99-1.3.13-.08.21-.19.25-.3.2-.05.4-.11.59-.16.34-.09.61-.57.36-.89-.19-.25-.4-.44-.69-.58-.27-.13-.54-.21-.79-.4-.17-.13-.33-.25-.5-.37-.17-.36-.49-.6-.81-.81-.37-.25-.75-.48-1.15-.7-.18-.1-.36-.1-.5-.04-.19-.17-.48-.23-.71-.05-.5.14-.82.78-1.02,1.32-.46.19-.71.84-.88,1.25-.23.58-.35,1.19-.46,1.8-.02.1,0,.19.01.27-.31.34-.48.79-.42,1.26-.59.44-.51,1.28-.25,1.98-.1.1-.17.25-.17.41,0,.33-.01.66-.02.98-.1.07-.1.23-.01.31-.16.56-.25,1.13-.31,1.71-.02.15.05.29.17.41,0,.02,0,.04,0,.06-.05.42-.06.85-.05,1.27,0,.16.06.31.17.42-.02.04-.03.09-.02.13.17.77.34,1.55.27,2.34,0,.04,0,.07.02.1-.28-.09-.61,0-.71.36-.1,0-.21.02-.31.09-.9.63-1.73,1.32-2.53,2.07-.19.18-.37.35-.61.46-.2.09-.42.15-.62.25-.23.1-.45.27-.61.46-.06-.01-.12-.02-.18-.02-.36,0-.61.22-.79.52-.13.03-.26.12-.35.27-.14.24-.3.47-.47.69-.3.05-.46.29-.47.54-.05.06-.1.11-.17.17-.4.38-.9.64-1.18,1.11-.26.11-.52.22-.79.33-.08.04-.15.09-.19.16-.17.04-.33.08-.46.12-.79.19-1.55.42-2.36.36-.19-.02-.33.05-.43.15-.63-.1-1.3.06-1.73.55-.26.29-.5.58-.73.88-.51.34-.79.8-.88,1.27,0,.01-.02.02-.02.04-.14.16-.25.34-.31.54-.31.56-.59,1.16-.84,1.78-.17.13-.32.27-.46.46-.16.21-.31.43-.46.64-.61.27-.97.82-1.09,1.44-.43.54-.88,1.07-1.37,1.55-.4.39-.8.76-1.18,1.15-.11.07-.22.15-.33.25-.43.38-.79.8-1.11,1.27-.3.34-.6.69-.89,1.03-.92.49-1.59,1.13-2.39,1.82-.74.63-1.64.98-2.45,1.5-.58.37-1.04.79-1.49,1.25-.11.05-.22.1-.33.17-1.67,1.06-3.59,2.01-5.07,3.34-1.08.96-1.83,2.32-2.51,3.65-.48.29-.76.79-.86,1.33-.32.23-.56.6-.67,1.13-.61,3.13-1.77,6.63-1.63,9.84.04,1.02.75,1.82,1.73,1.98.25.25.55.44.9.58,1.18.46,2.36.92,3.53,1.38.29.3.7.51,1.22.55.06.04.12.08.19.11,2.26,1.06,4.95,2.08,7.71,2.66.11.06.23.11.36.15.83.27,1.78.33,2.77.29,1.75.12,3.47,0,5.06-.47.27-.08.5-.21.69-.36,2.98-.69,5.12-3.04,8-3.97,2.9-.94,6.75-1.28,8.78,1.45-.52.11-1,.44-1.32.89-.37.17-.71.4-1.02.69-.04.04-.06.08-.1.12-.14-.02-.27,0-.4.07-.06.03-.11.07-.15.11-.03.03-.08.09-.1.13,0,0,0,.01-.01.02-.02.04-.05.1-.06.15,0,0,0,.02,0,.02-.02.06-.02.15-.03.2,0,.03,0,.06,0,.08-.02.02-.03.04-.04.06-.06.09-.08.2-.08.31-.02.12,0,.25.04.36l.06.15c.04.07.09.13.16.17.04.04.08.06.13.08.04.02.09.04.14.04.02.04.04.09.06.13.08.25.22.47.42.65.38.35.89.61,1.43.59.03,0,.07,0,.1-.01.04.05.08.1.13.14.17.17.35.33.52.5.26.34.63.6,1.04.73.09.18.26.31.52.31.23,0,.39-.11.48-.26.04,0,.08-.02.13-.03.81-.26,1.53-.86,2.15-1.48.7-.33,1.3-.84,1.83-1.44.55-.31,1.11-.6,1.59-.93,1.01-.69,2.17-1.05,3.32-1.44.41.08.87.01,1.34-.27,0,0,.02-.01.03-.02.32-.05.62-.18.85-.41,1.07-.43,2.22-.63,3.33-.95,1.31-.37,2.59-.78,3.85-1.29-.01.27.03.54.15.83,0,.33.07.7.27,1.08.49.94.6,1.86,1.14,2.69.03.22.09.45.2.67.15.31.23.63.25.97.1.59.42.98.84,1.2-.01.13-.01.26,0,.38,0,.09.02.19.04.28.03.13.1.23.19.32.17.17.41.21.63.16.14-.03.24-.11.34-.2.32-.26.63-.52.94-.78.1-.08.16-.23.17-.36.21-.14.39-.31.53-.52,1.48-2.19,3.33-3.3,5.53-4.56.4.06.83,0,1.27-.23,1.29-.69,2.76-1.07,4.02-1.79.08,0,.17.01.26.01,1.69-.03,3.56-1.05,5.14-1.84.31-.02.62-.06.92-.11.25-.04.52-.08.76-.18.23.21.62.24.84,0,.21-.23.25-.63,0-.86-.09-.08-.18-.17-.27-.26-.04-.04-.08-.09-.12-.13-.02-.02-.04-.04-.06-.07-.02-.05-.07-.09-.1-.14-.03-.05-.06-.1-.1-.15-.07-.11-.13-.23-.19-.34-.04-.08-.1-.14-.18-.19-.12-.55-.44-1.06-.93-1.34,0,0,0,0-.02,0-.05-.54-.29-1.05-.71-1.39-.12-.44-.37-.84-.76-1.11-.03-.05-.05-.11-.08-.16-.04-.44-.21-.86-.5-1.18-.06-.48-.26-.93-.61-1.26-.04-.28-.13-.56-.27-.8-.02-.08-.03-.16-.05-.23.38-.49.51-1.16.39-1.78,0-.14-.02-.27-.05-.4.08-.34.08-.7,0-1.04.16-.28.25-.6.28-.92.1-.25.16-.53.16-.81.23-.39.33-.85.29-1.3.42-.36.65-.9.69-1.45.5-.24.82-.68.97-1.18.45-.2.76-.56.94-.98.24-.3.38-.68.42-1.07.09-.15.17-.29.24-.45.11-.21.18-.42.21-.62.31-.45.69-.89.91-1.33.38-.75.65-1.54.87-2.35.16-.57.04-1.11-.23-1.54h-.04ZM218.89,209.18c-.5.06-.92.15-1.38.38-.3.15-.49.28-.82.34-.25.04-.49.06-.73.07h0c-.22-.14-.46-.22-.71-.24-.1-.02-.19-.02-.29-.02-.11-.05-.22-.1-.32-.15-.28-.31-.67-.53-1.18-.59-.17-.1-.35-.19-.56-.24-.16-.1-.33-.2-.52-.26-.06-.02-.11-.04-.17-.06-.13-.07-.26-.13-.39-.21-.04-.03-.09-.06-.14-.09-.08-.08-.31-.28-.34-.31-.29-.29-.67-.47-1.07-.54.06-.14.11-.28.14-.45.02-.08.04-.15.06-.23.13-.17.25-.36.33-.58.29-.8.8-1.42,1.34-2.05l.91-1c.3-.26.48-.43.54-.52.06-.02.11-.04.18-.06.48-.15.96-.27,1.45-.38.54-.09,1.23-.22,1.8-.07.15.08.31.16.49.23.32.19.64.37.96.56.88.82,1.75,1.67,2.7,2.41.04.13.09.26.13.4.08.28.19.52.34.71-.79,1.1-1.7,2.09-2.74,2.94h0Z"/>
  <path class="st7" d="M173.32,242.88s-.02.06-.04.08c0-.09-.07-.18-.19-.18-.26,0-.26.4,0,.4.04,0,.08-.02.1-.03-.18.38-.34.77-.5,1.16v-.65c-.02-.42-.03-.85-.04-1.27,0-.23-.32-.27-.4-.05-.13.39-.17.8-.12,1.21.01.09.06.16.14.19v.18c0,.25.01.51.02.76,0,.2.03.44.27.48h.01c.07.02.16,0,.22-.05.11-.07.19-.19.27-.29.13-.18.25-.36.34-.56.19-.4.31-.83.28-1.27-.01-.18-.28-.29-.38-.1h0Z"/>
  <path class="st7" d="M171.87,238.94c-.27.1-.55-.16-.77-.3-.34-.22-.71-.38-1.12-.36-.47.02-.65.48-.56.82-.07.03-.14.08-.2.13-.2.18-.31.46-.44.7-.13.25-.26.5-.38.76-.18.4-.35.8-.48,1.21-.05.09-.09.18-.13.27-.42.96-.5,2.09.06,3.01.4.67,1.45.06,1.04-.61-.08-.13-.13-.26-.17-.39.04-.03.07-.06.1-.1.56-.83,1.11-1.65,1.67-2.49.39-.58.79-1.21,1.47-1.43.07-.01.15-.03.22-.06.73-.28.45-1.29-.32-1.17h0Z"/>
  <path class="st7" d="M188.71,242.55c-.09-.26-.2-.52-.41-.71-.24-.23-.53-.29-.84-.29-.36,0-.66-.17-.84-.51-.16-.29-.55-.38-.83-.22-.27.15-.33.43-.26.69,0,.02,0,.05-.02.08-.04.08-.08.16-.13.23-.08.13-.16.25-.24.38-.17.24-.36.46-.58.68-.45.45-.94.79-1.52,1.07-.29.15-.38.56-.22.83.17.3.53.36.83.22.44-.22.86-.5,1.25-.81.15.06.33.06.51-.05.83-.5,1.75-.79,2.72-.83.36-.01.73-.38.58-.77h0Z"/>
  <path class="st7" d="M202.41,236.64c-1-.71-2.2-1.05-3.41-.91-.21-.13-.46-.2-.73-.21-.54-.01-1.13.13-1.66.22-.57.1-1.15.21-1.71.34-.65.15-.51,1.02.02,1.16.43.58,1.2.9,1.77,1.31.77.55,1.5,1.13,2.37,1.52.3.13.65.08.83-.22.09-.16.1-.39.02-.57.1-.02.21-.04.31-.09.59-.29,1.14-.72,1.69-1.07.25-.16.58-.31.74-.57.19-.32.04-.71-.25-.91h0Z"/>
  <path class="st9" d="M184.84,240.64c-2.38.48-4.82.4-7.17-.21-.17-.04-.32-.02-.45.06-.28-.1-.55-.11-.86-.09-.42.03-.75-.08-1.14-.21-.86-.29-1.71-.59-2.57-.88-.31-.11-.66.12-.75.42-.02.07-.02.14-.02.2-.33.17-.54.52-.75.85-.26.43-.59.93-.71,1.42,0,.02,0,.03,0,.04-.05.02-.1.05-.15.08-.5.32-.8.98-1.1,1.47-.31.51-.76,1.12-.76,1.74,0,.63.49,1.04,1.09,1.05h.01c.04.08.1.16.18.22.57.4,1.24.6,1.94.6.13,0,.23-.04.32-.09.27.03.53.02.8,0,.08.05.19.08.31.08h1.27c.26,0,.57.04.84-.03.62.7,2.68.14,3.32-.1.62-.23,1.17-.58,1.79-.79.45-.15.7-.44.87-.8.08-.05.16-.09.23-.14.77-.48,1.4-1.12,2.04-1.77.67-.69,1.37-1.36,1.98-2.11.38-.47.03-1.13-.59-1.01h0Z"/>
  <path class="st0" d="M192.26,245.35c.5-1.42,1.67-2.52,2.97-3.26s2.77-1.16,4.22-1.57"/>
  <path class="st6" d="M201.16,214.41c-.38-.68-1.43-.07-1.04.61,1.21,2.17,1.72,4.65,1.48,7.12-.07.77,1.14.77,1.21,0,.25-2.67-.34-5.39-1.65-7.73h0Z"/>
  <path class="st14" d="M258.62,221.62s-.02-.09-.02-.14c0-1.65.04-3.3.09-4.95.04-1.28-.93-1.93-1.92-1.94-.26-.4-.55-.78-.9-1.12-1.33-1.27-3.31-.29-3.45,1.43-.27,3.57-.18,7.11.28,10.66.16,1.22,1.17,1.86,2.15,1.91.15,1.61.38,3.21.73,4.8.48,2.24,4.01,1.72,3.96-.54-.07-3.39-.38-6.77-.91-10.11h0Z"/>
  <path class="st3" d="M259.31,205.19c-.1-2.14-3.57-2.9-3.96-.54-.22,1.29-.53,2.56-.85,3.83-.08-.02-.17-.04-.25-.06-.08-1.16-.26-2.31-.57-3.45-1.11-4.02-2.87-7.88-5.03-11.45-1.34-2.22-4.83-.19-3.48,2.04,1.99,3.29,3.59,6.77,4.62,10.49,1.02,3.68.32,7.77-.02,11.51-.18,1.96,1.97,2.36,3.23,1.46.59,1.57,1.18,3.15,1.77,4.72.82,2.19,3.7,1.73,3.96-.54.69-5.99.89-12,.59-18.03h0Z"/>
  <path class="st2" d="M259.77,223.24c-.69-1.79-1.38-3.59-2.08-5.38-.49-1.79-.8-3.63-.92-5.49-.01-.76-.03-1.52-.06-2.28-.06-1.76-1.89-2.33-3.07-1.69-.02-.17-.05-.34-.07-.51-.35-2.56-4.24-1.47-3.89,1.07.57,4.22,1.4,8.38,2.51,12.49.14.52.48.91.91,1.15.38,1.43,1.07,2.74,2.05,3.99,1.03,1.32,2.58.58,3.12-.64.2-.12.38-.26.52-.44.81-.41,1.36-1.25.98-2.26h0Z"/>
  <path class="st2" d="M262.65,250.26c-.32-5.67-.75-11.34-1.28-16.99-.14-1.52-2.01-2.4-3.14-1.8-.02-.08-.03-.15-.05-.23-.52-2.54-4.42-1.46-3.89,1.07.79,3.83,1.67,7.64,2.64,11.43.21,1.41.55,2.8,1.09,4.16.13.31.29.56.5.76.03.53.07,1.07.1,1.6.15,2.58,4.18,2.6,4.03,0h0Z"/>
  <path class="st15" d="M265.96,236.67c-.55-3.07-1.14-6.11-2.33-9.01-.4-.96-1.25-1.42-2.07-1.4-.02-.5-.04-1-.06-1.51.71-.15,1.3-.56,1.64-1.26.98-1.99-.79-4.96-1.92-6.54-1.13-1.58-3.7-1.09-3.76,1.02,0,.33-.02.67-.03,1-.57-.18-1.21-.13-1.72.16-.69-.52-1.7-.58-2.42-.16-.37-.6-.61-1.27-1.01-1.86-1.08-1.59-2.77-2.32-4.64-1.9-.65.15-1.27.76-1.41,1.41-.48,2.15-1.29,5.35,1.42,6.34.35.13.67.19.99.21.53,3.07,2.11,5.92,4.48,8.02.35.31.77.47,1.2.51.17.54.34,1.08.53,1.62.23.67.73,1.1,1.3,1.29.07.17.13.33.21.5.51,1.12,1.61,1.22,2.49.77.29.93.64,1.84,1.05,2.72.61,1.29,2.28,1.21,3.17.37,1.32.67,3.24-.38,2.9-2.3h0Z"/>
  <path class="st15" d="M263.01,211.42c-1.05-3.28-2.47-6.43-4.32-9.33-.81-1.26-1.69-2.48-2.67-3.61-.47-.53-.97-1.02-1.42-1.55-.38-.98-.83-1.88-1.45-2.74-.8-1.11-2.19-1.15-3.03-.48-.02-.03-.04-.06-.06-.09-.31-.48-.9-1.24-1.37-2.01l-.79-2.35c-.71-2.13-3.9-1.8-3.96.54v.09c-.22.22-.4.49-.54.82-.27.69-.33,1.17-.42,1.9-.19,1.57,1.23,2.17,2.44,1.83.09.09.18.18.27.27.07.06.15.12.22.17.34.52.7,1.02,1.05,1.5.15,1.35,1.08,2.82,1.86,3.91,1.13,4.03,4.06,7.63,6.3,11.04.5.76,1.54,1.04,2.4.84.35.55.69,1.1,1.04,1.65.91,1.44,3.21,1.02,3.72-.29.63-.49,1.02-1.29.75-2.1h0Z"/>
  <path class="st8" d="M271.21,262.43c-.9-.98-1.71-2.02-2.46-3.12-.03-.05-.08-.09-.12-.12,0-.03,0-.06,0-.1-.04-.63-.3-1.2-.36-1.81-.02-.16-.05-.31-.09-.46.05-.28.13-.57.16-.77.06-.52.03-1.07.1-1.59.14-.96.5-1.84.61-2.81h0c.04-.14.08-.26.13-.38.27-.77.63-1.54.67-2.37.04-.7.25-1.42.2-2.12.38-.43.57-1.03.4-1.75-.3-1.24-.12-2.75-.08-4.04.01-.29-.03-.55-.11-.77.05-.43.1-.87.07-1.3-.06-.95-.31-1.84-.3-2.82,0-.49-.14-.89-.38-1.19,0-.02.01-.04.01-.07.06-.61-.18-1.33-.2-1.95-.02-.75-.13-1.38-.37-2.03.05-.37.05-.74-.04-1.13-.15-.64-.42-.94-.16-1.59.27-.7.14-1.28-.21-1.7,0-.06,0-.13,0-.19v-.04c-.01-.16-.04-.31-.07-.46.02-1.9-.03-3.78-.36-5.69.31-.67.34-1.48.29-2.24-.1-1.41-.34-2.83-.53-4.23-.05-.42-.19-.81-.41-1.15.04-.27.02-.54-.07-.81-.37-1.04-.93-1.96-1.41-2.95-.52-1.07-1.04-1.75-2.04-2.42-.23-.15-.49-.24-.75-.27-.15-.27-.36-.5-.64-.66-.15-.33-.32-.65-.52-.95-.7-1.04-1.45-2.03-2.09-3.11-.2-.33-.45-.57-.72-.73-1.04-1.53-2.2-3.01-3.41-4.39-.14-.15-.28-.28-.43-.38-.33-.47-.69-.89-1.11-1.29-.73-.8-1.56-1.47-2.67-1.88-.17-.06-.33-.09-.5-.1-.03-.01-.06-.03-.09-.04-.08-.04-.42-.26-.4-.22-.15-.15-.29-.35-.44-.5-.12-.12-.19-.19-.24-.22,0-.02-.02-.06-.05-.14-.65-1.37-1.69-2.41-2.68-3.53-.34-.38-.72-.57-1.1-.63-.08-.2-.26-.3-.49-.38-.26-.1-.56-.23-.8,0-.17.16-.18.42-.31.61-.13.19-.29.35-.39.56-.1.21-.15.44-.17.67-.03.09-.06.18-.08.27,0,0-.02,0-.02,0-.33,0-.45.32-.36.56-.23.33-.47.67-.7,1-.17.25-.32.49-.39.78-.27.19-.5.44-.64.72-.16.19-.32.39-.46.59-.22.31.09.6.39.58.06.19.16.38.3.56,1.22,1.62,2.16,3.37,3.09,5.15.02.08.04.16.06.25.58,1.71,1.67,2.99,2.7,4.38.03.09.06.17.11.26.25.49.5,1.01.82,1.46.04.05.08.1.11.15-.02.53.04,1,.16,1.41-.07.28-.08.59-.02.93.31,1.57-.67,2.78-1.26,4.16-.45,1.04-1.06,1.97-1.5,3-.08.06-.16.13-.23.2-.3.3-.56.62-.8.95-.32.24-.54.58-.66.95-.26.23-.46.55-.53.98-.14.92-.4,1.69-.57,2.59-.09.5-.12.99-.12,1.49,0,.19-.09.73-.08.98-.34.67-.25,1.53.16,2.16.02.27.1.56.25.84,1.05,1.95,2.2,3.85,3.34,5.75.59.98,1.09,1.98,1.88,2.7-.11.22-.18.47-.21.75-.35,3.94-.1,8.58,2.2,11.96-.02.06-.02.13,0,.21.25.86.67,1.77.51,2.67-.04.21.06.44.28.5.22.06.42-.08.5-.28.13-.38.1-.78.09-1.17.14-.06.23-.21.24-.37.01-.13.02-.26.03-.4.19,0,.39,0,.58-.04.07.12.15.23.24.35.57.71,1.15,1.41,1.72,2.11.53,1.11,1.23,2.08,1.77,3.2.64,1.33,1.35,2.59,2.1,3.86.02.03.04.06.06.09-.09.19-.02.4.16.52.14.09.22.26.29.42.1.25.19.5.27.76.17.48.33.97.77,1.27.06.04.13.06.19.06.03.07.07.14.13.19.17.17.39.15.6.12.32-.06.65-.15.95-.29.62-.29.71-1.15.83-1.74,0-.05.02-.1.03-.15.12.04.23.07.36.09.06.06.15.1.26.1h0c.43.41.82.85,1.2,1.3.26.31.59.48.94.56.34.56.95.92,1.61.94h.02c.17.08.32.2.5.27.33.12.68.13,1,.27.36.15.67.43,1.09.4.06,0,.13-.03.18-.06.03.04.06.08.1.11.35.38.92-.19.57-.57h0Z"/>
  <path class="st8" d="M238.47,178.81c-.06-.23-.28-.31-.5-.28-.07,0-.28-.13-.39-.19-.07-.07-.14-.13-.21-.18-.38-.24-.81-.4-1.07-.79-.02-.03-.04-.06-.06-.08-.04-.06-.1-.08-.15-.1-.19-.21-.4-.4-.67-.52-.56-.27-1.21-.29-1.73-.63-.13-.08-.26-.07-.36-.02-.23-.28-.54-.5-.94-.6-.63-.16-1.27-.32-1.9-.48-.25-.06-.5-.07-.73-.04-.14-.05-.28-.11-.42-.16-.22-.2-.49-.36-.83-.46-.65-.18-1.28-.31-1.92-.4-.24-.14-.5-.23-.8-.26-2.98-.28-5.83.1-8.68.75-.16,0-.32.01-.5.06-.54.13-1.07.29-1.59.46-.06.02-.13.03-.19.05-.15.04-.28.09-.4.15-1.8.66-3.48,1.57-5.02,2.75-.3.23-.51.5-.64.79-.58.16-1.08.59-1.26,1.38.06-.29-.21.22-.28.33-.19.29-.31.59-.48.89-.43.74-.95,1.33-1.3,2.13-.64,1.48-.79,3.06-.77,4.66,0,.23.04.44.1.63-.02.01-.04.02-.05.04-.11.13-.15.25-.12.42.02.08.06.15.13.21,0,.05.02.11.04.17.11.21.22.42.33.63.12.75.34,1.46.67,2.15.22.47.92.06.7-.41,0-.01,0-.02-.01-.03.12-.04.22-.13.26-.27.13-.48.6-.78.77-1.25.02-.04.04-.19.06-.28.02.05.09.11.13.16.19.29.36.61.53.91.52.91.88,2.32,2.06,2.55,1.13.22,2.37-.29,3.33-.83.57-.32,1.19-.45,1.8-.69.24-.09.47-.21.68-.35.05-.04.1-.07.14-.11.02,0,.04,0,.06,0,.21-.06.39-.15.55-.27.17-.09.34-.19.5-.29,0,0,.01.02.02.02.03.01.06.03.1.04.07.02.14.02.21,0,.04,0,.07-.02.11-.03.07-.02.13-.05.2-.08.03-.02.06-.04.09-.06.02,0,.03-.02.05-.03,0,0,.01,0,.02-.01.01-.01.03-.02.04-.03.02-.02.05-.04.07-.06.04-.04.07-.08.08-.13.02-.05.04-.1.04-.16,0-.02,0-.03-.01-.05.08,0,.17-.04.24-.13.22-.26.43-.52.63-.79.01-.02.02-.04.04-.05.02.17.14.32.36.34-.03.42-.08.84-.17,1.25-.03.15.02.27.1.36,0,.03,0,.06-.01.09-.1.21-.16.43-.21.65-.04.14-.07.28-.11.42-.27.65-.67,1.24-1.19,1.74-.37.36.17.9.55.58.08.04.19.06.29.04.17-.03.32-.08.48-.14.06.04.13.07.22.08.17.02.32-.06.47-.12.1-.04.21-.1.31-.15,0,0,.04-.02.04-.02.01,0,.03-.01.04-.02.06-.02.11-.04.17-.06.03,0,.06-.02.08-.02h.19c.11,0,.22-.05.29-.14.22,0,.42-.08.62-.2.22.04.44,0,.66-.11.21-.11.38-.25.61-.32.21-.06.42-.07.63-.13.35-.1.69-.27.99-.48.17-.12.33-.28.51-.42.1.03.2.03.31-.03.11-.06.21-.14.29-.23.29-.21.62-.37.92-.58.38-.26.71-.58,1.03-.91.31-.32.61-.66.94-.96.33-.31.73-.54,1.03-.87.1-.11.12-.24.09-.36.11-.08.22-.19.32-.31.83-1.02,1.64-2.07,2.36-3.17.08-.11.15-.24.23-.38.08-.05.15-.1.22-.17,1.02-.89,1.72-2.49,2.43-3.63.04-.06.06-.11.08-.17.62-.36,1.25-.75,1.82-1.19.09-.07.15-.15.18-.23.1-.05.21-.11.29-.18.05-.04.08-.08.11-.13.11.02.22.02.35,0,.21-.03.33-.31.28-.5v.02Z"/>
  <path d="M217.15,205.35c-.43-.47-1.07-.73-1.68-.88-.3-.07-.54.2-.5.46-.13.07-.21.19-.22.35-.01.15-.02.3-.02.46-.06.09-.1.19-.12.29h0c-.25.28-.32.67-.13,1,.14.25.42.41.7.46.32.06.63.02.95-.06.34-.08.69-.19,1-.33.76-.35.45-1.26.02-1.75Z"/>
  <path class="st5" d="M199.77,240.77c-.17-.13-.17-.39-.32-.54-.11-.12-.26-.18-.41-.21-.83-.67-1.42-1.57-2.54-1.72-.44-.38-.93-.71-1.16-.92-.42-.38-.75-1.04-1.38-1.06-.31,0-.54.16-.79.32-.36.23-.73.46-1.09.68-1.65,1-3.38,1.87-5.17,2.61-.1.04-.17.12-.23.21-.32-.08-.67.36-.38.68.6.67,1.39,1.04,2.15,1.46.35.3.71.58,1.1.84.08.06.17.12.26.18.15.16.31.32.46.48.32.33.77.76,1.26.82-.06.16-.02.34.17.45.1.06.2.11.3.17,0,0,.02,0,.02,0,.04.02.08.04.12.06.19.1.44.05.55-.15.64-1.12,1.75-1.8,2.83-2.44,1.09-.65,2.52-1.8,3.85-1.26.37.15.71-.43.39-.67h0Z"/>
  <path class="st1" d="M237.08,197.23c1.51-.74,2.57-2.16,3.55-3.53,1.66-2.3,3.32-4.63,4.42-7.24s1.59-5.58.82-8.3c-.11-.4-.29-.84-.69-.99-.21-.08-.44-.06-.67-.03-.96.12-1.9.35-2.8.67-.47.17-.94.36-1.39.56-.33.16-.89.61-1.25.6-.72-.02-1.83-1-2.42-1.39-.81-.53-1.63-1.07-2.53-1.47-1.27-.56-2.65-.83-3.97-1.28-.84-.29-1.65-.67-2.51-.92-1.46-.43-3-.5-4.52-.47-5.16.09-10.55,1.36-14.28,4.92-1.6,1.53-2.83,3.43-3.57,5.51-1.04,2.92-1.01,6.43.9,8.89.33-.68.65-1.37.98-2.05.3-.63.61-1.27.68-1.97.1-.89-.31-1.89-.04-2.75.21-.66.51-1.38.81-2.01.74-1.55,1.96-2.81,3.14-4.03"/>
  <path class="st1" d="M207.71,190.12l1.16,2.37c.21.42.44.87.85,1.11.27.15.58.2.89.2.63,0,1.23-.2,1.82-.4,1.57-.54,3.11-1.19,4.62-1.92.43-.21.86-.43,1.23-.72.64-.49,1.11-1.17,1.57-1.84-.11,1.62-.54,3.22-1.25,4.68-.25.51-.54,1-.96,1.38,1.53.3,3.08-.21,4.55-.71.96-.33,1.92-.65,2.8-1.13,1.04-.56,1.98-1.31,2.74-2.21.58-.69,1.49-1,2.06-1.7.2-.24.38-.49.56-.74.21-.28.41-.56.61-.84.71-.97,1.42-1.94,2.13-2.91.42-.57.84-1.15,1.14-1.78.88-1.86,2.85-2.91,4.54-4.08"/>
  <path class="st1" d="M236.12,190.65c.56-1.88,2.09-3.29,3.06-4.99.59-1.04.98-2.19,1.55-3.26s1.36-2.07,2.47-2.52"/>
  <path class="st1" d="M204.22,188.5c-.49-2.01-.49-4.11-.49-6.18,0-.34,0-.69.06-1.03.05-.3.14-.6.19-.9.07-.39.07-.78.11-1.17.07-.64.23-1.27.4-1.9.14-.54.28-1.08.48-1.6.16-.41.36-.81.56-1.2.21-.42.42-.84.63-1.26.26-.52.59-1.09,1.16-1.2.36-.07.71.07,1.04.23,1.59.77,2.91,2,4.2,3.22"/>
  <path class="st1" d="M209.67,189.86c.13-2.53,1.66-4.76,3.3-6.69,2.07-2.43,4.4-4.63,6.96-6.54"/>
  <path class="st1" d="M225.13,176.45c-2.44.67-4.38,2.48-6.2,4.23-1.51,1.45-3.03,2.91-4.23,4.62-.63.9-1.17,1.87-1.6,2.88"/>
  <path class="st1" d="M215.25,190.72l1.76-3.27c.73-1.35,1.48-2.73,2.6-3.78,1.25-1.17,2.99-1.97,3.64-3.56"/>
  <path class="st1" d="M229.9,177.8c-.63.13-1.17.52-1.65.94-2.16,1.82-3.86,4.19-4.87,6.83"/>
  <path class="st1" d="M223.17,190.81c1.12-3.32,2.92-6.42,5.26-9.04"/>
  <path class="st1" d="M234.34,179.1c-2.96,2.63-4.85,6.27-6.18,10"/>
  <path class="st1" d="M241.38,193.1c.38.15.51.6.77.91.25.31.62.5.88.8.35.42.44.99.65,1.49.23.54.61,1.01.9,1.53.19.34.34.71.49,1.07.27.63.56,1.24.87,1.84.35.67.73,1.32,1.19,1.91.42.53.92,1.03,1.12,1.68.13.42.84,1.11,1.14,1.46.48.55.53,1.5.73,2.19.29.98.54,1.96.76,2.95.44,1.98.73,4,.87,6.03.01.04.05-.04,0-.04s-.05.05-.06.09c-.14,1.53-.21,3.06-.22,4.6,0,.91.01,1.82.19,2.71.15.8.43,1.57.7,2.33.73,2.05,1.47,4.12,2.77,5.86"/>
  <path class="st1" d="M249.03,205.99l.12,1.92c.02.32.04.65,0,.97-.06.47-.27.91-.47,1.34-.04-.05-.08-.1-.11-.15-.67,1.6-1.34,3.21-2.25,4.69-1.04.83-1.82,1.97-2.22,3.24-.1.31-.18.65-.1.97.03.01.03-.05,0-.05s-.05.03-.06.06c-.44,1.01-.64,2.12-.58,3.22.02.5.02,1.07.02,1.58"/>
  <path class="st1" d="M248.81,199.99c-.46-2.06-1.42-3.97-2.36-5.86-.4-.79-.8-1.6-1.36-2.29-.46-.58-1.03-1.06-1.59-1.55"/>
  <path class="st1" d="M252.49,206.24c-.06-1-.5-1.95-.65-2.95-.08-.56-.08-1.13-.15-1.69-.08-.58-.25-1.13-.42-1.69-.74-2.32-1.64-4.6-2.68-6.8-.48-1.02-1.11-2.13-2.19-2.47"/>
  <path class="st1" d="M245.22,186.89c.84-.1,1.6.47,2.21,1.06.63.6,1.21,1.25,1.74,1.95s.94,1.63,1.53,2.3c.42.48,1.21.34,1.78.59.81.36,1.48,1,2.08,1.65,1.1,1.19,2.1,2.46,3.1,3.72.67.85,1.34,1.69,2,2.54.65.83,1.3,1.66,1.91,2.52,1.04,1.49,1.94,3.07,2.72,4.71.4.83.77,1.68.97,2.58.44,1.92.13,4.05,1.03,5.8.61,1.18.42,2.55.2,3.85-.08.45-.21.9-.29,1.35-.12.61-.15,1.23-.18,1.84-.05.94-.1,1.88-.15,2.82-.02.47-.05.95.02,1.42.04.22.09.44.12.66.02.23,0,.47,0,.7-.06,1.84.27,3.68.78,5.44s.34,3.83.46,5.75c.04,0,.02-.08-.02-.07s-.06.06-.06.11c-.26,2.17-.42,4.35-.48,6.53"/>
  <path class="st1" d="M259.73,203.35c1.29,1.37,1.4,3.44,2.05,5.2.31.84.74,1.62,1.04,2.46.25.71.42,1.44.57,2.18.13.58.25,1.16.38,1.73"/>
  <path class="st1" d="M256.1,199.37l1.74,6.35c.19.67.37,1.35.66,1.99.34.75.82,1.44,1.03,2.23.11.4.14.82.19,1.23.17,1.44.48,2.85.91,4.23.3.98.66,1.94.86,2.95.14.72.2,1.46.26,2.19.36,4.29.92,8.57,1.67,12.81.25,1.43-.15,2.88.26,4.28.15.49.34.96.44,1.47.1.54.08,1.1.07,1.65"/>
  <path class="st1" d="M255.95,226.79c.56,1.14.79,2.42.93,3.68.35,3.28.06,6.81-1.89,9.47-.55.75-1.25,1.46-1.45,2.37-.15.68,0,1.43-.31,2.05.42-3.53-.17-7.18-1.65-10.41-.66-1.43-1.49-2.78-2.06-4.24-.26-.67-.46-1.36-.67-2.05-1.28-4.32-2.57-8.79-2.03-13.26"/>
  <path class="st1" d="M257.02,249.27c1.35,1.8,2.45,3.78,3.27,5.87.75,1.91,1.25,4.1.42,5.97-1.24-2.32-2.48-4.65-3.72-6.97-.8-1.5-1.61-3.02-2.67-4.36-.47-.6-.98-1.15-1.55-1.67-.37,1.42-.74,2.84-1.11,4.26.19-1.39.06-2.82-.38-4.15-.47-1.4-1.27-2.67-1.74-4.06-.36-1.07-.52-2.21-.67-3.33-.15-1.05-.29-2.11-.28-3.16.03-2.43.88-4.81.72-7.24"/>
  <path class="st1" d="M262.28,254.52c-.15-1.25-.62-2.47-1.36-3.5-.28-.39-.59-.75-.83-1.16-.17-.29-.3-.61-.42-.92-.42-1.02-.83-2.05-1.25-3.07-.98-2.43-1.98-4.92-2.12-7.54"/>
  <path class="st1" d="M255.74,224.79l-.34-4.35c-.01-.17-.03-.34-.04-.52-.05-.65-.1-1.3-.17-1.95-.19-1.86-.49-3.7-.67-5.56"/>
  <path class="st1" d="M260.98,261.18c.52.03,1.06-.02,1.53-.25s.85-.68.91-1.19c.02-.19,0-.39.06-.57.06-.22.22-.4.33-.61.15-.28.22-.61.28-.92.24-1.28.46-2.59.38-3.89-.03-.53-.11-1.06-.27-1.56-.07-.23-.16-.45-.21-.68-.04-.21-.06-.42-.08-.64-.13-1.5-.55-2.95-.97-4.4-.65-2.26-1.48-4.44-2.2-6.68-.14-.44-.28-.87-.34-1.32-.06-.44-.06-.88-.1-1.32-.04-.41-.12-.81-.19-1.21-.18-.95-.36-1.93-.21-2.88.07-.44-.2-.85-.27-1.29-.09-.58-.08-1.16-.17-1.74-.07-.52-.22-1.02-.27-1.54-.04-.43-.02-.87-.02-1.3,0-.62-.03-1.24-.08-1.86-.14-2.01-.38-4.02-.92-5.96-.32-1.16-.26-2.3-.48-3.49-.3-1.6-.29-3.3-1.06-4.74-.53-1-.46-2.15-1.01-3.15-.25-.46-.56-.91-.67-1.43"/>
  <path class="st1" d="M264,259.11c.64,1.06,1.65,1.84,2.63,2.59.16.12.32.25.5.33.37.16.78.14,1.17.26.31.1.59.29.9.43.79.35,1.69.27,2.54.18-.75-.55-1.36-1.27-1.96-1.99-.31-.38-.62-.75-.81-1.2-.12-.28-.19-.58-.27-.88-.19-.8-.39-1.61-.41-2.43-.02-.86.16-1.71.33-2.55.19-.93.39-1.86.71-2.76.22-.61.49-1.19.59-1.83.11-.68.01-1.39.17-2.07.18-.77.68-1.51.5-2.27-.23-.98-.13-1.9-.17-2.91-.03-.81-.02-1.61-.04-2.42-.03-.85-.1-1.7-.21-2.55-.08-.56-.17-1.13-.34-1.68-.06-.2-.14-.4-.17-.61-.05-.29-.03-.6-.03-.9.02-1.01-.11-2.02-.4-2.99-.2-.68-.24-1.39-.33-2.09-.14-1.04-.06-2.09-.07-3.13-.02-1.11-.16-2.22-.29-3.32-.11-.94-.22-1.9-.04-2.83.34-1.73.06-3.39-.21-5.14-.25-1.6-.88-3.11-1.5-4.61-.35-.84-.7-1.67-1.24-2.4s-1.28-1.34-2.17-1.53"/>
  <path class="st1" d="M237.05,221.6c-1.44,3.22-3.28,6.26-5.45,9.03-.16-.02-.31-.11-.4-.25-.13.37-.44.65-.74.9-2.35,2.02-4.87,3.97-7.83,4.87-1.65.5-3.41.65-5.01,1.3-.84.34-1.62.8-2.48,1.08-.92.3-1.91.37-2.83.67-2.81.95-4.6,3.98-7.48,4.71"/>
  <path class="st1" d="M207.42,208.51c.52.35,1.25.38,1.79.07.62-.35.95-1.03,1.25-1.67.52-1.14,1.05-2.3,1.86-3.26s1.96-1.71,3.21-1.74c1.16-.04,2.26.53,3.22,1.18,1.09.72,2.13,1.61,2.65,2.81.08.19.15.39.13.59-.03.26-.22.48-.4.67-1,1.05-2.22,1.9-3.56,2.48-.38.17-.79.31-1.2.29-.41-.01-.8-.18-1.18-.34-1.62-.71-3.22-1.47-4.78-2.29"/>
  <path class="st1" d="M214.46,206.15c-.03.26-.06.54.06.77.08.15.22.27.37.36.36.23.79.33,1.22.28.38-.04.73-.19,1.06-.37.36-.2.71-.44.92-.8.31-.52.25-1.21-.08-1.72-.43-.69-1.59-1.41-2.4-.98s-1.06,1.68-1.15,2.46h0Z"/>
  <path class="st1" d="M208.86,199.76c.85.03,1.49-.71,2.25-1.08.48-.24,1.03-.33,1.56-.42.74-.12,1.48-.24,2.22-.36.54-.08,1.09-.17,1.62-.08.42.08.81.26,1.2.44,2.05.97,4.27,2.11,5.15,4.2"/>
  <path class="st1" d="M203.43,232.6c0-2.59,1.38-5.14,3.54-6.55,1.27-.83,2.74-1.27,4.21-1.66"/>
  <path class="st1" d="M184.31,221.52c.9.49,1.59,1.28,2.27,2.05.24.27.48.56.61.9.11.31.11.65.12.98,0,.79-.02,1.67-.58,2.23-.25.25-.56.4-.87.58-.4.23-.77.5-1.18.72-1.31.73-2.85.93-4.35,1.04-.99-1.13-1.07-2.85-.55-4.26s1.53-2.57,2.58-3.65c1.25-1.29,2.72-2.57,4.5-2.72.61-.05,1.25.04,1.74.42.98.76.9,2.26.55,3.45-.26.88-.61,1.74-.96,2.59-.21.5-.47,1.07-.98,1.25"/>
  <path class="st1" d="M167.24,221.17c.56.02,1.07-.31,1.5-.66,1.04-.83,1.9-1.89,2.51-3.07.15-.29.28-.58.29-.9"/>
  <path class="st1" d="M203.7,188.12c-1.53,1.43-3.22,2.7-5.02,3.78-.5.3-1.02.59-1.46.98-.72.65-1.2,1.54-1.96,2.14-1.74,1.37-4.43.8-6.25,2.06-2,1.38-2.25,4.45-4.24,5.84-.78,2.04-2.95,3.15-4.3,4.87-.27.35-.52.73-.81,1.06-.27.31-.6.58-.92.84-.84.67-1.72,1.3-2.6,1.92-1.02.72-2.05,1.44-3.07,2.17-.87.61-1.73,1.23-2.67,1.74-.95.52-1.99.96-2.74,1.75-.52.55-1,1.22-1.42,1.85-.29.45-.59.9-.89,1.35-.34.52-.69,1.04-.97,1.6-.78,1.53-1.09,3.25-1.4,4.95-.13.71-.25,1.41-.38,2.12-.24.94-.41,1.91-.5,2.88-.06.62-.08,1.26.12,1.86s.65,1.13,1.26,1.27c.91.21,1.67.71,2.51,1.11,4.95,2.31,10.1,4.67,15.56,4.72.98,0,1.96-.06,2.91-.26,1.25-.27,2.44-.76,3.59-1.32.96-.48,1.9-1.01,2.84-1.54.44-.25.89-.5,1.34-.73,1.73-.89,3.64-1.53,5.59-1.57,1.95-.04,3.96.54,5.42,1.83-.27-.23-3.03,1.93-3.3,2.21-1.07,1.13.69,2.05,1.55,2.6.65.42,1.24.91,1.83,1.4,1.06.88,2.12,1.76,3.18,2.63"/>
  <path class="st1" d="M167.08,237.36c-1.01,1.36-2.03,2.72-2.8,4.22s-1.31,3.17-1.28,4.86c0,.63.1,1.27.43,1.82.22.37.54.67.88.94,1.46,1.19,3.26,1.9,5.1,2.28s3.73.44,5.61.41"/>
  <path class="st1" d="M163.32,248.77c-.15,1.15.01,2.34.47,3.41.17.38.36.74.56,1.11.21.38.42.75.67,1.1.35.48.78.88,1.23,1.27,1.58,1.38,3.4,2.54,5.43,3.03.53.13,1.08.21,1.63.27,2.54.31,5.24.35,7.5-.85,1.45-.77,2.6-2,3.76-3.17,2.3-2.32,4.76-4.5,7.34-6.51.42-.33.89-.4,1.34-.68.11-.07.22-.14.34-.19.17-.08.34-.13.52-.17.22-.05.44-.09.66-.13"/>
  <path class="st1" d="M169.64,238.4c-.69,1.06-1.38,2.13-1.75,3.34s-.38,2.58.26,3.66c.15.26.34.5.55.71,1.22,1.19,3.09,1.31,4.8,1.36.81.02,1.62.04,2.43.06,1.3.04,2.42.09,3.54-.57s2.12-1.35,3.07-2.28c.69-.67,1.36-1.35,2.02-2.04.45-.47.91-.97,1.08-1.6.06-.21.17-.5.38-.44.1.03.17.13.22.23.5.81,1.48,1.09,2.24,1.58s1.41,1.17,2.12,1.72l1.53,1.19c.88.69,1.77,1.38,2.74,1.95.65.38,1.32.71,1.95,1.13.63.41,1.2.9,1.81,1.33,1.16.81,2.47,1.4,3.76,1.99-.31-1.07-.21-2.25.27-3.26s1.33-1.83,2.35-2.27c.48-.21,1.06-.33,1.53-.1.42.2.68.63.78,1.08s.06.92.02,1.37c-.07.68-.16,1.37-.42,2.01s-.69,1.23-1.29,1.55c-1.05.55-2.34.19-3.47-.19"/>
  <path class="st1" d="M182.28,245.5c.51-.23,1.02-.46,1.53-.69.21-.09.41-.18.61-.27.11-.05.23-.1.34-.15.49-.21.99-.43,1.5-.61.3-.1.61-.19.91-.31.15-.06.29-.12.43-.17.44-.16.93-.19,1.38-.06"/>
  <path class="st1" d="M194.55,236.67c.31.33.65.63,1,.91,1.2.94,2.64,1.61,3.6,2.8"/>
  <path class="st1" d="M172.7,239.73c-.65.24-1.16.75-1.59,1.3s-.77,1.15-1.21,1.69c-.2.25-.42.48-.59.74-.43.64-.59,1.41-.73,2.16"/>
  <path class="st1" d="M174.64,246l.77-2.1c.19-.52.38-1.04.68-1.51.34-.53.81-.97,1.11-1.53"/>
  <path class="st1" d="M194.53,197.1c-.94,1.31-2.44,2.1-3.93,2.71-1.5.61-3.06,1.09-4.4,1.98"/>
  <path class="st1" d="M248.56,233.73c-2.69-.02-5.28.96-7.79,1.94-1.63.63-3.26,1.27-4.88,1.9-1.64.64-3.32,1.3-4.62,2.49-1.7,1.55-2.78,3.97-4.98,4.62"/>
  <path class="st1" d="M242.96,223.58c.29,1.81,1.25,3.43,2.19,5,1.17,1.96,2.35,3.93,3.53,5.9"/>
  <path class="st1" d="M223.12,235.85c.92,3.07,2.14,6.04,3.64,8.87"/>
</svg>